<?xml version="1.0" encoding="UTF-8" standalone="no"?>
<!DOCTYPE svg PUBLIC "-//W3C//DTD SVG 1.1//EN" "http://www.w3.org/Graphics/SVG/1.1/DTD/svg11.dtd">
<svg width="100%" height="100%" viewBox="0 0 1330 933" version="1.1" xmlns="http://www.w3.org/2000/svg" xmlns:xlink="http://www.w3.org/1999/xlink" xml:space="preserve" xmlns:serif="http://www.serif.com/" style="fill-rule:evenodd;clip-rule:evenodd;stroke-linejoin:round;stroke-miterlimit:2;">
    <rect id="compute-bound" x="0.891" y="0" width="1328.5" height="932.777" style="fill:none;"/>
    <clipPath id="_clip1">
        <rect x="0.891" y="0" width="1328.5" height="932.777"/>
    </clipPath>
    <g clip-path="url(#_clip1)">
        <g id="g15277">
        </g>
        <path id="path12745" d="M54.368,74.272c-4.305,5.18 -8.391,8.974 -12.257,11.382c-3.904,2.444 -7.989,3.648 -12.258,3.648c-10.214,-0 -15.321,-5.144 -15.321,-15.467c0,-3.211 0.438,-6.603 1.313,-10.215l8.61,-37.938l-12.258,-0l1.022,-4.962c2.918,-0.073 5.107,-0.328 6.566,-0.729c1.459,-0.365 2.663,-0.912 3.648,-1.605c1.058,-0.657 1.97,-1.642 2.773,-2.919c0.875,-1.24 1.678,-2.845 2.48,-4.815c0.766,-2.043 1.934,-5.472 3.502,-10.36l10.068,-0l-4.085,18.094l22.179,-0l-1.605,7.296l-22.179,-0l-6.421,28.308c-1.276,5.545 -2.116,9.557 -2.48,11.965c-0.292,2.335 -0.438,4.232 -0.438,5.691c-0,6.055 2.481,9.047 7.442,9.047c2.116,-0 4.414,-0.766 6.858,-2.335c2.408,-1.642 5.289,-4.451 8.609,-8.463l4.232,4.377Z" style="fill:#191919;fill-rule:nonzero;"/>
        <path id="path12648" d="M104.59,76.56c-0.11,-1.933 -0.292,-3.502 -0.584,-4.669c-0.219,-1.24 -0.547,-2.225 -1.021,-2.918c-0.511,-0.766 -1.168,-1.314 -2.043,-1.605c-0.876,-0.365 -1.97,-0.584 -3.211,-0.584c-1.969,-0 -3.866,0.438 -5.69,1.313c-1.751,0.876 -3.429,2.116 -4.962,3.648c-1.568,1.569 -2.991,3.429 -4.231,5.545c-1.277,2.043 -2.408,4.305 -3.356,6.712c-0.876,2.335 -1.569,4.815 -2.043,7.442c-0.511,2.627 -0.73,5.217 -0.73,7.734c0,3.903 0.73,6.858 2.189,8.901c1.532,2.042 3.867,3.064 7.004,3.064c1.642,-0 3.21,-0.146 4.67,-0.438c1.459,-0.292 2.845,-0.766 4.231,-1.459c1.459,-0.766 2.918,-1.751 4.378,-2.918c1.459,-1.241 3.1,-2.773 4.961,-4.524c0.657,0.803 1.313,1.532 1.897,2.189c0.656,0.693 1.35,1.423 2.043,2.189c-3.904,4.085 -7.843,7.15 -11.82,9.193c-3.903,1.933 -8.135,2.918 -12.695,2.918c-5.654,-0 -9.995,-1.642 -12.986,-4.961c-3.028,-3.283 -4.524,-8.026 -4.524,-14.154c0,-3.502 0.365,-6.786 1.168,-9.923c0.766,-3.21 1.824,-6.201 3.21,-9.047c1.459,-2.809 3.21,-5.326 5.253,-7.587c2.043,-2.335 4.268,-4.305 6.712,-5.983c2.517,-1.751 5.18,-3.064 8.026,-3.94c2.918,-0.875 5.982,-1.313 9.192,-1.313c2.627,-0 5.035,0.146 7.296,0.438c2.335,0.291 4.706,0.729 7.15,1.313l-3.064,13.424l-6.42,0Z" style="fill:#191919;fill-rule:nonzero;"/>
        <path id="path12621" d="M140.263,118.293c-3.028,-0 -5.764,-0.438 -8.171,-1.313c-2.335,-0.949 -4.378,-2.262 -6.129,-3.94c-1.678,-1.751 -2.918,-3.83 -3.794,-6.275c-0.875,-2.407 -1.313,-5.18 -1.313,-8.317c0,-5.144 0.766,-9.959 2.335,-14.446c1.641,-4.56 3.867,-8.5 6.712,-11.819c2.918,-3.393 6.311,-6.019 10.214,-7.88c3.867,-1.933 8.172,-2.918 12.841,-2.918c3.21,-0 6.019,0.547 8.463,1.605c2.517,0.985 4.597,2.408 6.275,4.232c1.641,1.86 2.845,4.012 3.648,6.42c0.875,2.444 1.313,5.034 1.313,7.734c-0,5.654 -0.839,10.725 -2.481,15.175c-1.678,4.487 -3.939,8.39 -6.858,11.674c-2.918,3.21 -6.347,5.69 -10.214,7.441c-3.903,1.751 -8.171,2.627 -12.841,2.627Zm-8.609,-17.51c0,4.195 0.803,7.296 2.481,9.338c1.751,1.97 4.414,2.919 8.025,2.919c1.934,-0 3.794,-0.474 5.545,-1.459c1.751,-0.949 3.356,-2.262 4.815,-3.94c1.459,-1.642 2.773,-3.539 3.94,-5.691c1.167,-2.225 2.116,-4.596 2.918,-7.15c0.767,-2.517 1.35,-5.107 1.751,-7.734c0.475,-2.699 0.73,-5.326 0.73,-7.879c0,-4.086 -0.839,-7.15 -2.481,-9.193c-1.568,-2.116 -4.085,-3.21 -7.587,-3.21c-2.043,-0 -3.94,0.511 -5.691,1.459c-1.751,0.876 -3.429,2.152 -4.961,3.794c-1.459,1.569 -2.773,3.465 -3.94,5.691c-1.167,2.152 -2.189,4.487 -3.064,7.004c-0.803,2.444 -1.423,5.07 -1.897,7.879c-0.402,2.736 -0.584,5.472 -0.584,8.172Z" style="fill:#191919;fill-rule:nonzero;"/>
        <path id="path12675" d="M229.553,117.271l-10.652,0c0.474,-2.334 1.021,-4.815 1.605,-7.441c0.657,-2.7 1.35,-5.436 2.043,-8.172c0.657,-2.809 1.313,-5.545 1.897,-8.171c0.584,-2.627 1.094,-5.107 1.605,-7.442c0.474,-2.335 0.876,-4.414 1.167,-6.274c0.292,-1.824 0.438,-3.284 0.438,-4.378c0,-2.335 -0.438,-4.013 -1.313,-5.107c-0.876,-1.058 -2.335,-1.605 -4.378,-1.605c-1.751,-0 -3.648,0.693 -5.69,2.043c-1.97,1.276 -3.867,2.991 -5.691,5.107c-1.751,2.152 -3.356,4.596 -4.816,7.296c-1.386,2.626 -2.334,5.326 -2.918,8.025l-5.545,26.119l-10.798,0l8.172,-35.749c0.474,-1.934 0.802,-3.648 1.021,-5.108c0.292,-1.459 0.438,-2.663 0.438,-3.648c-0,-2.626 -1.095,-3.939 -3.21,-3.939c-0.693,-0 -1.387,0.146 -2.043,0.437c-0.693,0.219 -1.423,0.584 -2.189,1.168c-0.693,0.583 -1.459,1.313 -2.335,2.189c-0.875,0.802 -1.897,1.751 -3.064,2.918l-3.794,-3.648c1.824,-1.824 3.502,-3.393 4.961,-4.669c1.533,-1.35 2.992,-2.481 4.378,-3.357c1.459,-0.875 2.845,-1.495 4.232,-1.896c1.349,-0.365 2.772,-0.584 4.231,-0.584c2.627,-0 4.67,0.875 6.129,2.626c1.532,1.751 2.334,4.086 2.334,7.004c0,0.803 -0.109,1.569 -0.291,2.335c-0.11,0.803 -0.292,1.532 -0.584,2.189l0.73,0.292c3.502,-4.852 6.931,-8.463 10.36,-10.798c3.502,-2.408 7.04,-3.648 10.652,-3.648c3.867,-0 6.748,1.021 8.609,3.064c1.933,1.97 2.918,4.815 2.918,8.609l0,1.897l0.146,0c3.393,-4.56 6.749,-7.952 10.068,-10.214c3.393,-2.225 6.932,-3.356 10.652,-3.356c3.794,-0 6.64,1.021 8.61,3.064c1.933,2.043 2.918,4.961 2.918,8.755c0,1.168 -0.219,2.736 -0.584,4.67c-0.401,1.86 -0.875,3.939 -1.459,6.274c-0.511,2.262 -1.021,4.633 -1.605,7.15c-0.584,2.444 -1.167,4.779 -1.751,7.004c-0.292,1.386 -0.584,2.554 -0.875,3.502c-0.219,0.876 -0.365,1.605 -0.438,2.189c-0.11,0.584 -0.219,1.131 -0.292,1.605l-0,1.313c-0,1.459 0.219,2.481 0.73,3.065c0.583,0.583 1.459,0.875 2.626,0.875c0.584,0 1.204,-0.073 1.897,-0.292c0.657,-0.292 1.35,-0.656 2.043,-1.167c0.766,-0.584 1.605,-1.313 2.48,-2.189c0.949,-0.875 1.97,-1.897 3.065,-3.064l3.794,3.648c-1.751,1.751 -3.429,3.319 -4.962,4.669c-1.459,1.277 -2.918,2.335 -4.377,3.21c-1.386,0.876 -2.773,1.533 -4.232,1.897c-1.386,0.475 -2.845,0.73 -4.377,0.73c-1.387,-0 -2.627,-0.292 -3.794,-0.876c-1.095,-0.474 -2.007,-1.167 -2.773,-2.042c-0.802,-0.876 -1.422,-1.897 -1.897,-3.065c-0.401,-1.24 -0.583,-2.626 -0.583,-4.085c-0,-2.992 0.62,-6.895 1.897,-11.674c0.656,-2.335 1.313,-4.56 1.897,-6.712c0.583,-2.225 1.058,-4.268 1.459,-6.129c0.365,-1.824 0.656,-3.429 0.875,-4.815c0.292,-1.459 0.438,-2.663 0.438,-3.648c0,-2.225 -0.438,-3.867 -1.313,-4.961c-0.876,-1.058 -2.262,-1.605 -4.086,-1.605c-1.094,-0 -2.262,0.292 -3.502,0.875c-1.277,0.584 -2.59,1.423 -3.94,2.481c-1.276,0.985 -2.553,2.189 -3.794,3.648c-1.276,1.459 -2.444,3.028 -3.502,4.669c-0.985,1.678 -1.897,3.429 -2.772,5.253c-0.803,1.751 -1.423,3.612 -1.897,5.545l-5.399,26.119Z" style="fill:#191919;fill-rule:nonzero;"/>
        <path id="path12624" d="M295.482,81.376c0.365,-1.934 0.656,-3.575 0.875,-4.962c0.183,-1.349 0.292,-2.553 0.292,-3.648c0,-2.626 -1.094,-3.939 -3.21,-3.939c-0.693,-0 -1.386,0.146 -2.043,0.437c-0.584,0.219 -1.277,0.584 -2.043,1.168c-0.802,0.583 -1.605,1.313 -2.48,2.189c-0.876,0.802 -1.861,1.751 -2.919,2.918l-3.794,-3.648c1.824,-1.824 3.502,-3.393 4.962,-4.669c1.532,-1.35 2.991,-2.481 4.377,-3.357c1.459,-0.875 2.809,-1.495 4.086,-1.896c1.35,-0.365 2.772,-0.584 4.231,-0.584c2.7,-0 4.816,0.875 6.275,2.626c1.459,1.751 2.189,4.086 2.189,7.004c-0,0.803 -0.073,1.569 -0.146,2.335c-0.11,0.803 -0.365,1.569 -0.73,2.335l0.73,0.438c3.575,-5.035 7.077,-8.755 10.506,-11.09c3.502,-2.408 7.15,-3.648 10.944,-3.648c4.377,-0 7.66,1.568 9.922,4.669c2.335,3.137 3.502,7.697 3.502,13.717c0,5.253 -0.839,10.214 -2.48,14.883c-1.569,4.67 -3.758,8.755 -6.567,12.257c-2.736,3.502 -5.946,6.275 -9.63,8.318c-3.612,2.042 -7.442,3.064 -11.528,3.064c-2.918,-0 -5.472,-0.292 -7.588,-0.876c-2.042,-0.583 -3.757,-1.24 -5.107,-2.042c-0.292,1.459 -0.656,2.918 -1.021,4.377c-0.401,1.532 -0.803,2.991 -1.167,4.378c-0.292,1.459 -0.584,2.772 -0.876,3.939c-0.219,1.241 -0.292,2.262 -0.292,3.065c0,0.583 0.073,1.058 0.292,1.459c0.182,0.474 0.511,0.875 1.021,1.167c0.584,0.292 1.314,0.511 2.189,0.73c0.876,0.182 1.97,0.328 3.356,0.438l-0.292,3.647l-19.261,0l13.425,-57.199Zm7.442,12.257c-0.584,2.553 -1.022,4.669 -1.314,6.42c-0.292,1.678 -0.437,3.283 -0.437,4.815c-0,2.919 0.656,5.035 2.042,6.275c1.35,1.167 3.575,1.751 6.713,1.751c2.042,-0 3.976,-0.438 5.836,-1.313c1.824,-0.949 3.502,-2.226 4.962,-3.794c1.532,-1.642 2.918,-3.539 4.085,-5.691c1.168,-2.116 2.116,-4.414 2.919,-6.858c0.766,-2.408 1.349,-4.888 1.751,-7.442c0.474,-2.517 0.729,-4.998 0.729,-7.442c0,-3.867 -0.547,-6.785 -1.605,-8.755c-1.094,-1.933 -2.882,-2.918 -5.399,-2.918c-2.152,-0 -4.195,0.693 -6.128,2.043c-1.861,1.276 -3.867,3.173 -5.983,5.69c-0.985,1.168 -1.897,2.335 -2.772,3.502c-0.876,1.095 -1.679,2.299 -2.335,3.648c-0.584,1.387 -1.167,2.882 -1.751,4.524c-0.511,1.568 -0.949,3.429 -1.313,5.545Z" style="fill:#191919;fill-rule:nonzero;"/>
        <path id="path12678" d="M389.715,103.847c-3.611,4.888 -7.113,8.536 -10.506,10.944c-3.429,2.335 -6.968,3.502 -10.652,3.502c-3.903,-0 -6.822,-1.022 -8.755,-3.064c-1.97,-2.043 -2.918,-4.998 -2.918,-8.901c-0,-0.949 0.145,-2.335 0.437,-4.086c0.365,-1.751 0.803,-3.685 1.314,-5.837c0.583,-2.116 1.167,-4.377 1.751,-6.712c0.583,-2.408 1.094,-4.706 1.605,-6.858c0.474,-2.116 0.875,-4.086 1.167,-5.837c0.365,-1.824 0.584,-3.247 0.584,-4.232c-0,-2.626 -1.095,-3.939 -3.21,-3.939c-0.694,-0 -1.387,0.146 -2.043,0.437c-0.693,0.219 -1.423,0.584 -2.189,1.168c-0.693,0.583 -1.459,1.313 -2.335,2.189c-0.875,0.802 -1.897,1.751 -3.064,2.918l-3.648,-3.648c1.933,-1.933 3.684,-3.575 5.253,-4.961c1.532,-1.35 2.991,-2.408 4.378,-3.21c1.459,-0.876 2.808,-1.46 4.085,-1.751c1.35,-0.365 2.809,-0.584 4.378,-0.584c2.626,-0 4.706,0.875 6.274,2.626c1.642,1.751 2.481,4.086 2.481,7.004c-0,1.679 -0.146,3.502 -0.438,5.545c-0.292,1.97 -0.802,4.159 -1.459,6.567c-1.459,4.961 -2.59,9.338 -3.356,13.132c-0.803,3.721 -1.167,6.494 -1.167,8.318c-0,2.152 0.364,3.757 1.167,4.815c0.875,1.094 2.262,1.605 4.231,1.605c1.751,-0 3.575,-0.62 5.545,-1.897c1.934,-1.24 3.794,-2.918 5.545,-4.961c1.751,-2.043 3.283,-4.268 4.67,-6.712c1.459,-2.517 2.517,-4.998 3.21,-7.442l5.982,-27.433l10.798,0l-8.463,35.75c-0.401,1.861 -0.693,3.502 -0.875,4.961c-0.219,1.46 -0.292,2.7 -0.292,3.648c-0,1.459 0.219,2.481 0.729,3.065c0.584,0.583 1.387,0.875 2.481,0.875c0.657,0 1.35,-0.073 2.043,-0.292c0.656,-0.292 1.35,-0.656 2.043,-1.167c0.766,-0.584 1.605,-1.313 2.48,-2.189c0.876,-0.875 1.897,-1.897 3.065,-3.064l3.648,3.648c-1.751,1.86 -3.43,3.465 -4.962,4.815c-1.568,1.277 -3.027,2.335 -4.377,3.21c-1.386,0.876 -2.736,1.496 -4.086,1.897c-1.386,0.365 -2.772,0.584 -4.232,0.584c-2.626,-0 -4.742,-0.839 -6.274,-2.481c-1.459,-1.751 -2.189,-4.122 -2.189,-7.15c0,-0.656 0.037,-1.386 0.146,-2.188c0.073,-0.876 0.292,-1.642 0.584,-2.335l-0.584,-0.292Z" style="fill:#191919;fill-rule:nonzero;"/>
        <path id="path12636" d="M457.074,106.765c-1.97,2.043 -3.758,3.794 -5.399,5.253c-1.678,1.46 -3.32,2.7 -4.961,3.648c-1.569,0.876 -3.138,1.533 -4.67,1.897c-1.568,0.475 -3.174,0.73 -4.815,0.73c-4.378,-0 -7.661,-1.022 -9.777,-3.064c-2.152,-2.043 -3.21,-5.035 -3.21,-9.047c0,-1.35 0.073,-2.846 0.292,-4.524c0.182,-1.641 0.474,-3.21 0.876,-4.669l6.566,-28.454l-9.485,-0l1.168,-4.232c2.115,0 3.793,-0.182 4.961,-0.583c1.24,-0.365 2.334,-0.949 3.21,-1.751c0.584,-0.475 1.094,-1.095 1.605,-1.897c0.474,-0.766 0.948,-1.642 1.459,-2.627c0.584,-1.058 1.095,-2.335 1.605,-3.794c0.584,-1.459 1.168,-3.137 1.751,-5.107l8.609,0l-3.21,14.008l18.678,0l-1.313,5.983l-18.532,-0l-5.545,23.055c-0.401,1.459 -0.73,2.845 -1.021,4.086c-0.219,1.167 -0.402,2.298 -0.584,3.356c-0.109,0.985 -0.219,1.86 -0.292,2.626l0,2.189c0,2.262 0.438,4.013 1.313,5.253c0.949,1.167 2.481,1.751 4.524,1.751c1.751,0 3.575,-0.62 5.545,-1.897c2.043,-1.24 4.304,-3.283 6.858,-6.128l3.794,3.939Z" style="fill:#191919;fill-rule:nonzero;"/>
        <path id="path12627" d="M513.524,105.598c-4.305,4.195 -8.536,7.369 -12.695,9.485c-4.195,2.152 -8.719,3.21 -13.57,3.21c-2.846,-0 -5.363,-0.438 -7.588,-1.313c-2.262,-0.876 -4.159,-2.116 -5.691,-3.794c-1.459,-1.642 -2.59,-3.648 -3.356,-5.983c-0.802,-2.335 -1.167,-4.998 -1.167,-8.025c-0,-2.043 0.182,-4.159 0.583,-6.421c0.365,-2.225 0.912,-4.45 1.605,-6.712c0.767,-2.225 1.752,-4.414 2.919,-6.566c1.167,-2.116 2.48,-4.122 3.94,-5.983c3.1,-3.794 6.785,-6.749 11.089,-8.901c4.378,-2.116 9.084,-3.21 14.154,-3.21c4.67,-0 8.208,1.021 10.652,3.064c2.408,2.043 3.648,4.925 3.648,8.609c0,13.242 -12.512,19.845 -37.501,19.845c-0.218,0.985 -0.364,2.043 -0.437,3.21c-0.11,1.095 -0.146,2.262 -0.146,3.502c-0,4.013 0.766,6.931 2.335,8.755c1.641,1.861 4.231,2.773 7.733,2.773c1.751,-0 3.393,-0.182 4.961,-0.584c1.642,-0.365 3.247,-0.948 4.816,-1.751c1.532,-0.766 3.1,-1.787 4.669,-3.064c1.532,-1.24 3.21,-2.772 4.961,-4.524l4.086,4.378Zm-31.81,-17.948c4.56,-0.073 8.5,-0.474 11.819,-1.167c3.393,-0.657 6.165,-1.605 8.318,-2.773c2.115,-1.24 3.684,-2.663 4.669,-4.231c0.948,-1.642 1.459,-3.502 1.459,-5.545c0,-2.225 -0.584,-3.976 -1.751,-5.253c-1.094,-1.241 -2.699,-1.897 -4.815,-1.897c-2.043,-0 -4.049,0.511 -5.983,1.459c-1.97,0.985 -3.794,2.408 -5.545,4.232c-1.678,1.751 -3.21,3.939 -4.669,6.566c-1.459,2.554 -2.627,5.399 -3.502,8.609Z" style="fill:#191919;fill-rule:nonzero;"/>
        <path id="path12748" d="M582.195,90.761l-0,-10.944l79.233,-34.437l-79.233,-34.436l-0,-10.944l90.177,40.273l0,10.215l-90.177,40.273Z" style="fill:#191919;fill-rule:nonzero;"/>
        <path id="path127451" serif:id="path12745" d="M773.155,74.272c-4.304,5.18 -8.39,8.974 -12.257,11.382c-3.903,2.444 -7.989,3.648 -12.257,3.648c-10.214,-0 -15.321,-5.144 -15.321,-15.467c-0,-3.211 0.438,-6.603 1.313,-10.215l8.609,-37.938l-12.257,-0l1.022,-4.962c2.918,-0.073 5.107,-0.328 6.566,-0.729c1.459,-0.365 2.663,-0.912 3.648,-1.605c1.058,-0.657 1.97,-1.642 2.772,-2.919c0.876,-1.24 1.678,-2.845 2.481,-4.815c0.766,-2.043 1.933,-5.472 3.502,-10.36l10.068,-0l-4.085,18.094l22.179,-0l-1.605,7.296l-22.18,-0l-6.42,28.308c-1.277,5.545 -2.116,9.557 -2.481,11.965c-0.291,2.335 -0.437,4.232 -0.437,5.691c-0,6.055 2.48,9.047 7.442,9.047c2.115,-0 4.414,-0.766 6.858,-2.335c2.407,-1.642 5.289,-4.451 8.609,-8.463l4.231,4.377Z" style="fill:#191919;fill-rule:nonzero;"/>
        <path id="path126751" serif:id="path12675" d="M830.089,117.271l-10.652,0c0.474,-2.334 1.021,-4.815 1.605,-7.441c0.657,-2.7 1.35,-5.436 2.043,-8.172c0.657,-2.809 1.313,-5.545 1.897,-8.171c0.584,-2.627 1.094,-5.107 1.605,-7.442c0.474,-2.335 0.876,-4.414 1.167,-6.274c0.292,-1.824 0.438,-3.284 0.438,-4.378c0,-2.335 -0.438,-4.013 -1.313,-5.107c-0.876,-1.058 -2.335,-1.605 -4.378,-1.605c-1.751,-0 -3.648,0.693 -5.69,2.043c-1.97,1.276 -3.867,2.991 -5.691,5.107c-1.751,2.152 -3.356,4.596 -4.816,7.296c-1.386,2.626 -2.334,5.326 -2.918,8.025l-5.545,26.119l-10.798,0l8.172,-35.749c0.474,-1.934 0.802,-3.648 1.021,-5.108c0.292,-1.459 0.438,-2.663 0.438,-3.648c-0,-2.626 -1.095,-3.939 -3.21,-3.939c-0.693,-0 -1.387,0.146 -2.043,0.437c-0.693,0.219 -1.423,0.584 -2.189,1.168c-0.693,0.583 -1.459,1.313 -2.335,2.189c-0.875,0.802 -1.897,1.751 -3.064,2.918l-3.794,-3.648c1.824,-1.824 3.502,-3.393 4.961,-4.669c1.533,-1.35 2.992,-2.481 4.378,-3.357c1.459,-0.875 2.845,-1.495 4.232,-1.896c1.349,-0.365 2.772,-0.584 4.231,-0.584c2.627,-0 4.67,0.875 6.129,2.626c1.532,1.751 2.334,4.086 2.334,7.004c0,0.803 -0.109,1.569 -0.291,2.335c-0.11,0.803 -0.292,1.532 -0.584,2.189l0.73,0.292c3.502,-4.852 6.931,-8.463 10.36,-10.798c3.502,-2.408 7.04,-3.648 10.652,-3.648c3.867,-0 6.748,1.021 8.609,3.064c1.933,1.97 2.918,4.815 2.918,8.609l0,1.897l0.146,0c3.393,-4.56 6.749,-7.952 10.068,-10.214c3.393,-2.225 6.932,-3.356 10.653,-3.356c3.793,-0 6.639,1.021 8.609,3.064c1.933,2.043 2.918,4.961 2.918,8.755c0,1.168 -0.219,2.736 -0.584,4.67c-0.401,1.86 -0.875,3.939 -1.459,6.274c-0.511,2.262 -1.021,4.633 -1.605,7.15c-0.584,2.444 -1.167,4.779 -1.751,7.004c-0.292,1.386 -0.584,2.554 -0.875,3.502c-0.219,0.876 -0.365,1.605 -0.438,2.189c-0.11,0.584 -0.219,1.131 -0.292,1.605l-0,1.313c-0,1.459 0.219,2.481 0.73,3.065c0.583,0.583 1.459,0.875 2.626,0.875c0.584,0 1.204,-0.073 1.897,-0.292c0.657,-0.292 1.35,-0.656 2.043,-1.167c0.766,-0.584 1.605,-1.313 2.48,-2.189c0.949,-0.875 1.97,-1.897 3.065,-3.064l3.794,3.648c-1.751,1.751 -3.429,3.319 -4.962,4.669c-1.459,1.277 -2.918,2.335 -4.377,3.21c-1.386,0.876 -2.773,1.533 -4.232,1.897c-1.386,0.475 -2.845,0.73 -4.377,0.73c-1.387,-0 -2.627,-0.292 -3.794,-0.876c-1.095,-0.474 -2.007,-1.167 -2.773,-2.042c-0.802,-0.876 -1.422,-1.897 -1.897,-3.065c-0.401,-1.24 -0.583,-2.626 -0.583,-4.085c-0,-2.992 0.62,-6.895 1.897,-11.674c0.656,-2.335 1.313,-4.56 1.897,-6.712c0.583,-2.225 1.058,-4.268 1.459,-6.129c0.365,-1.824 0.656,-3.429 0.875,-4.815c0.292,-1.459 0.438,-2.663 0.438,-3.648c0,-2.225 -0.438,-3.867 -1.313,-4.961c-0.876,-1.058 -2.262,-1.605 -4.086,-1.605c-1.094,-0 -2.262,0.292 -3.502,0.875c-1.277,0.584 -2.59,1.423 -3.94,2.481c-1.276,0.985 -2.553,2.189 -3.794,3.648c-1.276,1.459 -2.444,3.028 -3.502,4.669c-0.985,1.678 -1.897,3.429 -2.772,5.253c-0.803,1.751 -1.423,3.612 -1.897,5.545l-5.399,26.119Z" style="fill:#191919;fill-rule:nonzero;"/>
        <path id="path126271" serif:id="path12627" d="M929.264,105.598c-4.304,4.195 -8.536,7.369 -12.694,9.485c-4.196,2.152 -8.719,3.21 -13.571,3.21c-2.845,-0 -5.362,-0.438 -7.588,-1.313c-2.261,-0.876 -4.158,-2.116 -5.69,-3.794c-1.46,-1.642 -2.59,-3.648 -3.357,-5.983c-0.802,-2.335 -1.167,-4.998 -1.167,-8.025c0,-2.043 0.183,-4.159 0.584,-6.421c0.365,-2.225 0.912,-4.45 1.605,-6.712c0.766,-2.225 1.751,-4.414 2.918,-6.566c1.168,-2.116 2.481,-4.122 3.94,-5.983c3.101,-3.794 6.785,-6.749 11.09,-8.901c4.377,-2.116 9.083,-3.21 14.154,-3.21c4.669,-0 8.208,1.021 10.652,3.064c2.408,2.043 3.648,4.925 3.648,8.609c-0,13.242 -12.513,19.845 -37.501,19.845c-0.219,0.985 -0.365,2.043 -0.438,3.21c-0.109,1.095 -0.146,2.262 -0.146,3.502c0,4.013 0.766,6.931 2.335,8.755c1.641,1.861 4.232,2.773 7.734,2.773c1.751,-0 3.392,-0.182 4.961,-0.584c1.641,-0.365 3.246,-0.948 4.815,-1.751c1.532,-0.766 3.101,-1.787 4.669,-3.064c1.533,-1.24 3.211,-2.772 4.962,-4.524l4.085,4.378Zm-31.81,-17.948c4.56,-0.073 8.5,-0.474 11.82,-1.167c3.392,-0.657 6.165,-1.605 8.317,-2.773c2.116,-1.24 3.684,-2.663 4.669,-4.231c0.949,-1.642 1.459,-3.502 1.459,-5.545c0,-2.225 -0.583,-3.976 -1.751,-5.253c-1.094,-1.241 -2.699,-1.897 -4.815,-1.897c-2.043,-0 -4.049,0.511 -5.982,1.459c-1.97,0.985 -3.794,2.408 -5.545,4.232c-1.678,1.751 -3.211,3.939 -4.67,6.566c-1.459,2.554 -2.626,5.399 -3.502,8.609Z" style="fill:#191919;fill-rule:nonzero;"/>
        <path id="path126752" serif:id="path12675" d="M989.087,117.271l-10.652,0c0.474,-2.334 1.021,-4.815 1.605,-7.441c0.656,-2.7 1.35,-5.436 2.043,-8.172c0.656,-2.809 1.313,-5.545 1.897,-8.171c0.583,-2.627 1.094,-5.107 1.605,-7.442c0.474,-2.335 0.875,-4.414 1.167,-6.274c0.292,-1.824 0.438,-3.284 0.438,-4.378c-0,-2.335 -0.438,-4.013 -1.313,-5.107c-0.876,-1.058 -2.335,-1.605 -4.378,-1.605c-1.751,-0 -3.648,0.693 -5.691,2.043c-1.97,1.276 -3.867,2.991 -5.691,5.107c-1.751,2.152 -3.356,4.596 -4.815,7.296c-1.386,2.626 -2.335,5.326 -2.918,8.025l-5.545,26.119l-10.798,0l8.171,-35.749c0.475,-1.934 0.803,-3.648 1.022,-5.108c0.292,-1.459 0.438,-2.663 0.438,-3.648c-0,-2.626 -1.095,-3.939 -3.211,-3.939c-0.693,-0 -1.386,0.146 -2.043,0.437c-0.693,0.219 -1.422,0.584 -2.188,1.168c-0.693,0.583 -1.459,1.313 -2.335,2.189c-0.876,0.802 -1.897,1.751 -3.064,2.918l-3.794,-3.648c1.824,-1.824 3.502,-3.393 4.961,-4.669c1.532,-1.35 2.991,-2.481 4.378,-3.357c1.459,-0.875 2.845,-1.495 4.231,-1.896c1.35,-0.365 2.773,-0.584 4.232,-0.584c2.626,-0 4.669,0.875 6.128,2.626c1.533,1.751 2.335,4.086 2.335,7.004c0,0.803 -0.109,1.569 -0.292,2.335c-0.109,0.803 -0.292,1.532 -0.583,2.189l0.729,0.292c3.502,-4.852 6.931,-8.463 10.36,-10.798c3.502,-2.408 7.041,-3.648 10.652,-3.648c3.867,-0 6.749,1.021 8.61,3.064c1.933,1.97 2.918,4.815 2.918,8.609l-0,1.897l0.146,0c3.392,-4.56 6.749,-7.952 10.068,-10.214c3.393,-2.225 6.931,-3.356 10.652,-3.356c3.794,-0 6.639,1.021 8.609,3.064c1.934,2.043 2.919,4.961 2.919,8.755c-0,1.168 -0.219,2.736 -0.584,4.67c-0.401,1.86 -0.875,3.939 -1.459,6.274c-0.511,2.262 -1.022,4.633 -1.605,7.15c-0.584,2.444 -1.168,4.779 -1.751,7.004c-0.292,1.386 -0.584,2.554 -0.876,3.502c-0.219,0.876 -0.365,1.605 -0.438,2.189c-0.109,0.584 -0.218,1.131 -0.291,1.605l-0,1.313c-0,1.459 0.219,2.481 0.729,3.065c0.584,0.583 1.459,0.875 2.627,0.875c0.583,0 1.204,-0.073 1.897,-0.292c0.656,-0.292 1.349,-0.656 2.043,-1.167c0.766,-0.584 1.605,-1.313 2.48,-2.189c0.949,-0.875 1.97,-1.897 3.064,-3.064l3.794,3.648c-1.751,1.751 -3.429,3.319 -4.961,4.669c-1.459,1.277 -2.918,2.335 -4.377,3.21c-1.387,0.876 -2.773,1.533 -4.232,1.897c-1.386,0.475 -2.845,0.73 -4.378,0.73c-1.386,-0 -2.626,-0.292 -3.794,-0.876c-1.094,-0.474 -2.006,-1.167 -2.772,-2.042c-0.802,-0.876 -1.423,-1.897 -1.897,-3.065c-0.401,-1.24 -0.584,-2.626 -0.584,-4.085c0,-2.992 0.621,-6.895 1.897,-11.674c0.657,-2.335 1.314,-4.56 1.897,-6.712c0.584,-2.225 1.058,-4.268 1.459,-6.129c0.365,-1.824 0.657,-3.429 0.876,-4.815c0.292,-1.459 0.438,-2.663 0.438,-3.648c-0,-2.225 -0.438,-3.867 -1.314,-4.961c-0.875,-1.058 -2.261,-1.605 -4.085,-1.605c-1.095,-0 -2.262,0.292 -3.502,0.875c-1.277,0.584 -2.59,1.423 -3.94,2.481c-1.277,0.985 -2.554,2.189 -3.794,3.648c-1.277,1.459 -2.444,3.028 -3.502,4.669c-0.985,1.678 -1.897,3.429 -2.772,5.253c-0.803,1.751 -1.423,3.612 -1.897,5.545l-5.399,26.119Z" style="fill:#191919;fill-rule:nonzero;"/>
        <path id="path126211" serif:id="path12621" d="M1063.75,118.293c-3.028,-0 -5.763,-0.438 -8.171,-1.313c-2.335,-0.949 -4.378,-2.262 -6.129,-3.94c-1.678,-1.751 -2.918,-3.83 -3.794,-6.275c-0.875,-2.407 -1.313,-5.18 -1.313,-8.317c0,-5.144 0.766,-9.959 2.335,-14.446c1.641,-4.56 3.867,-8.5 6.712,-11.819c2.918,-3.393 6.311,-6.019 10.214,-7.88c3.867,-1.933 8.172,-2.918 12.841,-2.918c3.21,-0 6.019,0.547 8.463,1.605c2.517,0.985 4.597,2.408 6.275,4.232c1.641,1.86 2.845,4.012 3.648,6.42c0.875,2.444 1.313,5.034 1.313,7.734c0,5.654 -0.839,10.725 -2.481,15.175c-1.678,4.487 -3.939,8.39 -6.858,11.674c-2.918,3.21 -6.347,5.69 -10.214,7.441c-3.903,1.751 -8.171,2.627 -12.841,2.627Zm-8.609,-17.51c0,4.195 0.803,7.296 2.481,9.338c1.751,1.97 4.414,2.919 8.025,2.919c1.934,-0 3.794,-0.474 5.545,-1.459c1.751,-0.949 3.356,-2.262 4.815,-3.94c1.46,-1.642 2.773,-3.539 3.94,-5.691c1.168,-2.225 2.116,-4.596 2.919,-7.15c0.766,-2.517 1.349,-5.107 1.751,-7.734c0.474,-2.699 0.729,-5.326 0.729,-7.879c0,-4.086 -0.839,-7.15 -2.48,-9.193c-1.569,-2.116 -4.086,-3.21 -7.588,-3.21c-2.043,-0 -3.94,0.511 -5.691,1.459c-1.751,0.876 -3.429,2.152 -4.961,3.794c-1.459,1.569 -2.773,3.465 -3.94,5.691c-1.167,2.152 -2.189,4.487 -3.064,7.004c-0.803,2.444 -1.423,5.07 -1.897,7.879c-0.401,2.736 -0.584,5.472 -0.584,8.172Z" style="fill:#191919;fill-rule:nonzero;"/>
        <path id="path12630" d="M1118.14,81.522c0.584,-2.116 0.948,-3.867 1.167,-5.253c0.183,-1.35 0.292,-2.518 0.292,-3.503c0,-2.626 -1.094,-3.939 -3.21,-3.939c-0.803,-0 -1.532,0.146 -2.189,0.437c-0.584,0.219 -1.277,0.584 -2.043,1.168c-0.693,0.583 -1.459,1.313 -2.334,2.189c-0.876,0.802 -1.897,1.751 -3.065,2.918l-3.794,-3.648c1.824,-1.824 3.503,-3.393 4.962,-4.669c1.532,-1.35 2.991,-2.481 4.377,-3.357c1.459,-0.875 2.846,-1.495 4.232,-1.896c1.35,-0.365 2.772,-0.584 4.231,-0.584c2.627,-0 4.67,0.875 6.129,2.626c1.532,1.751 2.335,4.086 2.335,7.004c-0,1.679 -0.292,3.138 -0.876,4.378l0.876,0.292c3.684,-4.961 7.223,-8.536 10.652,-10.798c3.502,-2.335 7.077,-3.502 10.798,-3.502c1.349,-0 2.626,0.109 3.794,0.292c1.24,0.109 2.48,0.255 3.647,0.437l-2.772,13.279l-6.42,0c-0.11,-2.225 -0.548,-3.794 -1.314,-4.669c-0.802,-0.949 -1.86,-1.46 -3.21,-1.46c-0.875,-0.073 -1.897,0.146 -3.064,0.73c-1.094,0.584 -2.262,1.423 -3.502,2.481c-1.167,0.985 -2.335,2.152 -3.502,3.502c-1.167,1.386 -2.335,2.882 -3.502,4.523c-1.095,1.678 -2.007,3.429 -2.773,5.253c-0.802,1.861 -1.386,3.721 -1.751,5.545l-5.545,25.973l-10.797,0l8.171,-35.749Z" style="fill:#191919;fill-rule:nonzero;"/>
        <path id="path12657" d="M1187.47,116.98c-1.168,-7.004 -2.262,-13.024 -3.211,-18.094c-0.875,-5.034 -1.714,-9.339 -2.48,-12.841c-0.693,-3.575 -1.386,-6.493 -2.043,-8.755c-0.584,-2.225 -1.167,-3.94 -1.751,-5.107c-0.584,-1.24 -1.167,-2.116 -1.751,-2.627c-0.584,-0.474 -1.24,-0.729 -1.897,-0.729c-0.693,-0 -1.313,0.109 -1.897,0.292c-0.511,0.218 -1.021,0.547 -1.605,1.021c-0.584,0.511 -1.24,1.24 -1.897,2.189c-0.693,0.875 -1.532,2.116 -2.481,3.648l-4.231,-2.773c1.532,-2.334 2.955,-4.231 4.231,-5.691c1.35,-1.532 2.663,-2.772 3.94,-3.648c1.241,-0.875 2.554,-1.495 3.94,-1.896c1.35,-0.365 2.845,-0.584 4.524,-0.584c1.24,-0 2.371,0.146 3.356,0.438c0.948,0.219 1.787,0.583 2.48,1.167c0.766,0.584 1.459,1.386 2.043,2.335c0.657,0.875 1.313,2.006 1.897,3.356c0.365,0.802 0.73,1.97 1.021,3.502c0.365,1.459 0.767,3.21 1.168,5.253c0.365,1.97 0.766,4.086 1.167,6.42c0.474,2.335 0.912,4.816 1.313,7.442c0.365,2.627 0.73,5.326 1.022,8.026c0.365,2.736 0.766,5.399 1.167,8.025c2.7,-3.575 5.144,-7.223 7.296,-10.944c2.225,-3.684 4.086,-7.15 5.545,-10.36c1.532,-3.283 2.699,-6.274 3.502,-8.901c0.766,-2.699 1.167,-4.888 1.167,-6.566c0,-1.532 -0.437,-2.663 -1.313,-3.356c-0.802,-0.657 -2.152,-1.058 -4.086,-1.168l0.584,-3.502l15.613,0l1.897,3.064c-3.611,9.047 -7.843,17.766 -12.695,26.12c-4.888,8.39 -10.36,16.489 -16.488,24.368c-2.736,3.21 -5.18,5.91 -7.296,8.172c-2.043,2.334 -4.013,4.304 -5.837,5.982c-1.86,1.751 -3.575,3.101 -5.107,4.086c-1.459,1.058 -2.919,1.933 -4.378,2.626c-1.459,0.657 -2.918,1.095 -4.377,1.314c-1.459,0.291 -2.992,0.474 -4.524,0.583c-0.875,0 -1.897,-0.109 -3.064,-0.292c-1.167,-0.218 -2.262,-0.437 -3.21,-0.729l2.772,-11.965l4.961,-0l0,0.291c0,2.518 1.022,3.794 3.065,3.794c2.626,0 5.289,-1.094 8.025,-3.21c2.809,-2.043 6.129,-5.326 9.923,-9.776Z" style="fill:#191919;fill-rule:nonzero;"/>
        <rect id="path14716" x="1.02" y="367.389" width="569.664" height="9.339" style="fill:#191919;"/>
        <path id="path12681" d="M217.337,282.28l-2.335,16.197l11.382,0l-0,6.275l-12.257,-0l-3.21,23.201l-7.442,-0l3.356,-23.201l-16.781,-0l-3.21,23.201l-7.442,-0l3.21,-23.201l-10.943,-0l-0,-6.275l11.819,0l2.335,-16.197l-11.382,0l0,-6.274l12.257,-0l3.21,-22.909l7.296,-0l-3.21,22.909l16.781,-0l3.356,-22.909l7.296,-0l-3.356,22.909l10.943,-0l0,6.274l-11.673,0Zm-24.222,0l-2.189,16.197l16.78,0l2.189,-16.197l-16.78,0Z" style="fill:#191919;fill-rule:nonzero;"/>
        <path id="path126212" serif:id="path12621" d="M258.8,328.974c-3.028,0 -5.764,-0.438 -8.171,-1.313c-2.335,-0.949 -4.378,-2.262 -6.129,-3.94c-1.678,-1.751 -2.918,-3.83 -3.794,-6.274c-0.875,-2.408 -1.313,-5.181 -1.313,-8.318c0,-5.143 0.766,-9.959 2.335,-14.446c1.641,-4.56 3.867,-8.499 6.712,-11.819c2.918,-3.393 6.311,-6.019 10.214,-7.88c3.867,-1.933 8.172,-2.918 12.841,-2.918c3.21,0 6.019,0.547 8.463,1.605c2.517,0.985 4.597,2.408 6.275,4.232c1.641,1.86 2.845,4.013 3.648,6.42c0.875,2.444 1.313,5.034 1.313,7.734c-0,5.654 -0.839,10.725 -2.481,15.175c-1.678,4.487 -3.939,8.391 -6.858,11.674c-2.918,3.21 -6.347,5.691 -10.214,7.442c-3.903,1.751 -8.171,2.626 -12.841,2.626Zm-8.609,-17.51c0,4.195 0.803,7.296 2.481,9.339c1.751,1.97 4.414,2.918 8.025,2.918c1.934,0 3.794,-0.474 5.545,-1.459c1.751,-0.949 3.356,-2.262 4.815,-3.94c1.459,-1.641 2.773,-3.538 3.94,-5.691c1.167,-2.225 2.116,-4.596 2.918,-7.15c0.766,-2.517 1.35,-5.107 1.751,-7.733c0.475,-2.7 0.73,-5.326 0.73,-7.88c0,-4.086 -0.839,-7.15 -2.481,-9.193c-1.568,-2.116 -4.085,-3.21 -7.587,-3.21c-2.043,0 -3.94,0.511 -5.691,1.459c-1.751,0.876 -3.429,2.153 -4.961,3.794c-1.46,1.569 -2.773,3.466 -3.94,5.691c-1.167,2.152 -2.189,4.487 -3.064,7.004c-0.803,2.444 -1.423,5.071 -1.897,7.88c-0.402,2.736 -0.584,5.471 -0.584,8.171Z" style="fill:#191919;fill-rule:nonzero;"/>
        <path id="path126241" serif:id="path12624" d="M313.631,292.057c0.364,-1.934 0.656,-3.575 0.875,-4.961c0.182,-1.35 0.292,-2.554 0.292,-3.648c-0,-2.627 -1.094,-3.94 -3.21,-3.94c-0.693,-0 -1.386,0.146 -2.043,0.438c-0.584,0.219 -1.277,0.583 -2.043,1.167c-0.803,0.584 -1.605,1.313 -2.481,2.189c-0.875,0.802 -1.86,1.751 -2.918,2.918l-3.794,-3.648c1.824,-1.824 3.502,-3.392 4.961,-4.669c1.533,-1.35 2.992,-2.481 4.378,-3.356c1.459,-0.876 2.809,-1.496 4.086,-1.897c1.349,-0.365 2.772,-0.584 4.231,-0.584c2.7,0 4.816,0.876 6.275,2.627c1.459,1.751 2.189,4.085 2.189,7.004c-0,0.802 -0.073,1.568 -0.146,2.334c-0.11,0.803 -0.365,1.569 -0.73,2.335l0.73,0.438c3.575,-5.034 7.077,-8.755 10.506,-11.09c3.502,-2.408 7.15,-3.648 10.944,-3.648c4.377,0 7.66,1.569 9.922,4.669c2.335,3.138 3.502,7.698 3.502,13.717c0,5.253 -0.839,10.214 -2.481,14.883c-1.568,4.67 -3.757,8.755 -6.566,12.258c-2.736,3.502 -5.946,6.274 -9.63,8.317c-3.612,2.043 -7.442,3.064 -11.528,3.064c-2.918,0 -5.472,-0.292 -7.588,-0.875c-2.043,-0.584 -3.757,-1.241 -5.107,-2.043c-0.292,1.459 -0.657,2.918 -1.021,4.377c-0.402,1.532 -0.803,2.992 -1.168,4.378c-0.291,1.459 -0.583,2.772 -0.875,3.94c-0.219,1.24 -0.292,2.261 -0.292,3.064c0,0.584 0.073,1.058 0.292,1.459c0.182,0.474 0.511,0.876 1.021,1.167c0.584,0.292 1.314,0.511 2.189,0.73c0.876,0.182 1.97,0.328 3.356,0.438l-0.292,3.648l-19.261,-0l13.425,-57.2Zm7.441,12.257c-0.583,2.554 -1.021,4.669 -1.313,6.42c-0.292,1.678 -0.438,3.284 -0.438,4.816c0,2.918 0.657,5.034 2.043,6.274c1.35,1.167 3.575,1.751 6.712,1.751c2.043,0 3.977,-0.438 5.837,-1.313c1.824,-0.949 3.502,-2.225 4.961,-3.794c1.533,-1.642 2.919,-3.538 4.086,-5.691c1.167,-2.116 2.116,-4.414 2.918,-6.858c0.767,-2.408 1.35,-4.888 1.751,-7.442c0.475,-2.517 0.73,-4.997 0.73,-7.442c0,-3.866 -0.547,-6.785 -1.605,-8.755c-1.094,-1.933 -2.882,-2.918 -5.399,-2.918c-2.152,-0 -4.195,0.693 -6.129,2.043c-1.86,1.277 -3.866,3.174 -5.982,5.691c-0.985,1.167 -1.897,2.334 -2.773,3.502c-0.875,1.094 -1.678,2.298 -2.334,3.648c-0.584,1.386 -1.168,2.882 -1.751,4.523c-0.511,1.569 -0.949,3.429 -1.314,5.545Z" style="fill:#191919;fill-rule:nonzero;"/>
        <path id="path12645" d="M406.82,286.95c-0.401,-3.283 -1.532,-5.728 -3.356,-7.296c-1.751,-1.532 -4.487,-2.335 -8.171,-2.335c-1.459,0 -2.882,0.219 -4.232,0.584c-1.277,0.401 -2.335,0.985 -3.21,1.751c-0.876,0.693 -1.605,1.532 -2.189,2.48c-0.511,0.985 -0.729,2.043 -0.729,3.211c-0,1.094 0.073,2.042 0.291,2.918c0.292,0.875 0.803,1.751 1.606,2.627c0.766,0.802 1.824,1.678 3.21,2.626c1.349,0.876 3.137,1.897 5.399,3.064c2.334,1.277 4.268,2.481 5.836,3.648c1.533,1.168 2.773,2.408 3.648,3.648c0.876,1.168 1.496,2.444 1.897,3.794c0.365,1.386 0.584,2.918 0.584,4.669c-0,2.554 -0.547,4.889 -1.605,7.005c-1.094,2.042 -2.59,3.793 -4.524,5.253c-1.86,1.386 -4.085,2.444 -6.712,3.21c-2.553,0.766 -5.326,1.167 -8.317,1.167c-3.429,0 -6.712,-0.255 -9.923,-0.729c-3.21,-0.365 -6.675,-1.095 -10.36,-2.189l2.919,-12.549l4.815,-0c0.073,3.429 1.094,5.982 3.064,7.733c2.043,1.679 5.107,2.481 9.193,2.481c3.575,0 6.42,-0.766 8.463,-2.335c2.116,-1.532 3.21,-3.721 3.21,-6.566c0,-1.24 -0.145,-2.335 -0.437,-3.21c-0.219,-0.949 -0.693,-1.897 -1.459,-2.773c-0.694,-0.875 -1.715,-1.751 -3.065,-2.626c-1.277,-0.876 -2.918,-1.897 -4.961,-3.064c-2.262,-1.168 -4.159,-2.335 -5.691,-3.502c-1.459,-1.241 -2.736,-2.481 -3.794,-3.648c-0.985,-1.168 -1.714,-2.372 -2.188,-3.648c-0.511,-1.35 -0.73,-2.809 -0.73,-4.378c0,-2.225 0.474,-4.304 1.459,-6.274c0.949,-2.043 2.335,-3.721 4.086,-5.107c1.824,-1.46 4.013,-2.554 6.566,-3.357c2.517,-0.766 5.326,-1.167 8.463,-1.167c3.502,0 6.713,0.255 9.631,0.73c2.991,0.401 5.91,0.985 8.755,1.751l-2.626,12.403l-4.816,-0Z" style="fill:#191919;fill-rule:nonzero;"/>
        <path id="path12672" d="M7.82,485.97c1.167,-0.182 2.079,-0.365 2.772,-0.583c0.657,-0.292 1.314,-0.803 1.897,-1.606c0.584,-0.766 1.095,-1.933 1.605,-3.502c0.475,-1.532 1.022,-3.793 1.605,-6.712l8.901,-39.835c0.365,-1.642 0.657,-3.101 0.876,-4.378c0.182,-1.24 0.292,-2.262 0.292,-3.064c-0,-1.642 -0.438,-2.809 -1.313,-3.502c-0.803,-0.657 -2.299,-1.022 -4.524,-1.022l0.73,-3.502l28.745,0c4.269,0 7.88,0.365 10.798,1.022c2.992,0.693 5.436,1.714 7.296,3.064c1.934,1.277 3.356,2.845 4.232,4.669c0.875,1.861 1.313,4.013 1.313,6.421c0,8.974 -5.654,15.285 -16.926,18.969l-0,0.73c3.392,1.386 5.982,3.283 7.733,5.69c1.751,2.335 2.627,5.035 2.627,8.026c-0,3.502 -0.693,6.676 -2.043,9.485c-1.277,2.736 -3.283,5.07 -5.983,7.004c-2.736,1.97 -6.238,3.465 -10.506,4.523c-4.195,0.985 -9.193,1.459 -15.029,1.459l-25.682,0l0.584,-3.356Zm32.394,-36.187c3.976,-0 7.332,-0.365 10.068,-1.168c2.809,-0.766 5.034,-1.824 6.712,-3.21c1.751,-1.35 2.992,-2.991 3.794,-4.961c0.766,-2.043 1.167,-4.268 1.167,-6.712c-0.109,-1.533 -0.437,-2.919 -1.021,-4.086c-0.511,-1.24 -1.313,-2.262 -2.481,-3.064c-1.167,-0.876 -2.736,-1.496 -4.669,-1.897c-1.86,-0.475 -4.159,-0.73 -6.858,-0.73c-1.751,0 -3.429,0.073 -4.961,0.146c-1.569,-0 -3.065,0.109 -4.524,0.292l-5.691,25.39l8.464,-0Zm-16.051,33.707c0.875,0.109 1.97,0.146 3.356,0.146l4.815,-0c3.867,-0 7.223,-0.329 10.068,-1.022c2.919,-0.657 5.29,-1.678 7.15,-3.064c1.934,-1.459 3.357,-3.356 4.232,-5.691c0.876,-2.335 1.313,-5.107 1.313,-8.317c0,-1.642 -0.292,-3.101 -0.875,-4.378c-0.511,-1.24 -1.313,-2.335 -2.481,-3.21c-1.167,-0.876 -2.699,-1.496 -4.523,-1.897c-1.861,-0.365 -4.086,-0.584 -6.713,-0.584l-10.068,0l-6.274,28.017Z" style="fill:#191919;fill-rule:nonzero;"/>
        <path id="path12684" d="M133.731,490.202l-0.584,-47.861l0,-4.961c0.073,-1.46 0.183,-2.7 0.292,-3.794l-0.583,-0l-29.038,56.616l-8.901,-0c-0.584,-9.631 -1.24,-19.261 -1.897,-28.892c-0.584,-9.631 -1.24,-19.298 -1.897,-29.038c-0.109,-1.824 -0.365,-3.392 -0.73,-4.669c-0.291,-1.24 -0.729,-2.262 -1.313,-3.064c-0.511,-0.876 -1.167,-1.496 -2.043,-1.897c-0.802,-0.474 -1.751,-0.766 -2.918,-0.876l0.73,-3.502l23.93,0l-0.729,3.502c-1.277,0.219 -2.299,0.438 -3.065,0.73c-0.802,0.292 -1.422,0.802 -1.897,1.459c-0.51,0.693 -0.839,1.605 -1.021,2.772c-0.219,1.168 -0.292,2.736 -0.292,4.67l0,2.043c0.073,0.693 0.146,1.313 0.146,1.897c0.073,2.626 0.182,5.107 0.292,7.441c0.073,2.335 0.182,4.743 0.292,7.15c0.073,2.335 0.182,4.816 0.291,7.442c0.073,2.627 0.146,5.509 0.146,8.609l0,5.399c0.073,1.751 0.146,3.502 0.146,5.253l0.438,0l29.913,-58.367l8.901,0c0.073,4.013 0.183,8.026 0.292,12.111c0.073,4.086 0.146,8.172 0.146,12.258c0.073,4.085 0.146,8.098 0.146,11.965c0.073,3.903 0.073,7.661 -0,11.236l-0,5.253c-0,1.751 -0.11,3.575 -0.292,5.399l0.73,-0l19.699,-35.896c0.875,-1.459 1.641,-2.809 2.334,-4.086c0.766,-1.24 1.386,-2.481 1.897,-3.648c0.584,-1.24 1.022,-2.408 1.313,-3.502c0.292,-1.058 0.438,-2.079 0.438,-3.064c0,-2.809 -1.97,-4.305 -5.836,-4.524l0.729,-3.502l24.077,0l-0.876,3.502c-0.875,0 -1.751,0.256 -2.626,0.73c-0.876,0.401 -1.751,1.021 -2.627,1.897c-0.875,0.802 -1.824,1.897 -2.772,3.356c-0.985,1.386 -2.043,3.137 -3.211,5.253l-32.977,57.2l-9.193,-0Z" style="fill:#191919;fill-rule:nonzero;"/>
        <path id="path12757" d="M208.114,474.623c-0,-2.918 -0.511,-4.997 -1.459,-6.274c-0.985,-1.24 -2.481,-1.897 -4.524,-1.897c-3.319,0 -6.274,1.24 -8.901,3.648c-2.626,2.444 -4.888,5.946 -6.712,10.506c-1.751,4.487 -2.626,8.828 -2.626,12.987c-0,3.429 0.62,5.982 1.896,7.733c1.35,1.751 3.357,2.627 5.983,2.627c2.809,-0 5.326,-0.511 7.588,-1.605c2.335,-1.167 5.253,-3.393 8.755,-6.712l3.648,4.085c-3.429,3.612 -6.931,6.348 -10.506,8.172c-3.612,1.751 -7.442,2.626 -11.528,2.626c-4.961,0 -8.828,-1.459 -11.527,-4.377c-2.627,-2.919 -3.94,-6.931 -3.94,-12.111c-0,-3.101 0.511,-6.567 1.605,-10.361c1.058,-3.866 2.845,-7.514 5.399,-10.943c2.517,-3.393 5.581,-6.129 9.193,-8.172c3.684,-2.043 7.624,-3.064 11.819,-3.064c5.144,-0 9.923,0.511 14.3,1.459l-2.626,11.673l-5.837,0Z" style="fill:#191919;fill-rule:nonzero;"/>
        <path id="path12760" d="M239.017,510.519c-5.253,0 -9.448,-1.605 -12.549,-4.815c-3.028,-3.21 -4.523,-7.369 -4.523,-12.549c-0,-5.837 1.167,-11.163 3.502,-16.051c2.334,-4.852 5.618,-8.646 9.922,-11.382c4.268,-2.808 9.12,-4.231 14.592,-4.231c3.867,-0 7.15,0.839 9.777,2.48c2.626,1.678 4.523,3.794 5.69,6.421c1.241,2.626 1.897,5.508 1.897,8.609c0,5.764 -1.24,11.09 -3.648,16.051c-2.334,4.888 -5.618,8.682 -9.776,11.382c-4.195,2.736 -9.157,4.085 -14.884,4.085Zm-7.442,-15.467c0,3.611 0.73,6.274 2.189,8.025c1.532,1.678 3.794,2.481 6.712,2.481c3.284,0 6.202,-1.24 8.755,-3.794c2.518,-2.517 4.56,-6.055 6.129,-10.652c1.532,-4.669 2.335,-9.339 2.335,-14.008c-0,-3.502 -0.73,-6.129 -2.189,-7.88c-1.459,-1.824 -3.612,-2.772 -6.42,-2.772c-3.211,0 -6.129,1.167 -8.756,3.502c-2.553,2.335 -4.632,5.837 -6.274,10.506c-1.678,4.67 -2.481,9.558 -2.481,14.592Z" style="fill:#191919;fill-rule:nonzero;"/>
        <path id="path12763" d="M317.986,509.498l-9.777,-0l6.275,-26.703c0.948,-4.268 1.459,-7.478 1.459,-9.631c-0,-3.392 -1.532,-5.107 -4.524,-5.107c-1.97,0 -3.794,0.584 -5.545,1.751c-1.678,1.167 -3.356,2.773 -5.107,4.815c-1.678,1.97 -2.991,3.867 -3.94,5.691c-0.984,1.861 -1.714,3.904 -2.188,6.129l-4.816,23.055l-9.776,-0l7.004,-30.351c0.766,-3.502 1.167,-6.056 1.167,-7.734c0,-2.116 -0.985,-3.21 -2.918,-3.21c-1.277,0 -2.554,0.511 -3.794,1.459c-1.277,0.985 -2.772,2.408 -4.523,4.232l-3.502,-3.21c3.21,-3.211 5.982,-5.545 8.317,-7.004c2.335,-1.46 4.815,-2.189 7.442,-2.189c2.407,-0 4.304,0.802 5.691,2.335c1.349,1.568 2.042,3.72 2.042,6.42c0,1.094 -0.109,2.043 -0.291,2.918l0.583,0.146c2.919,-3.976 5.837,-6.931 8.755,-8.901c2.919,-1.933 5.983,-2.918 9.193,-2.918c6.712,-0 10.068,3.283 10.068,9.776l0,0.876c0,0.292 -0.072,0.584 -0.145,0.875l0.437,0c2.919,-3.976 5.764,-6.894 8.609,-8.755c2.919,-1.824 5.983,-2.772 9.193,-2.772c3.502,-0 6.056,0.948 7.734,2.772c1.751,1.751 2.626,4.305 2.626,7.588c0,1.751 -0.437,4.487 -1.313,8.171l-3.21,12.987c-0.693,2.845 -1.094,4.633 -1.167,5.399c-0.11,0.693 -0.146,1.386 -0.146,2.043c-0,2.262 0.948,3.356 2.918,3.356c1.24,0 2.517,-0.474 3.794,-1.459c1.24,-0.949 2.809,-2.408 4.669,-4.378l3.356,3.356c-3.21,3.211 -5.982,5.545 -8.317,7.004c-2.335,1.46 -4.815,2.189 -7.442,2.189c-2.553,0 -4.596,-0.875 -6.128,-2.626c-1.569,-1.751 -2.335,-3.867 -2.335,-6.421c0,-2.809 0.584,-6.274 1.751,-10.36l2.189,-8.463c1.058,-3.867 1.605,-7.041 1.605,-9.485c-0,-3.392 -1.459,-5.107 -4.378,-5.107c-1.86,0 -3.611,0.584 -5.253,1.751c-1.678,1.095 -3.356,2.59 -5.107,4.524c-1.678,1.969 -2.991,3.903 -3.94,5.836c-0.984,1.97 -1.751,4.05 -2.334,6.275l-4.961,23.055Z" style="fill:#191919;fill-rule:nonzero;"/>
        <path id="path12766" d="M375.889,479.001c0.365,-1.933 0.657,-3.429 0.876,-4.523c0.182,-1.168 0.292,-2.189 0.292,-3.065c-0,-2.116 -0.985,-3.21 -2.919,-3.21c-1.276,0 -2.553,0.511 -3.793,1.459c-1.277,0.985 -2.846,2.408 -4.67,4.232l-3.356,-3.21c3.101,-3.211 5.837,-5.545 8.171,-7.004c2.408,-1.46 4.962,-2.189 7.588,-2.189c2.408,-0 4.305,0.802 5.691,2.335c1.35,1.568 2.043,3.72 2.043,6.42c-0,1.167 -0.146,2.152 -0.438,2.918l0.73,0.292c2.991,-4.086 5.982,-7.077 8.901,-9.047c2.918,-1.933 6.128,-2.918 9.63,-2.918c3.685,-0 6.567,1.386 8.609,4.086c2.043,2.626 3.065,6.566 3.065,11.819c-0,5.362 -1.241,10.725 -3.648,16.051c-2.335,5.253 -5.545,9.448 -9.631,12.549c-4.013,3.028 -8.427,4.523 -13.278,4.523c-2.627,0 -4.889,-0.292 -6.713,-0.875c-1.751,-0.584 -3.137,-1.095 -4.085,-1.605l-1.751,8.463c-0.584,2.626 -0.876,4.45 -0.876,5.545c0,1.24 0.365,2.079 1.168,2.48c0.875,0.475 2.48,0.803 4.815,1.022l-0.73,3.356l-16.78,-0l11.089,-49.904Zm6.129,14.154c-0.401,2.152 -0.584,4.013 -0.584,5.545c0,2.444 0.62,4.195 1.897,5.253c1.241,1.094 3.101,1.605 5.545,1.605c3.502,0 6.566,-1.313 9.193,-3.94c2.699,-2.699 4.815,-6.311 6.274,-10.798c1.46,-4.45 2.189,-8.791 2.189,-12.986c0,-3.284 -0.51,-5.728 -1.459,-7.296c-0.985,-1.642 -2.481,-2.481 -4.523,-2.481c-1.277,0 -2.481,0.255 -3.648,0.73c-1.168,0.51 -2.335,1.24 -3.502,2.188c-1.095,0.876 -2.189,1.97 -3.357,3.211c-1.094,1.276 -2.042,2.48 -2.918,3.648c-0.802,1.167 -1.532,2.59 -2.189,4.231c-0.693,1.678 -1.313,3.794 -1.897,6.421l-1.021,4.669Z" style="fill:#191919;fill-rule:nonzero;"/>
        <path id="path12769" d="M459.37,498.7c-2.846,3.903 -5.764,6.858 -8.755,8.901c-2.919,1.933 -5.983,2.918 -9.193,2.918c-3.502,0 -6.129,-0.875 -7.88,-2.626c-1.678,-1.824 -2.48,-4.414 -2.48,-7.734c-0,-1.751 0.437,-4.523 1.313,-8.317l3.21,-12.841c0.365,-1.824 0.657,-3.356 0.875,-4.523c0.292,-1.168 0.438,-2.189 0.438,-3.065c0,-2.116 -1.021,-3.21 -3.064,-3.21c-1.277,0 -2.554,0.511 -3.794,1.459c-1.167,0.985 -2.699,2.408 -4.523,4.232l-3.502,-3.21c3.283,-3.211 6.128,-5.545 8.463,-7.004c2.408,-1.46 4.998,-2.189 7.734,-2.189c2.407,-0 4.377,0.802 5.836,2.335c1.459,1.568 2.189,3.647 2.189,6.274c-0,2.736 -0.584,6.274 -1.751,10.652l-2.189,8.463c-1.094,4.195 -1.605,7.369 -1.605,9.485c0,3.502 1.496,5.253 4.524,5.253c1.824,-0 3.648,-0.584 5.399,-1.751c1.751,-1.167 3.429,-2.7 5.107,-4.669c1.751,-1.934 3.1,-3.831 4.085,-5.691c0.949,-1.934 1.678,-4.086 2.189,-6.421l4.815,-22.909l9.923,0l-7.15,30.351c-0.803,3.429 -1.167,5.946 -1.167,7.588c-0,2.262 0.948,3.356 2.918,3.356c1.24,0 2.517,-0.474 3.794,-1.459c1.24,-0.949 2.809,-2.408 4.669,-4.378l3.356,3.356c-3.137,3.211 -5.909,5.545 -8.317,7.004c-2.335,1.46 -4.815,2.189 -7.442,2.189c-2.444,0 -4.341,-0.802 -5.691,-2.334c-1.386,-1.642 -2.043,-3.794 -2.043,-6.421c0,-1.058 0.073,-2.043 0.292,-2.918l-0.583,-0.146Z" style="fill:#191919;fill-rule:nonzero;"/>
        <path id="path12772" d="M520.244,500.597c-3.502,3.721 -6.566,6.274 -9.193,7.733c-2.553,1.46 -5.216,2.189 -8.025,2.189c-3.903,0 -6.858,-0.875 -8.901,-2.626c-1.97,-1.824 -2.919,-4.451 -2.919,-7.88c0,-1.167 0.073,-2.517 0.292,-4.086c0.292,-1.641 0.584,-3.1 0.876,-4.377l5.399,-23.639l-7.88,0l1.022,-3.794c1.751,0 3.137,-0.182 4.231,-0.583c1.168,-0.365 2.116,-0.949 2.919,-1.751c0.875,-0.766 1.605,-1.788 2.188,-3.065c0.657,-1.349 1.678,-4.085 3.065,-8.171l7.733,-0l-2.48,11.965l16.488,0l-1.021,5.399l-16.635,0l-5.107,20.283c-0.875,3.794 -1.313,7.077 -1.313,9.776c-0,1.678 0.365,3.028 1.167,4.086c0.766,1.094 2.08,1.605 3.94,1.605c2.991,0 6.493,-2.189 10.506,-6.566l3.648,3.502Z" style="fill:#191919;fill-rule:nonzero;"/>
        <path id="path12775" d="M569.831,499.284c-4.013,3.793 -7.953,6.639 -11.82,8.463c-3.794,1.824 -7.733,2.772 -11.819,2.772c-4.888,0 -8.682,-1.459 -11.382,-4.377c-2.626,-2.992 -3.939,-7.004 -3.939,-11.966c-0,-3.502 0.62,-7.222 1.897,-11.235c1.24,-4.086 3.21,-7.734 5.836,-10.944c2.7,-3.283 5.983,-5.873 9.777,-7.734c3.867,-1.824 8.098,-2.772 12.695,-2.772c3.976,-0 7.04,0.948 9.192,2.772c2.226,1.751 3.357,4.195 3.357,7.296c-0,11.491 -10.944,17.218 -32.832,17.218c-0.292,1.569 -0.438,3.43 -0.438,5.545c0,3.32 0.73,5.764 2.189,7.296c1.459,1.569 3.539,2.335 6.275,2.335c3.1,-0 5.982,-0.62 8.609,-1.897c2.626,-1.35 5.545,-3.648 8.755,-6.858l3.648,4.086Zm-28.017,-15.468c5.728,-0.073 10.288,-0.656 13.717,-1.751c3.502,-1.058 5.873,-2.407 7.15,-4.085c1.349,-1.642 2.043,-3.43 2.043,-5.399c-0,-1.934 -0.548,-3.429 -1.606,-4.524c-0.984,-1.058 -2.407,-1.605 -4.231,-1.605c-3.502,0 -6.822,1.605 -9.923,4.815c-3.137,3.211 -5.508,7.406 -7.15,12.549Z" style="fill:#191919;fill-rule:nonzero;"/>
        <path id="path127481" serif:id="path12748" d="M631.113,415.749l-0,-10.944l79.233,-34.437l-79.233,-34.437l-0,-10.943l90.177,40.273l0,10.214l-90.177,40.274Z" style="fill:#191919;fill-rule:nonzero;"/>
        <rect id="path14768" x="766.797" y="367.389" width="560.325" height="9.339" style="fill:#191919;"/>
        <path id="path126811" serif:id="path12681" d="M924.44,282.28l-2.335,16.197l11.382,0l-0,6.275l-12.257,-0l-3.211,23.201l-7.441,-0l3.356,-23.201l-16.781,-0l-3.21,23.201l-7.442,-0l3.21,-23.201l-10.943,-0l-0,-6.275l11.819,0l2.335,-16.197l-11.382,0l-0,-6.274l12.257,-0l3.21,-22.909l7.296,-0l-3.21,22.909l16.781,-0l3.356,-22.909l7.296,-0l-3.357,22.909l10.944,-0l0,6.274l-11.673,0Zm-24.223,0l-2.188,16.197l16.78,0l2.189,-16.197l-16.781,0Z" style="fill:#191919;fill-rule:nonzero;"/>
        <path id="path12654" d="M965.029,284.469l0.875,0.292c1.824,-2.116 3.575,-3.976 5.253,-5.545c1.751,-1.642 3.393,-2.991 4.961,-4.086c1.642,-1.058 3.247,-1.824 4.816,-2.334c1.641,-0.475 3.356,-0.73 5.107,-0.73c4.268,0 7.587,1.569 9.922,4.669c2.335,3.138 3.502,7.698 3.502,13.717c0,5.253 -0.839,10.214 -2.48,14.883c-1.678,4.67 -3.904,8.755 -6.713,12.258c-2.736,3.502 -5.946,6.274 -9.63,8.317c-3.612,2.043 -7.442,3.064 -11.528,3.064c-2.626,0 -5.07,-0.292 -7.296,-0.875c-2.261,-0.475 -4.377,-1.35 -6.42,-2.627c-0.985,0.511 -1.97,1.094 -2.918,1.751c-0.876,0.584 -1.751,1.167 -2.627,1.751c-0.693,-0.219 -1.423,-0.401 -2.189,-0.584c-0.693,-0.109 -1.313,-0.291 -1.897,-0.583l13.133,-58.659c0.365,-1.824 0.657,-3.356 0.875,-4.524c0.183,-1.167 0.292,-2.188 0.292,-3.064c0,-0.657 -0.146,-1.24 -0.437,-1.751c-0.219,-0.584 -0.584,-1.021 -1.168,-1.313c-0.51,-0.292 -1.24,-0.475 -2.189,-0.584c-0.875,-0.182 -2.006,-0.328 -3.356,-0.438l0.876,-3.648l15.029,-0.729l3.94,-0l-7.733,31.372Zm-3.794,19.991c-0.292,1.97 -0.657,3.903 -1.022,5.837c-0.401,1.86 -0.583,3.611 -0.583,5.253c-0,2.918 0.656,5.034 2.042,6.274c1.35,1.167 3.502,1.751 6.421,1.751c2.991,0 5.727,-0.912 8.171,-2.772c2.517,-1.934 4.706,-4.451 6.567,-7.588c1.823,-3.101 3.246,-6.603 4.231,-10.506c1.058,-3.867 1.605,-7.77 1.605,-11.674c0,-3.866 -0.583,-6.785 -1.751,-8.755c-1.094,-1.933 -2.845,-2.918 -5.253,-2.918c-1.678,-0 -3.502,0.547 -5.545,1.605c-1.97,1.094 -3.903,2.7 -5.836,4.815c-1.861,2.153 -3.612,4.779 -5.253,7.88c-1.679,3.137 -2.919,6.712 -3.794,10.798Z" style="fill:#191919;fill-rule:nonzero;"/>
        <path id="path126571" serif:id="path12657" d="M1033.98,327.661c-1.167,-7.004 -2.262,-13.023 -3.21,-18.094c-0.875,-5.034 -1.715,-9.339 -2.481,-12.841c-0.693,-3.575 -1.386,-6.493 -2.042,-8.755c-0.584,-2.225 -1.168,-3.94 -1.751,-5.107c-0.584,-1.24 -1.168,-2.116 -1.751,-2.626c-0.584,-0.475 -1.241,-0.73 -1.897,-0.73c-0.694,-0 -1.314,0.109 -1.897,0.292c-0.511,0.219 -1.022,0.547 -1.605,1.021c-0.584,0.511 -1.241,1.24 -1.897,2.189c-0.693,0.875 -1.533,2.116 -2.481,3.648l-4.232,-2.773c1.533,-2.334 2.955,-4.231 4.232,-5.69c1.35,-1.532 2.663,-2.773 3.94,-3.648c1.24,-0.876 2.553,-1.496 3.94,-1.897c1.349,-0.365 2.845,-0.584 4.523,-0.584c1.24,0 2.371,0.146 3.356,0.438c0.949,0.219 1.788,0.584 2.481,1.167c0.766,0.584 1.459,1.386 2.043,2.335c0.656,0.875 1.313,2.006 1.897,3.356c0.364,0.803 0.729,1.97 1.021,3.502c0.365,1.459 0.766,3.21 1.167,5.253c0.365,1.97 0.766,4.086 1.168,6.42c0.474,2.335 0.912,4.816 1.313,7.442c0.365,2.627 0.73,5.326 1.021,8.026c0.365,2.736 0.766,5.399 1.168,8.025c2.699,-3.575 5.143,-7.223 7.296,-10.944c2.225,-3.684 4.085,-7.15 5.544,-10.36c1.533,-3.283 2.7,-6.274 3.503,-8.901c0.766,-2.699 1.167,-4.888 1.167,-6.566c-0,-1.532 -0.438,-2.663 -1.313,-3.356c-0.803,-0.657 -2.153,-1.058 -4.086,-1.168l0.584,-3.502l15.613,0l1.897,3.065c-3.612,9.047 -7.843,17.765 -12.695,26.119c-4.888,8.39 -10.36,16.489 -16.489,24.368c-2.736,3.211 -5.18,5.91 -7.296,8.172c-2.043,2.334 -4.013,4.304 -5.836,5.982c-1.861,1.751 -3.575,3.101 -5.108,4.086c-1.459,1.058 -2.918,1.934 -4.377,2.627c-1.459,0.656 -2.919,1.094 -4.378,1.313c-1.459,0.292 -2.991,0.474 -4.523,0.584c-0.876,-0 -1.897,-0.11 -3.064,-0.292c-1.168,-0.219 -2.262,-0.438 -3.211,-0.73l2.773,-11.965l4.961,-0l0,0.292c0,2.517 1.021,3.794 3.064,3.794c2.627,-0 5.29,-1.095 8.026,-3.211c2.809,-2.042 6.128,-5.326 9.922,-9.776Z" style="fill:#191919;fill-rule:nonzero;"/>
        <path id="path126361" serif:id="path12636" d="M1113.83,317.447c-1.97,2.042 -3.757,3.793 -5.399,5.253c-1.678,1.459 -3.32,2.699 -4.961,3.648c-1.569,0.875 -3.137,1.532 -4.67,1.897c-1.568,0.474 -3.173,0.729 -4.815,0.729c-4.377,0 -7.661,-1.021 -9.776,-3.064c-2.153,-2.043 -3.211,-5.034 -3.211,-9.047c0,-1.35 0.073,-2.845 0.292,-4.524c0.183,-1.641 0.474,-3.21 0.876,-4.669l6.566,-28.454l-9.485,0l1.168,-4.232c2.116,0 3.794,-0.182 4.961,-0.583c1.24,-0.365 2.335,-0.949 3.21,-1.751c0.584,-0.474 1.095,-1.095 1.605,-1.897c0.474,-0.766 0.949,-1.642 1.459,-2.627c0.584,-1.058 1.095,-2.334 1.606,-3.794c0.583,-1.459 1.167,-3.137 1.751,-5.107l8.609,0l-3.211,14.008l18.678,0l-1.313,5.983l-18.532,0l-5.545,23.055c-0.401,1.459 -0.729,2.846 -1.021,4.086c-0.219,1.167 -0.401,2.298 -0.584,3.356c-0.109,0.985 -0.219,1.86 -0.292,2.626l0,2.189c0,2.262 0.438,4.013 1.314,5.253c0.948,1.168 2.48,1.751 4.523,1.751c1.751,0 3.575,-0.62 5.545,-1.897c2.043,-1.24 4.305,-3.283 6.858,-6.128l3.794,3.94Z" style="fill:#191919;fill-rule:nonzero;"/>
        <path id="path126272" serif:id="path12627" d="M1170.24,316.279c-4.304,4.195 -8.536,7.369 -12.695,9.485c-4.195,2.152 -8.718,3.21 -13.57,3.21c-2.845,0 -5.362,-0.438 -7.588,-1.313c-2.261,-0.876 -4.158,-2.116 -5.691,-3.794c-1.459,-1.642 -2.59,-3.648 -3.356,-5.983c-0.802,-2.334 -1.167,-4.997 -1.167,-8.025c0,-2.043 0.182,-4.159 0.584,-6.421c0.364,-2.225 0.912,-4.45 1.605,-6.712c0.766,-2.225 1.751,-4.414 2.918,-6.566c1.167,-2.116 2.481,-4.122 3.94,-5.983c3.101,-3.794 6.785,-6.748 11.09,-8.901c4.377,-2.116 9.083,-3.21 14.154,-3.21c4.669,0 8.208,1.022 10.652,3.064c2.407,2.043 3.648,4.925 3.648,8.61c-0,13.242 -12.513,19.844 -37.501,19.844c-0.219,0.985 -0.365,2.043 -0.438,3.211c-0.109,1.094 -0.146,2.261 -0.146,3.502c0,4.012 0.766,6.931 2.335,8.755c1.641,1.86 4.231,2.772 7.733,2.772c1.751,0 3.393,-0.182 4.962,-0.584c1.641,-0.364 3.246,-0.948 4.815,-1.751c1.532,-0.766 3.101,-1.787 4.669,-3.064c1.532,-1.24 3.211,-2.772 4.962,-4.523l4.085,4.377Zm-31.81,-17.948c4.56,-0.073 8.5,-0.474 11.819,-1.167c3.393,-0.657 6.166,-1.605 8.318,-2.772c2.116,-1.241 3.684,-2.663 4.669,-4.232c0.949,-1.642 1.459,-3.502 1.459,-5.545c0,-2.225 -0.583,-3.976 -1.751,-5.253c-1.094,-1.24 -2.699,-1.897 -4.815,-1.897c-2.043,0 -4.049,0.511 -5.983,1.459c-1.969,0.985 -3.793,2.408 -5.544,4.232c-1.679,1.751 -3.211,3.94 -4.67,6.566c-1.459,2.554 -2.626,5.399 -3.502,8.609Z" style="fill:#191919;fill-rule:nonzero;"/>
        <path id="path126451" serif:id="path12645" d="M1221.28,286.95c-0.402,-3.283 -1.532,-5.728 -3.356,-7.296c-1.751,-1.532 -4.487,-2.335 -8.172,-2.335c-1.459,0 -2.882,0.219 -4.231,0.584c-1.277,0.401 -2.335,0.985 -3.211,1.751c-0.875,0.693 -1.605,1.532 -2.188,2.48c-0.511,0.985 -0.73,2.043 -0.73,3.211c0,1.094 0.073,2.042 0.292,2.918c0.292,0.875 0.802,1.751 1.605,2.627c0.766,0.802 1.824,1.678 3.21,2.626c1.35,0.876 3.137,1.897 5.399,3.064c2.335,1.277 4.268,2.481 5.837,3.648c1.532,1.168 2.772,2.408 3.648,3.648c0.875,1.168 1.495,2.444 1.897,3.794c0.365,1.386 0.583,2.918 0.583,4.669c0,2.554 -0.547,4.889 -1.605,7.005c-1.094,2.042 -2.59,3.793 -4.523,5.253c-1.861,1.386 -4.086,2.444 -6.712,3.21c-2.554,0.766 -5.326,1.167 -8.318,1.167c-3.429,0 -6.712,-0.255 -9.922,-0.729c-3.21,-0.365 -6.676,-1.095 -10.36,-2.189l2.918,-12.549l4.815,-0c0.073,3.429 1.095,5.982 3.065,7.733c2.042,1.679 5.107,2.481 9.192,2.481c3.575,0 6.421,-0.766 8.464,-2.335c2.116,-1.532 3.21,-3.721 3.21,-6.566c-0,-1.24 -0.146,-2.335 -0.438,-3.21c-0.219,-0.949 -0.693,-1.897 -1.459,-2.773c-0.693,-0.875 -1.715,-1.751 -3.064,-2.626c-1.277,-0.876 -2.919,-1.897 -4.962,-3.064c-2.261,-1.168 -4.158,-2.335 -5.69,-3.502c-1.459,-1.241 -2.736,-2.481 -3.794,-3.648c-0.985,-1.168 -1.715,-2.372 -2.189,-3.648c-0.511,-1.35 -0.73,-2.809 -0.73,-4.378c0,-2.225 0.475,-4.304 1.46,-6.274c0.948,-2.043 2.334,-3.721 4.085,-5.107c1.824,-1.46 4.013,-2.554 6.567,-3.357c2.517,-0.766 5.326,-1.167 8.463,-1.167c3.502,0 6.712,0.255 9.63,0.73c2.992,0.401 5.91,0.985 8.756,1.751l-2.627,12.403l-4.815,-0Z" style="fill:#191919;fill-rule:nonzero;"/>
        <path id="path126721" serif:id="path12672" d="M775.526,485.97c1.167,-0.182 2.079,-0.365 2.772,-0.583c0.657,-0.292 1.314,-0.803 1.897,-1.606c0.584,-0.766 1.095,-1.933 1.606,-3.502c0.474,-1.532 1.021,-3.793 1.605,-6.712l8.901,-39.835c0.364,-1.642 0.656,-3.101 0.875,-4.378c0.183,-1.24 0.292,-2.262 0.292,-3.064c-0,-1.642 -0.438,-2.809 -1.313,-3.502c-0.803,-0.657 -2.299,-1.022 -4.524,-1.022l0.73,-3.502l28.746,0c4.268,0 7.879,0.365 10.798,1.022c2.991,0.693 5.435,1.714 7.296,3.064c1.933,1.277 3.356,2.845 4.231,4.669c0.876,1.861 1.313,4.013 1.313,6.421c0,8.974 -5.654,15.285 -16.926,18.969l-0,0.73c3.393,1.386 5.983,3.283 7.734,5.69c1.751,2.335 2.626,5.035 2.626,8.026c0,3.502 -0.693,6.676 -2.043,9.485c-1.277,2.736 -3.283,5.07 -5.982,7.004c-2.736,1.97 -6.238,3.465 -10.506,4.523c-4.196,0.985 -9.193,1.459 -15.03,1.459l-25.682,0l0.584,-3.356Zm32.394,-36.187c3.976,-0 7.332,-0.365 10.068,-1.168c2.809,-0.766 5.034,-1.824 6.712,-3.21c1.751,-1.35 2.992,-2.991 3.794,-4.961c0.766,-2.043 1.168,-4.268 1.168,-6.712c-0.11,-1.533 -0.438,-2.919 -1.022,-4.086c-0.511,-1.24 -1.313,-2.262 -2.48,-3.064c-1.168,-0.876 -2.736,-1.496 -4.67,-1.897c-1.86,-0.475 -4.158,-0.73 -6.858,-0.73c-1.751,0 -3.429,0.073 -4.961,0.146c-1.569,-0 -3.064,0.109 -4.524,0.292l-5.69,25.39l8.463,-0Zm-16.051,33.707c0.875,0.109 1.97,0.146 3.356,0.146l4.815,-0c3.867,-0 7.223,-0.329 10.069,-1.022c2.918,-0.657 5.289,-1.678 7.15,-3.064c1.933,-1.459 3.356,-3.356 4.231,-5.691c0.876,-2.335 1.313,-5.107 1.313,-8.317c0,-1.642 -0.291,-3.101 -0.875,-4.378c-0.511,-1.24 -1.313,-2.335 -2.481,-3.21c-1.167,-0.876 -2.699,-1.496 -4.523,-1.897c-1.861,-0.365 -4.086,-0.584 -6.712,-0.584l-10.069,0l-6.274,28.017Z" style="fill:#191919;fill-rule:nonzero;"/>
        <path id="path126841" serif:id="path12684" d="M901.436,490.202l-0.584,-47.861l0,-4.961c0.073,-1.46 0.183,-2.7 0.292,-3.794l-0.583,-0l-29.038,56.616l-8.901,-0c-0.584,-9.631 -1.24,-19.261 -1.897,-28.892c-0.584,-9.631 -1.24,-19.298 -1.897,-29.038c-0.109,-1.824 -0.365,-3.392 -0.729,-4.669c-0.292,-1.24 -0.73,-2.262 -1.314,-3.064c-0.51,-0.876 -1.167,-1.496 -2.043,-1.897c-0.802,-0.474 -1.751,-0.766 -2.918,-0.876l0.73,-3.502l23.93,0l-0.729,3.502c-1.277,0.219 -2.299,0.438 -3.065,0.73c-0.802,0.292 -1.422,0.802 -1.897,1.459c-0.51,0.693 -0.839,1.605 -1.021,2.772c-0.219,1.168 -0.292,2.736 -0.292,4.67l0,2.043c0.073,0.693 0.146,1.313 0.146,1.897c0.073,2.626 0.182,5.107 0.292,7.441c0.073,2.335 0.182,4.743 0.292,7.15c0.073,2.335 0.182,4.816 0.292,7.442c0.072,2.627 0.145,5.509 0.145,8.609l0,5.399c0.073,1.751 0.146,3.502 0.146,5.253l0.438,0l29.913,-58.367l8.901,0c0.073,4.013 0.183,8.026 0.292,12.111c0.073,4.086 0.146,8.172 0.146,12.258c0.073,4.085 0.146,8.098 0.146,11.965c0.073,3.903 0.073,7.661 -0,11.236l-0,5.253c-0,1.751 -0.109,3.575 -0.292,5.399l0.73,-0l19.699,-35.896c0.875,-1.459 1.641,-2.809 2.334,-4.086c0.766,-1.24 1.387,-2.481 1.897,-3.648c0.584,-1.24 1.022,-2.408 1.314,-3.502c0.291,-1.058 0.437,-2.079 0.437,-3.064c0,-2.809 -1.97,-4.305 -5.836,-4.524l0.729,-3.502l24.077,0l-0.876,3.502c-0.875,0 -1.751,0.256 -2.626,0.73c-0.876,0.401 -1.751,1.021 -2.627,1.897c-0.875,0.802 -1.824,1.897 -2.772,3.356c-0.985,1.386 -2.043,3.137 -3.211,5.253l-32.977,57.2l-9.193,-0Z" style="fill:#191919;fill-rule:nonzero;"/>
        <path id="path127631" serif:id="path12763" d="M982.385,509.498l-9.776,-0l6.274,-26.703c0.949,-4.268 1.459,-7.478 1.459,-9.631c0,-3.392 -1.532,-5.107 -4.523,-5.107c-1.97,0 -3.794,0.584 -5.545,1.751c-1.678,1.167 -3.356,2.773 -5.107,4.815c-1.678,1.97 -2.991,3.867 -3.94,5.691c-0.985,1.861 -1.714,3.904 -2.189,6.129l-4.815,23.055l-9.776,-0l7.004,-30.351c0.766,-3.502 1.167,-6.056 1.167,-7.734c0,-2.116 -0.985,-3.21 -2.918,-3.21c-1.277,0 -2.554,0.511 -3.794,1.459c-1.277,0.985 -2.773,2.408 -4.524,4.232l-3.502,-3.21c3.21,-3.211 5.983,-5.545 8.318,-7.004c2.334,-1.46 4.815,-2.189 7.441,-2.189c2.408,-0 4.305,0.802 5.691,2.335c1.35,1.568 2.043,3.72 2.043,6.42c0,1.094 -0.109,2.043 -0.292,2.918l0.584,0.146c2.918,-3.976 5.837,-6.931 8.755,-8.901c2.918,-1.933 5.983,-2.918 9.193,-2.918c6.712,-0 10.068,3.283 10.068,9.776l0,0.876c0,0.292 -0.073,0.584 -0.146,0.875l0.438,0c2.918,-3.976 5.764,-6.894 8.609,-8.755c2.919,-1.824 5.983,-2.772 9.193,-2.772c3.502,-0 6.056,0.948 7.734,2.772c1.751,1.751 2.626,4.305 2.626,7.588c0,1.751 -0.438,4.487 -1.313,8.171l-3.21,12.987c-0.693,2.845 -1.095,4.633 -1.168,5.399c-0.109,0.693 -0.146,1.386 -0.146,2.043c0,2.262 0.949,3.356 2.919,3.356c1.24,0 2.517,-0.474 3.794,-1.459c1.24,-0.949 2.809,-2.408 4.669,-4.378l3.356,3.356c-3.21,3.211 -5.982,5.545 -8.317,7.004c-2.335,1.46 -4.815,2.189 -7.442,2.189c-2.554,0 -4.596,-0.875 -6.128,-2.626c-1.569,-1.751 -2.335,-3.867 -2.335,-6.421c-0,-2.809 0.583,-6.274 1.751,-10.36l2.189,-8.463c1.058,-3.867 1.605,-7.041 1.605,-9.485c-0,-3.392 -1.459,-5.107 -4.378,-5.107c-1.86,0 -3.611,0.584 -5.253,1.751c-1.678,1.095 -3.356,2.59 -5.107,4.524c-1.678,1.969 -2.991,3.903 -3.94,5.836c-0.985,1.97 -1.751,4.05 -2.334,6.275l-4.962,23.055Z" style="fill:#191919;fill-rule:nonzero;"/>
        <path id="path127751" serif:id="path12775" d="M1069.35,499.284c-4.013,3.793 -7.953,6.639 -11.82,8.463c-3.794,1.824 -7.733,2.772 -11.819,2.772c-4.888,0 -8.682,-1.459 -11.382,-4.377c-2.626,-2.992 -3.94,-7.004 -3.94,-11.966c0,-3.502 0.621,-7.222 1.897,-11.235c1.241,-4.086 3.211,-7.734 5.837,-10.944c2.7,-3.283 5.983,-5.873 9.777,-7.734c3.866,-1.824 8.098,-2.772 12.695,-2.772c3.976,-0 7.04,0.948 9.192,2.772c2.226,1.751 3.356,4.195 3.356,7.296c0,11.491 -10.943,17.218 -32.831,17.218c-0.292,1.569 -0.438,3.43 -0.438,5.545c0,3.32 0.73,5.764 2.189,7.296c1.459,1.569 3.538,2.335 6.274,2.335c3.101,-0 5.983,-0.62 8.61,-1.897c2.626,-1.35 5.544,-3.648 8.755,-6.858l3.648,4.086Zm-28.017,-15.468c5.728,-0.073 10.288,-0.656 13.717,-1.751c3.502,-1.058 5.873,-2.407 7.15,-4.085c1.349,-1.642 2.042,-3.43 2.042,-5.399c0,-1.934 -0.547,-3.429 -1.605,-4.524c-0.985,-1.058 -2.407,-1.605 -4.231,-1.605c-3.502,0 -6.822,1.605 -9.923,4.815c-3.137,3.211 -5.508,7.406 -7.15,12.549Z" style="fill:#191919;fill-rule:nonzero;"/>
        <path id="path127632" serif:id="path12763" d="M1121.5,509.498l-9.776,-0l6.274,-26.703c0.949,-4.268 1.459,-7.478 1.459,-9.631c0,-3.392 -1.532,-5.107 -4.523,-5.107c-1.97,0 -3.794,0.584 -5.545,1.751c-1.678,1.167 -3.356,2.773 -5.107,4.815c-1.678,1.97 -2.991,3.867 -3.94,5.691c-0.985,1.861 -1.714,3.904 -2.189,6.129l-4.815,23.055l-9.776,-0l7.004,-30.351c0.766,-3.502 1.167,-6.056 1.167,-7.734c0,-2.116 -0.985,-3.21 -2.918,-3.21c-1.277,0 -2.554,0.511 -3.794,1.459c-1.277,0.985 -2.773,2.408 -4.524,4.232l-3.502,-3.21c3.211,-3.211 5.983,-5.545 8.318,-7.004c2.334,-1.46 4.815,-2.189 7.441,-2.189c2.408,-0 4.305,0.802 5.691,2.335c1.35,1.568 2.043,3.72 2.043,6.42c0,1.094 -0.109,2.043 -0.292,2.918l0.584,0.146c2.918,-3.976 5.837,-6.931 8.755,-8.901c2.918,-1.933 5.983,-2.918 9.193,-2.918c6.712,-0 10.068,3.283 10.068,9.776l0,0.876c0,0.292 -0.073,0.584 -0.146,0.875l0.438,0c2.918,-3.976 5.764,-6.894 8.609,-8.755c2.919,-1.824 5.983,-2.772 9.193,-2.772c3.502,-0 6.056,0.948 7.734,2.772c1.751,1.751 2.626,4.305 2.626,7.588c0,1.751 -0.438,4.487 -1.313,8.171l-3.21,12.987c-0.693,2.845 -1.095,4.633 -1.168,5.399c-0.109,0.693 -0.145,1.386 -0.145,2.043c-0,2.262 0.948,3.356 2.918,3.356c1.24,0 2.517,-0.474 3.794,-1.459c1.24,-0.949 2.809,-2.408 4.669,-4.378l3.356,3.356c-3.21,3.211 -5.982,5.545 -8.317,7.004c-2.335,1.46 -4.815,2.189 -7.442,2.189c-2.553,0 -4.596,-0.875 -6.128,-2.626c-1.569,-1.751 -2.335,-3.867 -2.335,-6.421c-0,-2.809 0.584,-6.274 1.751,-10.36l2.189,-8.463c1.058,-3.867 1.605,-7.041 1.605,-9.485c-0,-3.392 -1.459,-5.107 -4.378,-5.107c-1.86,0 -3.611,0.584 -5.253,1.751c-1.678,1.095 -3.356,2.59 -5.107,4.524c-1.678,1.969 -2.991,3.903 -3.94,5.836c-0.985,1.97 -1.751,4.05 -2.334,6.275l-4.962,23.055Z" style="fill:#191919;fill-rule:nonzero;"/>
        <path id="path127601" serif:id="path12760" d="M1186.57,510.519c-5.253,0 -9.448,-1.605 -12.549,-4.815c-3.028,-3.21 -4.523,-7.369 -4.523,-12.549c-0,-5.837 1.167,-11.163 3.502,-16.051c2.334,-4.852 5.617,-8.646 9.922,-11.382c4.268,-2.808 9.12,-4.231 14.592,-4.231c3.867,-0 7.15,0.839 9.776,2.48c2.627,1.678 4.524,3.794 5.691,6.421c1.24,2.626 1.897,5.508 1.897,8.609c0,5.764 -1.24,11.09 -3.648,16.051c-2.335,4.888 -5.618,8.682 -9.776,11.382c-4.196,2.736 -9.157,4.085 -14.884,4.085Zm-7.442,-15.467c0,3.611 0.73,6.274 2.189,8.025c1.532,1.678 3.794,2.481 6.712,2.481c3.283,0 6.202,-1.24 8.755,-3.794c2.517,-2.517 4.56,-6.055 6.129,-10.652c1.532,-4.669 2.334,-9.339 2.334,-14.008c0,-3.502 -0.729,-6.129 -2.188,-7.88c-1.459,-1.824 -3.612,-2.772 -6.421,-2.772c-3.21,0 -6.128,1.167 -8.755,3.502c-2.553,2.335 -4.633,5.837 -6.274,10.506c-1.678,4.67 -2.481,9.558 -2.481,14.592Z" style="fill:#191919;fill-rule:nonzero;"/>
        <path id="path12778" d="M1234.62,479.147c0.767,-3.502 1.168,-6.056 1.168,-7.734c-0,-2.116 -0.985,-3.21 -2.919,-3.21c-1.276,0 -2.553,0.511 -3.793,1.459c-1.277,0.985 -2.773,2.408 -4.524,4.232l-3.502,-3.21c3.21,-3.211 5.983,-5.545 8.317,-7.004c2.335,-1.46 4.816,-2.189 7.442,-2.189c2.408,-0 4.305,0.802 5.691,2.335c1.35,1.568 2.043,3.72 2.043,6.42c-0,1.167 -0.11,2.152 -0.292,2.918l0.584,0.292c2.991,-4.086 6.019,-7.077 9.047,-9.047c2.991,-1.933 6.128,-2.918 9.338,-2.918c2.408,-0 4.67,0.219 6.713,0.583l-2.481,11.674l-5.545,-0c-0.109,-3.502 -1.459,-5.253 -4.086,-5.253c-1.276,-0 -2.626,0.511 -4.085,1.459c-1.386,0.876 -2.919,2.262 -4.67,4.086c-1.678,1.86 -3.064,3.867 -4.231,5.982c-1.168,2.043 -2.043,4.305 -2.627,6.713l-4.815,22.763l-9.777,-0l7.004,-30.351Z" style="fill:#191919;fill-rule:nonzero;"/>
        <path id="path12781" d="M1295.23,509.06l-2.627,-15.175c-1.568,-8.755 -2.882,-15.03 -3.939,-18.824c-0.876,-3.101 -1.751,-5.107 -2.627,-5.982c-0.511,-0.475 -1.167,-0.73 -2.043,-0.73c-0.875,-0 -1.605,0.146 -2.189,0.438c-0.583,0.292 -1.276,0.839 -2.042,1.605c-0.694,0.802 -1.715,2.152 -3.065,4.086l-3.794,-2.335c1.934,-2.809 3.685,-4.961 5.253,-6.421c1.533,-1.532 3.065,-2.626 4.524,-3.21c1.532,-0.656 3.392,-1.021 5.545,-1.021c1.532,-0 2.809,0.219 3.794,0.583c1.058,0.402 1.97,1.095 2.772,2.043c0.766,0.876 1.459,2.043 2.043,3.502c0.584,1.46 1.167,3.648 1.751,6.567c0.584,2.845 1.24,6.712 2.043,11.673c0.766,4.888 1.495,9.74 2.189,14.592c4.669,-5.91 8.353,-11.819 11.089,-17.656c2.809,-5.837 4.232,-10.214 4.232,-13.133c-0,-2.407 -1.605,-3.684 -4.815,-3.794l0.729,-3.356l13.571,0l1.897,2.773c-1.751,4.085 -3.32,7.551 -4.67,10.36c-2.553,4.961 -5.399,10.032 -8.609,15.175c-3.21,5.18 -6.566,9.923 -10.068,14.3c-3.429,4.378 -7.26,8.828 -11.528,13.425c-3.028,3.283 -5.545,5.618 -7.588,7.004c-1.969,1.35 -3.793,2.335 -5.544,2.918c-1.751,0.584 -3.612,0.876 -5.545,0.876c-0.803,-0 -1.751,-0.146 -2.919,-0.438c-1.094,-0.219 -2.116,-0.438 -3.064,-0.73l2.481,-10.652l4.523,0l0,0.438c0,2.116 1.058,3.21 3.21,3.21c1.824,0 3.94,-1.021 6.275,-3.064c2.407,-1.97 5.326,-4.961 8.755,-9.047Z" style="fill:#191919;fill-rule:nonzero;"/>
        <rect id="path14824" x="1.02" y="769.357" width="354.873" height="9.339" style="fill:#191919;"/>
        <path id="path126812" serif:id="path12681" d="M108.891,685.714l-2.335,16.197l11.382,0l-0,6.275l-12.257,-0l-3.211,23.201l-7.441,-0l3.356,-23.201l-16.781,-0l-3.21,23.201l-7.442,-0l3.21,-23.201l-10.943,-0l-0,-6.275l11.819,0l2.335,-16.197l-11.382,0l-0,-6.274l12.257,-0l3.21,-22.909l7.296,-0l-3.21,22.909l16.781,-0l3.356,-22.909l7.296,-0l-3.357,22.909l10.944,-0l0,6.274l-11.673,0Zm-24.223,0l-2.188,16.197l16.78,0l2.189,-16.197l-16.781,0Z" style="fill:#191919;fill-rule:nonzero;"/>
        <path id="path126213" serif:id="path12621" d="M150.355,732.408c-3.028,0 -5.764,-0.438 -8.172,-1.313c-2.334,-0.949 -4.377,-2.262 -6.128,-3.94c-1.678,-1.751 -2.919,-3.83 -3.794,-6.274c-0.876,-2.408 -1.313,-5.181 -1.313,-8.318c-0,-5.143 0.766,-9.959 2.334,-14.446c1.642,-4.56 3.867,-8.499 6.712,-11.819c2.919,-3.393 6.311,-6.019 10.215,-7.88c3.867,-1.933 8.171,-2.918 12.841,-2.918c3.21,0 6.019,0.547 8.463,1.605c2.517,0.985 4.596,2.408 6.274,4.232c1.642,1.86 2.846,4.013 3.648,6.42c0.876,2.444 1.313,5.034 1.313,7.734c0,5.654 -0.839,10.725 -2.48,15.175c-1.678,4.487 -3.94,8.391 -6.858,11.674c-2.919,3.21 -6.348,5.691 -10.215,7.442c-3.903,1.751 -8.171,2.626 -12.84,2.626Zm-8.61,-17.51c0,4.195 0.803,7.296 2.481,9.339c1.751,1.97 4.414,2.918 8.026,2.918c1.933,0 3.793,-0.474 5.544,-1.459c1.751,-0.949 3.357,-2.262 4.816,-3.94c1.459,-1.641 2.772,-3.538 3.94,-5.691c1.167,-2.225 2.115,-4.596 2.918,-7.15c0.766,-2.517 1.35,-5.107 1.751,-7.733c0.474,-2.7 0.73,-5.326 0.73,-7.88c-0,-4.086 -0.84,-7.15 -2.481,-9.193c-1.569,-2.116 -4.086,-3.21 -7.588,-3.21c-2.043,0 -3.94,0.511 -5.691,1.459c-1.751,0.876 -3.429,2.153 -4.961,3.794c-1.459,1.569 -2.772,3.466 -3.94,5.691c-1.167,2.152 -2.188,4.487 -3.064,7.004c-0.802,2.444 -1.423,5.071 -1.897,7.88c-0.401,2.735 -0.584,5.471 -0.584,8.171Z" style="fill:#191919;fill-rule:nonzero;"/>
        <path id="path126242" serif:id="path12624" d="M205.185,695.491c0.365,-1.934 0.657,-3.575 0.876,-4.961c0.182,-1.35 0.292,-2.554 0.292,-3.648c-0,-2.627 -1.095,-3.94 -3.211,-3.94c-0.693,-0 -1.386,0.146 -2.042,0.438c-0.584,0.219 -1.277,0.583 -2.043,1.167c-0.803,0.584 -1.605,1.313 -2.481,2.189c-0.875,0.802 -1.86,1.751 -2.918,2.918l-3.794,-3.648c1.824,-1.824 3.502,-3.392 4.961,-4.669c1.532,-1.35 2.991,-2.481 4.378,-3.356c1.459,-0.876 2.809,-1.496 4.085,-1.897c1.35,-0.365 2.773,-0.584 4.232,-0.584c2.699,0 4.815,0.876 6.274,2.627c1.46,1.751 2.189,4.085 2.189,7.004c0,0.802 -0.073,1.568 -0.146,2.334c-0.109,0.803 -0.365,1.569 -0.729,2.335l0.729,0.438c3.575,-5.034 7.077,-8.755 10.506,-11.09c3.502,-2.408 7.15,-3.648 10.944,-3.648c4.378,0 7.661,1.569 9.923,4.669c2.334,3.138 3.502,7.698 3.502,13.717c-0,5.253 -0.839,10.214 -2.481,14.883c-1.569,4.67 -3.757,8.755 -6.566,12.257c-2.736,3.503 -5.946,6.275 -9.631,8.318c-3.611,2.043 -7.442,3.064 -11.527,3.064c-2.919,0 -5.472,-0.292 -7.588,-0.875c-2.043,-0.584 -3.757,-1.241 -5.107,-2.043c-0.292,1.459 -0.657,2.918 -1.022,4.377c-0.401,1.532 -0.802,2.992 -1.167,4.378c-0.292,1.459 -0.584,2.772 -0.875,3.94c-0.219,1.24 -0.292,2.261 -0.292,3.064c-0,0.584 0.073,1.058 0.292,1.459c0.182,0.474 0.51,0.876 1.021,1.167c0.584,0.292 1.313,0.511 2.189,0.73c0.875,0.182 1.97,0.328 3.356,0.438l-0.292,3.648l-19.261,-0l13.424,-57.2Zm7.442,12.257c-0.584,2.554 -1.021,4.669 -1.313,6.42c-0.292,1.678 -0.438,3.284 -0.438,4.816c0,2.918 0.657,5.034 2.043,6.274c1.35,1.167 3.575,1.751 6.712,1.751c2.043,0 3.976,-0.438 5.837,-1.313c1.824,-0.949 3.502,-2.225 4.961,-3.794c1.532,-1.642 2.918,-3.539 4.086,-5.691c1.167,-2.116 2.116,-4.414 2.918,-6.858c0.766,-2.408 1.35,-4.888 1.751,-7.442c0.474,-2.517 0.73,-4.997 0.73,-7.442c-0,-3.866 -0.547,-6.785 -1.605,-8.755c-1.095,-1.933 -2.882,-2.918 -5.399,-2.918c-2.153,-0 -4.195,0.693 -6.129,2.043c-1.86,1.277 -3.867,3.174 -5.983,5.691c-0.984,1.167 -1.896,2.334 -2.772,3.502c-0.875,1.094 -1.678,2.298 -2.335,3.648c-0.583,1.386 -1.167,2.882 -1.751,4.523c-0.51,1.569 -0.948,3.429 -1.313,5.545Z" style="fill:#191919;fill-rule:nonzero;"/>
        <path id="path126452" serif:id="path12645" d="M298.375,690.384c-0.401,-3.283 -1.532,-5.728 -3.356,-7.296c-1.751,-1.532 -4.487,-2.335 -8.171,-2.335c-1.46,0 -2.882,0.219 -4.232,0.584c-1.277,0.401 -2.335,0.985 -3.21,1.751c-0.876,0.693 -1.605,1.532 -2.189,2.48c-0.511,0.985 -0.73,2.043 -0.73,3.211c0,1.094 0.073,2.042 0.292,2.918c0.292,0.875 0.803,1.751 1.605,2.627c0.766,0.802 1.824,1.678 3.211,2.626c1.349,0.876 3.137,1.897 5.398,3.064c2.335,1.277 4.269,2.481 5.837,3.648c1.532,1.168 2.773,2.408 3.648,3.648c0.876,1.168 1.496,2.444 1.897,3.794c0.365,1.386 0.584,2.918 0.584,4.669c-0,2.554 -0.547,4.889 -1.605,7.005c-1.095,2.042 -2.59,3.793 -4.524,5.253c-1.86,1.386 -4.086,2.444 -6.712,3.21c-2.554,0.766 -5.326,1.167 -8.317,1.167c-3.429,0 -6.713,-0.255 -9.923,-0.729c-3.21,-0.365 -6.676,-1.095 -10.36,-2.189l2.918,-12.549l4.816,-0c0.073,3.429 1.094,5.982 3.064,7.733c2.043,1.679 5.107,2.481 9.193,2.481c3.575,0 6.42,-0.766 8.463,-2.335c2.116,-1.532 3.21,-3.721 3.21,-6.566c0,-1.24 -0.146,-2.335 -0.438,-3.21c-0.218,-0.949 -0.693,-1.897 -1.459,-2.773c-0.693,-0.875 -1.714,-1.751 -3.064,-2.626c-1.277,-0.876 -2.918,-1.897 -4.961,-3.064c-2.262,-1.168 -4.159,-2.335 -5.691,-3.502c-1.459,-1.241 -2.736,-2.481 -3.794,-3.648c-0.985,-1.168 -1.714,-2.372 -2.189,-3.648c-0.51,-1.35 -0.729,-2.809 -0.729,-4.378c-0,-2.225 0.474,-4.304 1.459,-6.274c0.948,-2.043 2.335,-3.721 4.086,-5.107c1.824,-1.46 4.012,-2.554 6.566,-3.357c2.517,-0.766 5.326,-1.167 8.463,-1.167c3.502,0 6.712,0.255 9.631,0.73c2.991,0.401 5.91,0.985 8.755,1.751l-2.627,12.403l-4.815,-0Z" style="fill:#191919;fill-rule:nonzero;"/>
        <path id="path126813" serif:id="path12681" d="M55.243,847.088l-2.334,16.197l11.381,-0l0,6.274l-12.257,0l-3.21,23.201l-7.442,0l3.356,-23.201l-16.78,0l-3.211,23.201l-7.441,0l3.21,-23.201l-10.944,0l-0,-6.274l11.819,-0l2.335,-16.197l-11.382,-0l0,-6.274l12.257,-0l3.211,-22.91l7.296,0l-3.211,22.91l16.781,-0l3.356,-22.91l7.296,0l-3.356,22.91l10.944,-0l-0,6.274l-11.674,-0Zm-24.222,-0l-2.189,16.197l16.781,-0l2.188,-16.197l-16.78,-0Z" style="fill:#191919;fill-rule:nonzero;"/>
        <path id="path126541" serif:id="path12654" d="M95.832,849.277l0.875,0.292c1.824,-2.116 3.575,-3.977 5.253,-5.545c1.751,-1.642 3.393,-2.992 4.962,-4.086c1.641,-1.058 3.246,-1.824 4.815,-2.335c1.641,-0.474 3.356,-0.729 5.107,-0.729c4.268,-0 7.588,1.568 9.922,4.669c2.335,3.137 3.502,7.697 3.502,13.716c0,5.253 -0.839,10.215 -2.48,14.884c-1.678,4.669 -3.904,8.755 -6.712,12.257c-2.736,3.502 -5.947,6.275 -9.631,8.317c-3.611,2.043 -7.442,3.065 -11.528,3.065c-2.626,-0 -5.07,-0.292 -7.295,-0.876c-2.262,-0.474 -4.378,-1.35 -6.421,-2.626c-0.985,0.51 -1.97,1.094 -2.918,1.751c-0.876,0.583 -1.751,1.167 -2.627,1.751c-0.693,-0.219 -1.422,-0.402 -2.188,-0.584c-0.694,-0.109 -1.314,-0.292 -1.897,-0.584l13.132,-58.659c0.365,-1.824 0.657,-3.356 0.876,-4.523c0.182,-1.167 0.292,-2.189 0.292,-3.064c-0,-0.657 -0.146,-1.241 -0.438,-1.751c-0.219,-0.584 -0.584,-1.022 -1.168,-1.314c-0.51,-0.291 -1.24,-0.474 -2.188,-0.583c-0.876,-0.183 -2.007,-0.329 -3.356,-0.438l0.875,-3.648l15.03,-0.73l3.939,0l-7.733,31.373Zm-3.794,19.991c-0.292,1.969 -0.657,3.903 -1.022,5.836c-0.401,1.861 -0.583,3.612 -0.583,5.253c-0,2.919 0.656,5.034 2.043,6.275c1.349,1.167 3.502,1.751 6.42,1.751c2.991,-0 5.727,-0.912 8.171,-2.773c2.518,-1.933 4.706,-4.45 6.567,-7.587c1.824,-3.101 3.246,-6.603 4.231,-10.507c1.058,-3.866 1.605,-7.77 1.605,-11.673c0,-3.867 -0.583,-6.785 -1.751,-8.755c-1.094,-1.933 -2.845,-2.918 -5.253,-2.918c-1.678,-0 -3.502,0.547 -5.544,1.605c-1.97,1.094 -3.904,2.699 -5.837,4.815c-1.861,2.152 -3.612,4.779 -5.253,7.88c-1.678,3.137 -2.919,6.712 -3.794,10.798Z" style="fill:#191919;fill-rule:nonzero;"/>
        <path id="path126572" serif:id="path12657" d="M164.781,892.468c-1.167,-7.004 -2.262,-13.023 -3.21,-18.093c-0.876,-5.035 -1.715,-9.339 -2.481,-12.841c-0.693,-3.575 -1.386,-6.493 -2.042,-8.755c-0.584,-2.225 -1.168,-3.94 -1.752,-5.107c-0.583,-1.241 -1.167,-2.116 -1.751,-2.627c-0.583,-0.474 -1.24,-0.729 -1.896,-0.729c-0.694,-0 -1.314,0.109 -1.897,0.291c-0.511,0.219 -1.022,0.548 -1.605,1.022c-0.584,0.511 -1.241,1.24 -1.897,2.189c-0.694,0.875 -1.533,2.115 -2.481,3.648l-4.232,-2.773c1.532,-2.335 2.955,-4.232 4.232,-5.691c1.35,-1.532 2.663,-2.772 3.94,-3.648c1.24,-0.875 2.553,-1.495 3.94,-1.897c1.349,-0.364 2.845,-0.583 4.523,-0.583c1.24,-0 2.371,0.146 3.356,0.437c0.949,0.219 1.788,0.584 2.481,1.168c0.766,0.583 1.459,1.386 2.043,2.335c0.656,0.875 1.313,2.006 1.897,3.356c0.364,0.802 0.729,1.97 1.021,3.502c0.365,1.459 0.766,3.21 1.167,5.253c0.365,1.97 0.766,4.085 1.168,6.42c0.474,2.335 0.912,4.815 1.313,7.442c0.365,2.626 0.729,5.326 1.021,8.025c0.365,2.736 0.766,5.399 1.168,8.026c2.699,-3.575 5.143,-7.223 7.296,-10.944c2.225,-3.684 4.085,-7.15 5.544,-10.36c1.533,-3.283 2.7,-6.275 3.502,-8.901c0.767,-2.7 1.168,-4.888 1.168,-6.566c-0,-1.533 -0.438,-2.663 -1.313,-3.357c-0.803,-0.656 -2.153,-1.057 -4.086,-1.167l0.584,-3.502l15.613,0l1.897,3.064c-3.612,9.047 -7.843,17.766 -12.695,26.12c-4.888,8.39 -10.36,16.488 -16.489,24.368c-2.736,3.21 -5.18,5.91 -7.296,8.171c-2.043,2.335 -4.013,4.305 -5.837,5.983c-1.86,1.751 -3.575,3.101 -5.107,4.086c-1.459,1.058 -2.918,1.933 -4.377,2.626c-1.459,0.657 -2.919,1.095 -4.378,1.314c-1.459,0.291 -2.991,0.474 -4.523,0.583c-0.876,0 -1.897,-0.109 -3.064,-0.292c-1.168,-0.219 -2.262,-0.437 -3.211,-0.729l2.773,-11.966l4.961,0l-0,0.292c-0,2.517 1.021,3.794 3.064,3.794c2.627,0 5.29,-1.094 8.026,-3.21c2.809,-2.043 6.128,-5.326 9.922,-9.777Z" style="fill:#191919;fill-rule:nonzero;"/>
        <path id="path126362" serif:id="path12636" d="M244.636,882.254c-1.97,2.043 -3.757,3.794 -5.399,5.253c-1.678,1.459 -3.32,2.7 -4.961,3.648c-1.569,0.876 -3.138,1.532 -4.67,1.897c-1.568,0.474 -3.173,0.73 -4.815,0.73c-4.377,-0 -7.661,-1.022 -9.776,-3.065c-2.153,-2.042 -3.211,-5.034 -3.211,-9.046c0,-1.35 0.073,-2.846 0.292,-4.524c0.183,-1.641 0.474,-3.21 0.876,-4.669l6.566,-28.454l-9.485,-0l1.168,-4.232c2.115,0 3.794,-0.182 4.961,-0.584c1.24,-0.364 2.335,-0.948 3.21,-1.751c0.584,-0.474 1.094,-1.094 1.605,-1.897c0.474,-0.766 0.949,-1.641 1.459,-2.626c0.584,-1.058 1.095,-2.335 1.605,-3.794c0.584,-1.459 1.168,-3.137 1.751,-5.107l8.61,-0l-3.211,14.008l18.678,0l-1.313,5.983l-18.532,-0l-5.545,23.055c-0.401,1.459 -0.729,2.845 -1.021,4.085c-0.219,1.168 -0.401,2.299 -0.584,3.357c-0.109,0.985 -0.219,1.86 -0.292,2.626l0,2.189c0,2.262 0.438,4.013 1.314,5.253c0.948,1.167 2.48,1.751 4.523,1.751c1.751,-0 3.575,-0.62 5.545,-1.897c2.043,-1.24 4.304,-3.283 6.858,-6.129l3.794,3.94Z" style="fill:#191919;fill-rule:nonzero;"/>
        <path id="path126273" serif:id="path12627" d="M301.041,881.087c-4.304,4.195 -8.536,7.369 -12.695,9.485c-4.195,2.152 -8.718,3.21 -13.57,3.21c-2.845,-0 -5.363,-0.438 -7.588,-1.314c-2.261,-0.875 -4.158,-2.115 -5.691,-3.793c-1.459,-1.642 -2.59,-3.648 -3.356,-5.983c-0.802,-2.335 -1.167,-4.998 -1.167,-8.026c-0,-2.042 0.182,-4.158 0.584,-6.42c0.364,-2.225 0.912,-4.45 1.605,-6.712c0.766,-2.225 1.751,-4.414 2.918,-6.566c1.167,-2.116 2.481,-4.123 3.94,-5.983c3.101,-3.794 6.785,-6.749 11.09,-8.901c4.377,-2.116 9.083,-3.21 14.154,-3.21c4.669,-0 8.208,1.021 10.652,3.064c2.407,2.043 3.648,4.925 3.648,8.609c-0,13.242 -12.513,19.845 -37.501,19.845c-0.219,0.985 -0.365,2.043 -0.438,3.21c-0.109,1.095 -0.146,2.262 -0.146,3.502c0,4.013 0.766,6.931 2.335,8.755c1.641,1.861 4.231,2.773 7.733,2.773c1.751,-0 3.393,-0.183 4.962,-0.584c1.641,-0.365 3.246,-0.948 4.815,-1.751c1.532,-0.766 3.101,-1.787 4.669,-3.064c1.532,-1.241 3.21,-2.773 4.962,-4.524l4.085,4.378Zm-31.81,-17.948c4.56,-0.073 8.5,-0.474 11.819,-1.167c3.393,-0.657 6.165,-1.605 8.318,-2.773c2.116,-1.24 3.684,-2.663 4.669,-4.231c0.949,-1.642 1.459,-3.502 1.459,-5.545c0,-2.226 -0.583,-3.977 -1.751,-5.253c-1.094,-1.241 -2.699,-1.897 -4.815,-1.897c-2.043,-0 -4.049,0.51 -5.983,1.459c-1.97,0.985 -3.793,2.408 -5.545,4.231c-1.678,1.751 -3.21,3.94 -4.669,6.567c-1.459,2.553 -2.626,5.399 -3.502,8.609Z" style="fill:#191919;fill-rule:nonzero;"/>
        <path id="path126453" serif:id="path12645" d="M352.086,851.757c-0.402,-3.283 -1.532,-5.727 -3.356,-7.296c-1.751,-1.532 -4.487,-2.334 -8.172,-2.334c-1.459,-0 -2.882,0.219 -4.231,0.583c-1.277,0.402 -2.335,0.985 -3.211,1.751c-0.875,0.694 -1.605,1.533 -2.188,2.481c-0.511,0.985 -0.73,2.043 -0.73,3.21c0,1.095 0.073,2.043 0.292,2.919c0.292,0.875 0.802,1.751 1.605,2.626c0.766,0.803 1.824,1.678 3.21,2.627c1.35,0.875 3.137,1.897 5.399,3.064c2.335,1.277 4.268,2.481 5.837,3.648c1.532,1.167 2.772,2.408 3.648,3.648c0.875,1.167 1.495,2.444 1.897,3.794c0.365,1.386 0.583,2.918 0.583,4.669c0,2.554 -0.547,4.888 -1.605,7.004c-1.094,2.043 -2.59,3.794 -4.523,5.253c-1.861,1.386 -4.086,2.444 -6.712,3.21c-2.554,0.766 -5.326,1.168 -8.318,1.168c-3.429,-0 -6.712,-0.256 -9.922,-0.73c-3.21,-0.365 -6.676,-1.094 -10.36,-2.189l2.918,-12.549l4.815,0c0.073,3.429 1.095,5.983 3.065,7.734c2.042,1.678 5.107,2.481 9.192,2.481c3.575,-0 6.421,-0.766 8.464,-2.335c2.115,-1.532 3.21,-3.721 3.21,-6.566c-0,-1.241 -0.146,-2.335 -0.438,-3.211c-0.219,-0.948 -0.693,-1.896 -1.459,-2.772c-0.693,-0.875 -1.715,-1.751 -3.064,-2.626c-1.277,-0.876 -2.919,-1.897 -4.962,-3.065c-2.261,-1.167 -4.158,-2.334 -5.69,-3.502c-1.46,-1.24 -2.736,-2.48 -3.794,-3.648c-0.985,-1.167 -1.715,-2.371 -2.189,-3.648c-0.511,-1.349 -0.73,-2.809 -0.73,-4.377c0,-2.225 0.475,-4.305 1.46,-6.275c0.948,-2.043 2.334,-3.721 4.085,-5.107c1.824,-1.459 4.013,-2.553 6.567,-3.356c2.517,-0.766 5.326,-1.167 8.463,-1.167c3.502,-0 6.712,0.255 9.63,0.729c2.992,0.402 5.91,0.985 8.756,1.751l-2.627,12.403l-4.815,0Z" style="fill:#191919;fill-rule:nonzero;"/>
        <path id="path127482" serif:id="path12748" d="M414.221,819.183l-0,-10.944l79.233,-34.437l-79.233,-34.437l-0,-10.943l90.177,40.273l-0,10.214l-90.177,40.274Z" style="fill:#191919;fill-rule:nonzero;"/>
        <rect id="path14866" x="552.006" y="769.357" width="569.664" height="9.339" style="fill:#191919;"/>
        <path id="path126722" serif:id="path12672" d="M558.634,716.824c1.167,-0.182 2.079,-0.365 2.772,-0.583c0.657,-0.292 1.313,-0.803 1.897,-1.606c0.584,-0.766 1.094,-1.933 1.605,-3.502c0.474,-1.532 1.022,-3.793 1.605,-6.712l8.901,-39.835c0.365,-1.642 0.657,-3.101 0.876,-4.378c0.182,-1.24 0.292,-2.262 0.292,-3.064c-0,-1.642 -0.438,-2.809 -1.314,-3.502c-0.802,-0.657 -2.298,-1.022 -4.523,-1.022l0.73,-3.502l28.745,0c4.268,0 7.88,0.365 10.798,1.022c2.992,0.693 5.436,1.714 7.296,3.064c1.934,1.277 3.356,2.845 4.232,4.669c0.875,1.861 1.313,4.013 1.313,6.421c0,8.974 -5.654,15.285 -16.926,18.969l-0,0.73c3.392,1.386 5.982,3.283 7.733,5.69c1.751,2.335 2.627,5.035 2.627,8.026c-0,3.502 -0.693,6.676 -2.043,9.485c-1.277,2.736 -3.283,5.07 -5.983,7.004c-2.736,1.97 -6.238,3.465 -10.506,4.523c-4.195,0.985 -9.193,1.459 -15.029,1.459l-25.682,0l0.584,-3.356Zm32.394,-36.187c3.976,-0 7.332,-0.365 10.068,-1.168c2.809,-0.766 5.034,-1.824 6.712,-3.21c1.751,-1.35 2.991,-2.991 3.794,-4.961c0.766,-2.043 1.167,-4.268 1.167,-6.712c-0.109,-1.533 -0.437,-2.919 -1.021,-4.086c-0.511,-1.24 -1.313,-2.262 -2.481,-3.064c-1.167,-0.876 -2.736,-1.496 -4.669,-1.897c-1.861,-0.475 -4.159,-0.73 -6.858,-0.73c-1.751,0 -3.429,0.073 -4.961,0.146c-1.569,0 -3.065,0.109 -4.524,0.292l-5.691,25.39l8.464,-0Zm-16.051,33.707c0.875,0.109 1.969,0.146 3.356,0.146l4.815,-0c3.867,-0 7.223,-0.329 10.068,-1.022c2.919,-0.657 5.29,-1.678 7.15,-3.064c1.934,-1.459 3.356,-3.356 4.232,-5.691c0.875,-2.335 1.313,-5.107 1.313,-8.317c0,-1.642 -0.292,-3.101 -0.875,-4.378c-0.511,-1.24 -1.314,-2.335 -2.481,-3.21c-1.167,-0.876 -2.699,-1.496 -4.523,-1.897c-1.861,-0.365 -4.086,-0.584 -6.713,-0.584l-10.068,0l-6.274,28.017Z" style="fill:#191919;fill-rule:nonzero;"/>
        <path id="path126842" serif:id="path12684" d="M684.544,721.056l-0.583,-47.861l-0,-4.961c0.073,-1.46 0.182,-2.7 0.292,-3.794l-0.584,-0l-29.038,56.616l-8.901,-0c-0.583,-9.631 -1.24,-19.261 -1.897,-28.892c-0.583,-9.63 -1.24,-19.298 -1.897,-29.038c-0.109,-1.824 -0.364,-3.392 -0.729,-4.669c-0.292,-1.24 -0.73,-2.262 -1.313,-3.064c-0.511,-0.876 -1.168,-1.496 -2.043,-1.897c-0.803,-0.474 -1.751,-0.766 -2.919,-0.876l0.73,-3.502l23.93,0l-0.729,3.502c-1.277,0.219 -2.298,0.438 -3.064,0.73c-0.803,0.292 -1.423,0.802 -1.897,1.459c-0.511,0.693 -0.839,1.605 -1.022,2.773c-0.219,1.167 -0.292,2.736 -0.292,4.669l0,2.043c0.073,0.693 0.146,1.313 0.146,1.897c0.073,2.626 0.183,5.107 0.292,7.442c0.073,2.334 0.183,4.742 0.292,7.15c0.073,2.334 0.182,4.815 0.292,7.441c0.073,2.627 0.146,5.509 0.146,8.609l-0,5.399c0.073,1.751 0.146,3.502 0.146,5.253l0.437,0l29.914,-58.367l8.901,0c0.073,4.013 0.182,8.026 0.291,12.111c0.073,4.086 0.146,8.172 0.146,12.258c0.073,4.085 0.146,8.098 0.146,11.965c0.073,3.903 0.073,7.661 0,11.236l0,5.253c0,1.751 -0.109,3.575 -0.292,5.399l0.73,-0l19.699,-35.896c0.876,-1.459 1.642,-2.809 2.335,-4.086c0.766,-1.24 1.386,-2.481 1.897,-3.648c0.583,-1.24 1.021,-2.408 1.313,-3.502c0.292,-1.058 0.438,-2.079 0.438,-3.064c-0,-2.809 -1.97,-4.305 -5.837,-4.524l0.73,-3.502l24.076,0l-0.876,3.502c-0.875,0 -1.751,0.256 -2.626,0.73c-0.876,0.401 -1.751,1.021 -2.627,1.897c-0.875,0.802 -1.824,1.897 -2.772,3.356c-0.985,1.386 -2.043,3.137 -3.21,5.253l-32.978,57.2l-9.193,-0Z" style="fill:#191919;fill-rule:nonzero;"/>
        <path id="path127571" serif:id="path12757" d="M758.928,707.719c-0,-2.918 -0.511,-4.998 -1.459,-6.275c-0.985,-1.24 -2.481,-1.896 -4.524,-1.896c-3.319,-0 -6.274,1.24 -8.901,3.648c-2.626,2.444 -4.888,5.946 -6.712,10.506c-1.751,4.487 -2.627,8.828 -2.627,12.986c0,3.429 0.621,5.983 1.897,7.734c1.35,1.751 3.357,2.626 5.983,2.626c2.809,0 5.326,-0.51 7.588,-1.605c2.334,-1.167 5.253,-3.392 8.755,-6.712l3.648,4.086c-3.429,3.611 -6.931,6.347 -10.506,8.171c-3.612,1.751 -7.442,2.627 -11.528,2.627c-4.961,-0 -8.828,-1.459 -11.527,-4.378c-2.627,-2.918 -3.94,-6.931 -3.94,-12.111c-0,-3.101 0.511,-6.566 1.605,-10.36c1.058,-3.867 2.845,-7.515 5.399,-10.944c2.517,-3.393 5.581,-6.129 9.193,-8.171c3.684,-2.043 7.624,-3.065 11.819,-3.065c5.144,0 9.923,0.511 14.3,1.46l-2.626,11.673l-5.837,-0Z" style="fill:#191919;fill-rule:nonzero;"/>
        <path id="path127602" serif:id="path12760" d="M789.831,743.615c-5.253,-0 -9.449,-1.605 -12.549,-4.816c-3.028,-3.21 -4.524,-7.368 -4.524,-12.548c0,-5.837 1.168,-11.163 3.502,-16.051c2.335,-4.852 5.618,-8.646 9.923,-11.382c4.268,-2.809 9.12,-4.232 14.591,-4.232c3.867,0 7.15,0.839 9.777,2.481c2.626,1.678 4.523,3.794 5.691,6.42c1.24,2.627 1.897,5.509 1.897,8.61c-0,5.763 -1.241,11.089 -3.648,16.05c-2.335,4.889 -5.618,8.683 -9.777,11.382c-4.195,2.736 -9.156,4.086 -14.883,4.086Zm-7.442,-15.468c-0,3.612 0.729,6.275 2.189,8.026c1.532,1.678 3.793,2.481 6.712,2.481c3.283,-0 6.201,-1.241 8.755,-3.794c2.517,-2.517 4.56,-6.056 6.128,-10.652c1.533,-4.67 2.335,-9.339 2.335,-14.008c0,-3.502 -0.729,-6.129 -2.189,-7.88c-1.459,-1.824 -3.611,-2.772 -6.42,-2.772c-3.21,-0 -6.129,1.167 -8.755,3.502c-2.554,2.334 -4.633,5.836 -6.275,10.506c-1.678,4.669 -2.48,9.557 -2.48,14.591Z" style="fill:#191919;fill-rule:nonzero;"/>
        <path id="path127633" serif:id="path12763" d="M868.799,742.593l-9.777,0l6.275,-26.703c0.948,-4.268 1.459,-7.478 1.459,-9.63c0,-3.393 -1.532,-5.107 -4.523,-5.107c-1.97,-0 -3.794,0.583 -5.545,1.751c-1.678,1.167 -3.356,2.772 -5.107,4.815c-1.678,1.97 -2.992,3.867 -3.94,5.691c-0.985,1.86 -1.715,3.903 -2.189,6.128l-4.815,23.055l-9.777,0l7.004,-30.351c0.766,-3.502 1.168,-6.055 1.168,-7.733c-0,-2.116 -0.985,-3.21 -2.919,-3.21c-1.276,-0 -2.553,0.51 -3.794,1.459c-1.276,0.985 -2.772,2.407 -4.523,4.231l-3.502,-3.21c3.21,-3.21 5.983,-5.545 8.317,-7.004c2.335,-1.459 4.816,-2.189 7.442,-2.189c2.408,0 4.305,0.803 5.691,2.335c1.35,1.569 2.043,3.721 2.043,6.42c-0,1.095 -0.11,2.043 -0.292,2.919l0.584,0.146c2.918,-3.977 5.836,-6.931 8.755,-8.901c2.918,-1.934 5.982,-2.919 9.193,-2.919c6.712,0 10.068,3.283 10.068,9.777l-0,0.875c-0,0.292 -0.073,0.584 -0.146,0.876l0.438,-0c2.918,-3.976 5.763,-6.895 8.609,-8.755c2.918,-1.824 5.983,-2.773 9.193,-2.773c3.502,0 6.055,0.949 7.733,2.773c1.751,1.751 2.627,4.304 2.627,7.588c-0,1.751 -0.438,4.487 -1.313,8.171l-3.211,12.987c-0.693,2.845 -1.094,4.633 -1.167,5.399c-0.109,0.693 -0.146,1.386 -0.146,2.042c0,2.262 0.949,3.357 2.919,3.357c1.24,-0 2.517,-0.475 3.793,-1.46c1.241,-0.948 2.809,-2.407 4.67,-4.377l3.356,3.356c-3.21,3.21 -5.983,5.545 -8.317,7.004c-2.335,1.459 -4.816,2.189 -7.442,2.189c-2.554,-0 -4.597,-0.876 -6.129,-2.627c-1.568,-1.751 -2.334,-3.867 -2.334,-6.42c-0,-2.809 0.583,-6.275 1.751,-10.36l2.188,-8.464c1.058,-3.866 1.605,-7.04 1.605,-9.484c0,-3.393 -1.459,-5.107 -4.377,-5.107c-1.861,-0 -3.612,0.583 -5.253,1.751c-1.678,1.094 -3.356,2.59 -5.107,4.523c-1.678,1.97 -2.992,3.903 -3.94,5.837c-0.985,1.97 -1.751,4.049 -2.335,6.274l-4.961,23.055Z" style="fill:#191919;fill-rule:nonzero;"/>
        <path id="path127661" serif:id="path12766" d="M926.703,712.097c0.365,-1.934 0.656,-3.43 0.875,-4.524c0.183,-1.167 0.292,-2.189 0.292,-3.064c0,-2.116 -0.985,-3.21 -2.918,-3.21c-1.277,-0 -2.554,0.51 -3.794,1.459c-1.277,0.985 -2.846,2.407 -4.67,4.231l-3.356,-3.21c3.101,-3.21 5.837,-5.545 8.172,-7.004c2.407,-1.459 4.961,-2.189 7.588,-2.189c2.407,0 4.304,0.803 5.69,2.335c1.35,1.569 2.043,3.721 2.043,6.42c0,1.168 -0.146,2.153 -0.438,2.919l0.73,0.292c2.991,-4.086 5.983,-7.077 8.901,-9.047c2.918,-1.934 6.129,-2.919 9.631,-2.919c3.684,0 6.566,1.387 8.609,4.086c2.043,2.627 3.064,6.566 3.064,11.819c0,5.363 -1.24,10.725 -3.648,16.051c-2.335,5.253 -5.545,9.449 -9.631,12.549c-4.012,3.028 -8.426,4.524 -13.278,4.524c-2.627,-0 -4.888,-0.292 -6.712,-0.876c-1.751,-0.583 -3.137,-1.094 -4.086,-1.605l-1.751,8.463c-0.584,2.627 -0.875,4.451 -0.875,5.545c-0,1.241 0.364,2.08 1.167,2.481c0.875,0.474 2.48,0.802 4.815,1.021l-0.729,3.356l-16.781,0l11.09,-49.903Zm6.128,14.154c-0.401,2.152 -0.583,4.012 -0.583,5.544c-0,2.445 0.62,4.196 1.897,5.253c1.24,1.095 3.1,1.606 5.544,1.606c3.502,-0 6.567,-1.314 9.193,-3.94c2.7,-2.7 4.816,-6.311 6.275,-10.798c1.459,-4.451 2.189,-8.792 2.189,-12.987c-0,-3.283 -0.511,-5.727 -1.46,-7.296c-0.985,-1.641 -2.48,-2.48 -4.523,-2.48c-1.277,-0 -2.481,0.255 -3.648,0.729c-1.167,0.511 -2.335,1.241 -3.502,2.189c-1.094,0.876 -2.189,1.97 -3.356,3.21c-1.095,1.277 -2.043,2.481 -2.919,3.648c-0.802,1.168 -1.532,2.59 -2.188,4.232c-0.693,1.678 -1.314,3.794 -1.897,6.42l-1.022,4.67Z" style="fill:#191919;fill-rule:nonzero;"/>
        <path id="path127691" serif:id="path12769" d="M1010.18,731.795c-2.845,3.904 -5.763,6.859 -8.755,8.901c-2.918,1.934 -5.982,2.919 -9.193,2.919c-3.502,-0 -6.128,-0.876 -7.879,-2.627c-1.678,-1.824 -2.481,-4.414 -2.481,-7.733c0,-1.751 0.438,-4.524 1.313,-8.318l3.211,-12.84c0.364,-1.824 0.656,-3.357 0.875,-4.524c0.292,-1.167 0.438,-2.189 0.438,-3.064c-0,-2.116 -1.021,-3.21 -3.064,-3.21c-1.277,-0 -2.554,0.51 -3.794,1.459c-1.168,0.985 -2.7,2.407 -4.524,4.231l-3.502,-3.21c3.283,-3.21 6.129,-5.545 8.464,-7.004c2.407,-1.459 4.997,-2.189 7.733,-2.189c2.408,0 4.378,0.803 5.837,2.335c1.459,1.569 2.189,3.648 2.189,6.275c-0,2.735 -0.584,6.274 -1.751,10.652l-2.189,8.463c-1.094,4.195 -1.605,7.369 -1.605,9.484c-0,3.502 1.495,5.253 4.523,5.253c1.824,0 3.648,-0.583 5.399,-1.751c1.751,-1.167 3.429,-2.699 5.107,-4.669c1.751,-1.933 3.101,-3.83 4.086,-5.691c0.949,-1.933 1.678,-4.085 2.189,-6.42l4.815,-22.909l9.923,-0l-7.15,30.351c-0.803,3.429 -1.168,5.946 -1.168,7.587c0,2.262 0.949,3.357 2.919,3.357c1.24,-0 2.517,-0.475 3.793,-1.46c1.241,-0.948 2.809,-2.407 4.67,-4.377l3.356,3.356c-3.137,3.21 -5.91,5.545 -8.317,7.004c-2.335,1.459 -4.816,2.189 -7.442,2.189c-2.444,-0 -4.341,-0.803 -5.691,-2.335c-1.386,-1.641 -2.043,-3.794 -2.043,-6.42c0,-1.058 0.073,-2.043 0.292,-2.919l-0.584,-0.146Z" style="fill:#191919;fill-rule:nonzero;"/>
        <path id="path127721" serif:id="path12772" d="M1071.06,733.692c-3.502,3.721 -6.566,6.275 -9.193,7.734c-2.554,1.459 -5.217,2.189 -8.025,2.189c-3.904,-0 -6.859,-0.876 -8.901,-2.627c-1.97,-1.824 -2.919,-4.45 -2.919,-7.879c0,-1.168 0.073,-2.517 0.292,-4.086c0.292,-1.642 0.584,-3.101 0.876,-4.378l5.398,-23.638l-7.879,-0l1.021,-3.794c1.751,-0 3.138,-0.183 4.232,-0.584c1.167,-0.365 2.116,-0.948 2.918,-1.751c0.876,-0.766 1.605,-1.787 2.189,-3.064c0.657,-1.35 1.678,-4.086 3.064,-8.172l7.734,0l-2.481,11.966l16.489,-0l-1.021,5.399l-16.635,-0l-5.107,20.282c-0.876,3.794 -1.313,7.077 -1.313,9.777c-0,1.678 0.364,3.028 1.167,4.086c0.766,1.094 2.079,1.605 3.94,1.605c2.991,-0 6.493,-2.189 10.506,-6.567l3.648,3.502Z" style="fill:#191919;fill-rule:nonzero;"/>
        <path id="path127752" serif:id="path12775" d="M1120.64,732.379c-4.012,3.794 -7.952,6.639 -11.819,8.463c-3.794,1.824 -7.734,2.773 -11.819,2.773c-4.889,-0 -8.683,-1.459 -11.382,-4.378c-2.627,-2.991 -3.94,-7.004 -3.94,-11.965c0,-3.502 0.62,-7.223 1.897,-11.236c1.24,-4.085 3.21,-7.733 5.837,-10.944c2.699,-3.283 5.982,-5.873 9.776,-7.733c3.867,-1.824 8.099,-2.773 12.695,-2.773c3.976,0 7.041,0.949 9.193,2.773c2.225,1.751 3.356,4.195 3.356,7.296c0,11.491 -10.944,17.218 -32.831,17.218c-0.292,1.569 -0.438,3.429 -0.438,5.545c-0,3.32 0.729,5.764 2.189,7.296c1.459,1.568 3.538,2.334 6.274,2.334c3.101,0 5.983,-0.62 8.609,-1.896c2.627,-1.35 5.545,-3.648 8.755,-6.859l3.648,4.086Zm-28.016,-15.467c5.727,-0.073 10.287,-0.657 13.716,-1.751c3.502,-1.058 5.874,-2.408 7.15,-4.086c1.35,-1.641 2.043,-3.429 2.043,-5.399c0,-1.933 -0.547,-3.429 -1.605,-4.523c-0.985,-1.058 -2.408,-1.605 -4.232,-1.605c-3.502,-0 -6.821,1.605 -9.922,4.815c-3.137,3.21 -5.508,7.405 -7.15,12.549Z" style="fill:#191919;fill-rule:nonzero;"/>
        <path id="path126723" serif:id="path12672" d="M565.587,889.404c1.167,-0.182 2.079,-0.365 2.773,-0.583c0.656,-0.292 1.313,-0.803 1.896,-1.606c0.584,-0.766 1.095,-1.933 1.606,-3.502c0.474,-1.532 1.021,-3.793 1.605,-6.712l8.901,-39.835c0.364,-1.642 0.656,-3.101 0.875,-4.378c0.183,-1.24 0.292,-2.262 0.292,-3.064c-0,-1.642 -0.438,-2.809 -1.313,-3.502c-0.803,-0.657 -2.298,-1.022 -4.524,-1.022l0.73,-3.502l28.746,0c4.268,0 7.879,0.365 10.798,1.022c2.991,0.693 5.435,1.714 7.296,3.064c1.933,1.277 3.356,2.845 4.231,4.669c0.876,1.861 1.313,4.013 1.313,6.421c0,8.974 -5.654,15.285 -16.926,18.969l-0,0.73c3.393,1.386 5.983,3.283 7.734,5.69c1.751,2.335 2.626,5.035 2.626,8.026c0,3.502 -0.693,6.676 -2.043,9.485c-1.277,2.736 -3.283,5.07 -5.982,7.004c-2.736,1.97 -6.238,3.465 -10.506,4.523c-4.196,0.985 -9.193,1.459 -15.03,1.459l-25.682,0l0.584,-3.356Zm32.394,-36.187c3.976,-0 7.332,-0.365 10.068,-1.168c2.809,-0.766 5.034,-1.824 6.712,-3.21c1.751,-1.35 2.992,-2.991 3.794,-4.961c0.766,-2.043 1.168,-4.268 1.168,-6.712c-0.11,-1.533 -0.438,-2.919 -1.022,-4.086c-0.51,-1.24 -1.313,-2.262 -2.48,-3.064c-1.168,-0.876 -2.736,-1.496 -4.67,-1.897c-1.86,-0.475 -4.158,-0.73 -6.858,-0.73c-1.751,0 -3.429,0.073 -4.961,0.146c-1.569,-0 -3.064,0.109 -4.524,0.292l-5.69,25.39l8.463,-0Zm-16.051,33.707c0.875,0.109 1.97,0.146 3.356,0.146l4.815,-0c3.867,-0 7.223,-0.329 10.069,-1.022c2.918,-0.657 5.289,-1.678 7.15,-3.064c1.933,-1.459 3.356,-3.356 4.231,-5.691c0.876,-2.335 1.314,-5.107 1.314,-8.317c-0,-1.642 -0.292,-3.101 -0.876,-4.378c-0.511,-1.24 -1.313,-2.335 -2.481,-3.21c-1.167,-0.876 -2.699,-1.496 -4.523,-1.897c-1.861,-0.365 -4.086,-0.584 -6.712,-0.584l-10.069,0l-6.274,28.017Z" style="fill:#191919;fill-rule:nonzero;"/>
        <path id="path126843" serif:id="path12684" d="M691.498,893.636l-0.583,-47.861l-0,-4.961c0.073,-1.46 0.182,-2.7 0.292,-3.794l-0.584,-0l-29.038,56.616l-8.901,-0c-0.583,-9.631 -1.24,-19.261 -1.897,-28.892c-0.583,-9.631 -1.24,-19.298 -1.897,-29.038c-0.109,-1.824 -0.364,-3.392 -0.729,-4.669c-0.292,-1.24 -0.73,-2.262 -1.314,-3.064c-0.51,-0.876 -1.167,-1.496 -2.042,-1.897c-0.803,-0.474 -1.751,-0.766 -2.919,-0.876l0.73,-3.502l23.93,0l-0.729,3.502c-1.277,0.219 -2.298,0.438 -3.064,0.73c-0.803,0.292 -1.423,0.802 -1.897,1.459c-0.511,0.693 -0.839,1.605 -1.022,2.772c-0.219,1.168 -0.292,2.736 -0.292,4.67l0,2.043c0.073,0.693 0.146,1.313 0.146,1.897c0.073,2.626 0.183,5.107 0.292,7.441c0.073,2.335 0.183,4.743 0.292,7.15c0.073,2.335 0.182,4.816 0.292,7.442c0.073,2.627 0.146,5.509 0.146,8.609l-0,5.399c0.073,1.751 0.146,3.502 0.146,5.253l0.437,0l29.914,-58.367l8.901,0c0.073,4.013 0.182,8.026 0.291,12.111c0.073,4.086 0.146,8.172 0.146,12.258c0.073,4.085 0.146,8.098 0.146,11.965c0.073,3.903 0.073,7.661 0,11.236l0,5.253c0,1.751 -0.109,3.575 -0.292,5.399l0.73,-0l19.699,-35.896c0.875,-1.459 1.641,-2.809 2.335,-4.086c0.766,-1.24 1.386,-2.481 1.897,-3.648c0.583,-1.24 1.021,-2.408 1.313,-3.502c0.292,-1.058 0.438,-2.079 0.438,-3.064c-0,-2.809 -1.97,-4.305 -5.837,-4.524l0.729,-3.502l24.077,0l-0.876,3.502c-0.875,0 -1.751,0.256 -2.626,0.73c-0.876,0.401 -1.751,1.021 -2.627,1.897c-0.875,0.802 -1.824,1.897 -2.772,3.356c-0.985,1.386 -2.043,3.137 -3.21,5.253l-32.978,57.2l-9.193,-0Z" style="fill:#191919;fill-rule:nonzero;"/>
        <path id="path127634" serif:id="path12763" d="M772.449,912.932l-9.777,0l6.275,-26.703c0.948,-4.268 1.459,-7.478 1.459,-9.63c-0,-3.393 -1.532,-5.108 -4.524,-5.108c-1.97,0 -3.794,0.584 -5.545,1.751c-1.678,1.168 -3.356,2.773 -5.107,4.816c-1.678,1.97 -2.991,3.867 -3.939,5.691c-0.985,1.86 -1.715,3.903 -2.189,6.128l-4.816,23.055l-9.776,0l7.004,-30.351c0.766,-3.502 1.167,-6.055 1.167,-7.733c0,-2.116 -0.985,-3.211 -2.918,-3.211c-1.277,0 -2.554,0.511 -3.794,1.459c-1.277,0.985 -2.772,2.408 -4.523,4.232l-3.502,-3.21c3.21,-3.21 5.982,-5.545 8.317,-7.004c2.335,-1.459 4.815,-2.189 7.442,-2.189c2.407,0 4.304,0.803 5.691,2.335c1.349,1.568 2.042,3.721 2.042,6.42c0,1.095 -0.109,2.043 -0.291,2.919l0.583,0.145c2.919,-3.976 5.837,-6.931 8.755,-8.901c2.919,-1.933 5.983,-2.918 9.193,-2.918c6.712,0 10.069,3.283 10.069,9.777l-0,0.875c-0,0.292 -0.073,0.584 -0.146,0.876l0.437,-0c2.919,-3.977 5.764,-6.895 8.61,-8.755c2.918,-1.824 5.982,-2.773 9.192,-2.773c3.502,0 6.056,0.949 7.734,2.773c1.751,1.751 2.627,4.304 2.627,7.587c-0,1.751 -0.438,4.487 -1.314,8.172l-3.21,12.986c-0.693,2.846 -1.094,4.633 -1.167,5.399c-0.11,0.693 -0.146,1.387 -0.146,2.043c-0,2.262 0.948,3.356 2.918,3.356c1.241,0 2.517,-0.474 3.794,-1.459c1.24,-0.948 2.809,-2.408 4.669,-4.377l3.357,3.356c-3.211,3.21 -5.983,5.545 -8.318,7.004c-2.334,1.459 -4.815,2.189 -7.442,2.189c-2.553,-0 -4.596,-0.876 -6.128,-2.627c-1.569,-1.751 -2.335,-3.867 -2.335,-6.42c0,-2.809 0.584,-6.275 1.751,-10.361l2.189,-8.463c1.058,-3.867 1.605,-7.04 1.605,-9.484c0,-3.393 -1.459,-5.108 -4.377,-5.108c-1.861,0 -3.612,0.584 -5.254,1.751c-1.678,1.095 -3.356,2.59 -5.107,4.524c-1.678,1.97 -2.991,3.903 -3.939,5.837c-0.985,1.969 -1.751,4.049 -2.335,6.274l-4.961,23.055Z" style="fill:#191919;fill-rule:nonzero;"/>
        <path id="path127753" serif:id="path12775" d="M859.408,902.718c-4.012,3.794 -7.952,6.639 -11.819,8.463c-3.794,1.824 -7.734,2.773 -11.819,2.773c-4.889,-0 -8.682,-1.46 -11.382,-4.378c-2.626,-2.991 -3.94,-7.004 -3.94,-11.965c0,-3.502 0.62,-7.223 1.897,-11.236c1.241,-4.086 3.21,-7.734 5.837,-10.944c2.699,-3.283 5.983,-5.873 9.776,-7.733c3.867,-1.824 8.099,-2.773 12.695,-2.773c3.977,0 7.041,0.949 9.193,2.773c2.225,1.751 3.356,4.195 3.356,7.295c0,11.491 -10.944,17.219 -32.831,17.219c-0.292,1.568 -0.438,3.429 -0.438,5.545c-0,3.319 0.73,5.763 2.189,7.296c1.459,1.568 3.538,2.334 6.274,2.334c3.101,0 5.983,-0.62 8.609,-1.897c2.627,-1.349 5.545,-3.648 8.755,-6.858l3.648,4.086Zm-28.016,-15.467c5.727,-0.073 10.287,-0.657 13.716,-1.751c3.502,-1.058 5.874,-2.408 7.15,-4.086c1.35,-1.642 2.043,-3.429 2.043,-5.399c0,-1.934 -0.547,-3.429 -1.605,-4.524c-0.985,-1.058 -2.407,-1.605 -4.231,-1.605c-3.502,0 -6.822,1.605 -9.923,4.816c-3.137,3.21 -5.508,7.405 -7.15,12.549Z" style="fill:#191919;fill-rule:nonzero;"/>
        <path id="path127635" serif:id="path12763" d="M911.559,912.932l-9.777,0l6.275,-26.703c0.948,-4.268 1.459,-7.478 1.459,-9.63c-0,-3.393 -1.532,-5.108 -4.524,-5.108c-1.969,0 -3.793,0.584 -5.544,1.751c-1.679,1.168 -3.357,2.773 -5.108,4.816c-1.678,1.97 -2.991,3.867 -3.939,5.691c-0.985,1.86 -1.715,3.903 -2.189,6.128l-4.815,23.055l-9.777,0l7.004,-30.351c0.766,-3.502 1.167,-6.055 1.167,-7.733c0,-2.116 -0.985,-3.211 -2.918,-3.211c-1.277,0 -2.553,0.511 -3.794,1.459c-1.277,0.985 -2.772,2.408 -4.523,4.232l-3.502,-3.21c3.21,-3.21 5.982,-5.545 8.317,-7.004c2.335,-1.459 4.815,-2.189 7.442,-2.189c2.408,0 4.304,0.803 5.691,2.335c1.349,1.568 2.043,3.721 2.043,6.42c-0,1.095 -0.11,2.043 -0.292,2.919l0.583,0.145c2.919,-3.976 5.837,-6.931 8.755,-8.901c2.919,-1.933 5.983,-2.918 9.193,-2.918c6.712,0 10.069,3.283 10.069,9.777l-0,0.875c-0,0.292 -0.073,0.584 -0.146,0.876l0.437,-0c2.919,-3.977 5.764,-6.895 8.61,-8.755c2.918,-1.824 5.982,-2.773 9.192,-2.773c3.502,0 6.056,0.949 7.734,2.773c1.751,1.751 2.627,4.304 2.627,7.587c-0,1.751 -0.438,4.487 -1.314,8.172l-3.21,12.986c-0.693,2.846 -1.094,4.633 -1.167,5.399c-0.11,0.693 -0.146,1.387 -0.146,2.043c-0,2.262 0.948,3.356 2.918,3.356c1.241,0 2.517,-0.474 3.794,-1.459c1.24,-0.948 2.809,-2.408 4.669,-4.377l3.357,3.356c-3.211,3.21 -5.983,5.545 -8.318,7.004c-2.334,1.459 -4.815,2.189 -7.442,2.189c-2.553,-0 -4.596,-0.876 -6.128,-2.627c-1.569,-1.751 -2.335,-3.867 -2.335,-6.42c0,-2.809 0.584,-6.275 1.751,-10.361l2.189,-8.463c1.058,-3.867 1.605,-7.04 1.605,-9.484c0,-3.393 -1.459,-5.108 -4.377,-5.108c-1.861,0 -3.612,0.584 -5.253,1.751c-1.679,1.095 -3.357,2.59 -5.108,4.524c-1.678,1.97 -2.991,3.903 -3.939,5.837c-0.985,1.969 -1.751,4.049 -2.335,6.274l-4.961,23.055Z" style="fill:#191919;fill-rule:nonzero;"/>
        <path id="path127603" serif:id="path12760" d="M976.631,913.954c-5.253,-0 -9.449,-1.606 -12.549,-4.816c-3.028,-3.21 -4.524,-7.369 -4.524,-12.549c0,-5.836 1.168,-11.162 3.502,-16.051c2.335,-4.851 5.618,-8.645 9.923,-11.381c4.268,-2.809 9.12,-4.232 14.592,-4.232c3.866,0 7.149,0.839 9.776,2.481c2.627,1.678 4.523,3.794 5.691,6.42c1.24,2.627 1.897,5.508 1.897,8.609c-0,5.764 -1.241,11.09 -3.648,16.051c-2.335,4.888 -5.618,8.682 -9.777,11.382c-4.195,2.736 -9.156,4.086 -14.883,4.086Zm-7.442,-15.468c-0,3.612 0.729,6.275 2.189,8.026c1.532,1.678 3.793,2.48 6.712,2.48c3.283,0 6.201,-1.24 8.755,-3.794c2.517,-2.517 4.56,-6.055 6.128,-10.652c1.533,-4.669 2.335,-9.338 2.335,-14.008c0,-3.502 -0.729,-6.128 -2.189,-7.879c-1.459,-1.824 -3.611,-2.773 -6.42,-2.773c-3.21,0 -6.129,1.168 -8.755,3.502c-2.554,2.335 -4.633,5.837 -6.275,10.506c-1.678,4.67 -2.48,9.558 -2.48,14.592Z" style="fill:#191919;fill-rule:nonzero;"/>
        <path id="path127781" serif:id="path12778" d="M1024.68,882.581c0.766,-3.502 1.168,-6.055 1.168,-7.733c-0,-2.116 -0.985,-3.211 -2.919,-3.211c-1.276,0 -2.553,0.511 -3.794,1.459c-1.276,0.985 -2.772,2.408 -4.523,4.232l-3.502,-3.21c3.21,-3.21 5.983,-5.545 8.317,-7.004c2.335,-1.459 4.816,-2.189 7.442,-2.189c2.408,0 4.305,0.803 5.691,2.335c1.35,1.568 2.043,3.721 2.043,6.42c-0,1.168 -0.11,2.152 -0.292,2.919l0.584,0.291c2.991,-4.085 6.019,-7.077 9.046,-9.047c2.992,-1.933 6.129,-2.918 9.339,-2.918c2.408,0 4.67,0.219 6.712,0.584l-2.48,11.673l-5.545,0c-0.109,-3.502 -1.459,-5.253 -4.086,-5.253c-1.277,0 -2.626,0.511 -4.085,1.459c-1.387,0.876 -2.919,2.262 -4.67,4.086c-1.678,1.86 -3.064,3.867 -4.231,5.983c-1.168,2.043 -2.043,4.304 -2.627,6.712l-4.815,22.763l-9.777,0l7.004,-30.351Z" style="fill:#191919;fill-rule:nonzero;"/>
        <path id="path127811" serif:id="path12781" d="M1085.29,912.494l-2.627,-15.175c-1.569,-8.755 -2.882,-15.03 -3.94,-18.824c-0.875,-3.1 -1.751,-5.107 -2.626,-5.982c-0.511,-0.474 -1.168,-0.73 -2.043,-0.73c-0.876,0 -1.605,0.146 -2.189,0.438c-0.584,0.292 -1.277,0.839 -2.043,1.605c-0.693,0.803 -1.714,2.152 -3.064,4.086l-3.794,-2.335c1.933,-2.809 3.685,-4.961 5.253,-6.42c1.532,-1.532 3.064,-2.627 4.524,-3.21c1.532,-0.657 3.392,-1.022 5.544,-1.022c1.533,0 2.809,0.219 3.794,0.584c1.058,0.401 1.97,1.094 2.773,2.043c0.766,0.875 1.459,2.042 2.043,3.502c0.583,1.459 1.167,3.648 1.751,6.566c0.583,2.845 1.24,6.712 2.043,11.673c0.766,4.889 1.495,9.74 2.188,14.592c4.67,-5.909 8.354,-11.819 11.09,-17.656c2.809,-5.837 4.232,-10.214 4.232,-13.133c-0,-2.407 -1.605,-3.684 -4.816,-3.793l0.73,-3.356l13.57,-0l1.897,2.772c-1.751,4.086 -3.319,7.551 -4.669,10.36c-2.554,4.961 -5.399,10.032 -8.609,15.176c-3.21,5.18 -6.567,9.922 -10.069,14.3c-3.429,4.377 -7.259,8.828 -11.527,13.424c-3.028,3.283 -5.545,5.618 -7.588,7.004c-1.97,1.35 -3.794,2.335 -5.545,2.918c-1.751,0.584 -3.611,0.876 -5.545,0.876c-0.802,-0 -1.751,-0.146 -2.918,-0.438c-1.094,-0.219 -2.116,-0.438 -3.064,-0.729l2.48,-10.652l4.524,-0l-0,0.437c-0,2.116 1.058,3.211 3.21,3.211c1.824,-0 3.94,-1.022 6.274,-3.065c2.408,-1.97 5.326,-4.961 8.756,-9.047Z" style="fill:#191919;fill-rule:nonzero;"/>
    </g>
</svg>
