<?xml version="1.0" encoding="utf-8"?>
<!-- Generator: Adobe Illustrator 28.5.0, SVG Export Plug-In . SVG Version: 9.03 Build 54727)  -->
<svg version="1.1" id="Ebene_1" xmlns="http://www.w3.org/2000/svg" xmlns:xlink="http://www.w3.org/1999/xlink" x="0px" y="0px"
	 viewBox="0 0 241.74 239.13" style="enable-background:new 0 0 241.74 239.13;" xml:space="preserve">
<style type="text/css">
	.st0{fill:none;stroke:#E5650F;stroke-width:2;stroke-linejoin:round;stroke-miterlimit:10;}
	.st1{fill:none;stroke:#1C64A9;stroke-width:2;stroke-linejoin:round;stroke-miterlimit:10;}
	.st2{fill:#E5650F;}
	.st3{fill:#FEEFE6;stroke:#E5650F;stroke-width:2;stroke-linejoin:round;stroke-miterlimit:10;}
	.st4{fill:#EF8E4A;stroke:#E5650F;stroke-width:2;stroke-linejoin:round;stroke-miterlimit:10;}
	.st5{fill:#FFFFFF;}
	.st6{fill:#1B529B;}
	.st7{fill:#44B06B;}
	.st8{fill:#E5640D;}
	.st9{fill:#1C529B;}
	.st10{fill:#010202;}
</style>
<rect x="45.83" y="44.67" class="st0" width="19.07" height="19.07"/>
<rect x="39.49" y="38.33" class="st1" width="59.01" height="59.01"/>
<rect x="72.1" y="44.67" class="st0" width="19.07" height="19.07"/>
<rect x="45.83" y="70.87" class="st0" width="19.07" height="19.07"/>
<rect x="72.1" y="70.87" class="st0" width="19.07" height="19.07"/>
<g>
	<path class="st2" d="M50.68,57.18c-0.55,0-0.98-0.16-1.3-0.47c-0.32-0.31-0.48-0.73-0.48-1.26V52.9c0-0.53,0.16-0.95,0.48-1.26
		c0.32-0.31,0.75-0.47,1.3-0.47s0.98,0.16,1.3,0.47c0.32,0.31,0.48,0.73,0.48,1.26v2.54c0,0.35-0.07,0.65-0.22,0.91
		c-0.15,0.26-0.35,0.46-0.62,0.6C51.36,57.1,51.04,57.18,50.68,57.18z M50.68,56.5c0.31,0,0.56-0.1,0.74-0.29
		c0.19-0.19,0.28-0.45,0.28-0.76V52.9c0-0.31-0.09-0.56-0.28-0.76c-0.19-0.19-0.43-0.29-0.74-0.29c-0.31,0-0.56,0.1-0.74,0.29
		c-0.19,0.19-0.28,0.45-0.28,0.76v2.54c0,0.31,0.09,0.56,0.28,0.76C50.12,56.4,50.37,56.5,50.68,56.5z M50.68,54.62
		c-0.15,0-0.27-0.04-0.36-0.12c-0.09-0.08-0.13-0.2-0.13-0.35s0.04-0.26,0.13-0.34c0.09-0.08,0.21-0.12,0.36-0.12
		s0.27,0.04,0.36,0.12c0.09,0.08,0.14,0.19,0.14,0.34s-0.05,0.27-0.14,0.35C50.95,54.58,50.83,54.62,50.68,54.62z"/>
	<path class="st2" d="M53.65,57.98l2.83-7.52h0.83l-2.83,7.52H53.65z"/>
	<path class="st2" d="M60.28,57.18c-0.55,0-0.98-0.16-1.3-0.47c-0.32-0.31-0.48-0.73-0.48-1.26V52.9c0-0.53,0.16-0.95,0.48-1.26
		c0.32-0.31,0.75-0.47,1.3-0.47s0.98,0.16,1.3,0.47c0.32,0.31,0.48,0.73,0.48,1.26v2.54c0,0.35-0.07,0.65-0.22,0.91
		c-0.15,0.26-0.35,0.46-0.62,0.6C60.96,57.1,60.64,57.18,60.28,57.18z M60.28,56.5c0.31,0,0.56-0.1,0.74-0.29
		c0.19-0.19,0.28-0.45,0.28-0.76V52.9c0-0.31-0.09-0.56-0.28-0.76c-0.19-0.19-0.43-0.29-0.74-0.29c-0.31,0-0.56,0.1-0.74,0.29
		c-0.19,0.19-0.28,0.45-0.28,0.76v2.54c0,0.31,0.09,0.56,0.28,0.76C59.72,56.4,59.97,56.5,60.28,56.5z M60.28,54.62
		c-0.15,0-0.27-0.04-0.36-0.12c-0.09-0.08-0.13-0.2-0.13-0.35s0.04-0.26,0.13-0.34c0.09-0.08,0.21-0.12,0.36-0.12
		s0.27,0.04,0.36,0.12c0.09,0.08,0.14,0.19,0.14,0.34s-0.05,0.27-0.14,0.35C60.55,54.58,60.43,54.62,60.28,54.62z"/>
</g>
<g>
	<path class="st2" d="M74.91,57.1v-0.72h1.56v-4.41l-1.57,1.17v-0.9l1.33-0.98h1.03v5.12h1.28v0.72H74.91z"/>
	<path class="st2" d="M79.56,57.98l2.83-7.52h0.83l-2.83,7.52H79.56z"/>
	<path class="st2" d="M86.2,57.18c-0.55,0-0.98-0.16-1.3-0.47c-0.32-0.31-0.48-0.73-0.48-1.26V52.9c0-0.53,0.16-0.95,0.48-1.26
		c0.32-0.31,0.75-0.47,1.3-0.47s0.98,0.16,1.3,0.47c0.32,0.31,0.48,0.73,0.48,1.26v2.54c0,0.35-0.07,0.65-0.22,0.91
		c-0.15,0.26-0.35,0.46-0.62,0.6C86.87,57.1,86.56,57.18,86.2,57.18z M86.2,56.5c0.31,0,0.56-0.1,0.74-0.29
		c0.19-0.19,0.28-0.45,0.28-0.76V52.9c0-0.31-0.09-0.56-0.28-0.76c-0.19-0.19-0.43-0.29-0.74-0.29c-0.31,0-0.56,0.1-0.74,0.29
		c-0.19,0.19-0.28,0.45-0.28,0.76v2.54c0,0.31,0.09,0.56,0.28,0.76C85.64,56.4,85.89,56.5,86.2,56.5z M86.2,54.62
		c-0.15,0-0.27-0.04-0.36-0.12c-0.09-0.08-0.13-0.2-0.13-0.35s0.04-0.26,0.13-0.34c0.09-0.08,0.21-0.12,0.36-0.12
		s0.27,0.04,0.36,0.12c0.09,0.08,0.14,0.19,0.14,0.34s-0.05,0.27-0.14,0.35C86.46,54.58,86.34,54.62,86.2,54.62z"/>
</g>
<g>
	<path class="st2" d="M74.91,83.52V82.8h1.56v-4.41l-1.57,1.17v-0.9l1.33-0.98h1.03v5.12h1.28v0.72H74.91z"/>
	<path class="st2" d="M79.56,84.4l2.83-7.52h0.83L80.4,84.4H79.56z"/>
	<path class="st2" d="M84.51,83.52V82.8h1.56v-4.41l-1.57,1.17v-0.9l1.33-0.98h1.03v5.12h1.28v0.72H84.51z"/>
</g>
<g>
	<path class="st2" d="M50.68,83.28c-0.55,0-0.98-0.16-1.3-0.47c-0.32-0.31-0.48-0.73-0.48-1.26v-2.54c0-0.53,0.16-0.95,0.48-1.26
		c0.32-0.31,0.75-0.47,1.3-0.47s0.98,0.16,1.3,0.47c0.32,0.31,0.48,0.73,0.48,1.26v2.54c0,0.35-0.07,0.65-0.22,0.91
		c-0.15,0.26-0.35,0.46-0.62,0.6C51.36,83.21,51.04,83.28,50.68,83.28z M50.68,82.6c0.31,0,0.56-0.1,0.74-0.29
		c0.19-0.19,0.28-0.45,0.28-0.76v-2.54c0-0.31-0.09-0.56-0.28-0.76c-0.19-0.19-0.43-0.29-0.74-0.29c-0.31,0-0.56,0.1-0.74,0.29
		c-0.19,0.19-0.28,0.45-0.28,0.76v2.54c0,0.31,0.09,0.56,0.28,0.76C50.12,82.5,50.37,82.6,50.68,82.6z M50.68,80.73
		c-0.15,0-0.27-0.04-0.36-0.12c-0.09-0.08-0.13-0.2-0.13-0.35s0.04-0.26,0.13-0.34c0.09-0.08,0.21-0.12,0.36-0.12
		s0.27,0.04,0.36,0.12c0.09,0.08,0.14,0.19,0.14,0.34s-0.05,0.27-0.14,0.35C50.95,80.69,50.83,80.73,50.68,80.73z"/>
	<path class="st2" d="M53.65,84.08l2.83-7.52h0.83l-2.83,7.52H53.65z"/>
	<path class="st2" d="M58.59,83.2v-0.72h1.56v-4.41l-1.57,1.17v-0.9l1.33-0.98h1.03v5.12h1.28v0.72H58.59z"/>
</g>
<rect x="107.92" y="38.33" class="st1" width="59.01" height="59.01"/>
<rect x="140.53" y="70.87" class="st3" width="19.07" height="19.07"/>
<g>
	<path class="st2" d="M143.33,83.52V82.8h1.56v-4.41l-1.57,1.17v-0.9l1.33-0.98h1.03v5.12h1.28v0.72H143.33z"/>
	<path class="st2" d="M147.99,84.4l2.83-7.52h0.83l-2.83,7.52H147.99z"/>
	<path class="st2" d="M152.93,83.52V82.8h1.56v-4.41l-1.57,1.17v-0.9l1.33-0.98h1.03v5.12h1.28v0.72H152.93z"/>
</g>
<rect x="114.26" y="44.67" class="st0" width="19.07" height="19.07"/>
<rect x="140.53" y="44.67" class="st3" width="19.07" height="19.07"/>
<rect x="114.26" y="70.87" class="st0" width="19.07" height="19.07"/>
<g>
	<path class="st2" d="M119.11,57.18c-0.55,0-0.98-0.16-1.3-0.47c-0.32-0.31-0.48-0.73-0.48-1.26V52.9c0-0.53,0.16-0.95,0.48-1.26
		c0.32-0.31,0.75-0.47,1.3-0.47s0.98,0.16,1.3,0.47c0.32,0.31,0.48,0.73,0.48,1.26v2.54c0,0.35-0.07,0.65-0.22,0.91
		c-0.15,0.26-0.35,0.46-0.62,0.6C119.78,57.1,119.47,57.18,119.11,57.18z M119.11,56.5c0.31,0,0.56-0.1,0.74-0.29
		c0.19-0.19,0.28-0.45,0.28-0.76V52.9c0-0.31-0.09-0.56-0.28-0.76c-0.19-0.19-0.43-0.29-0.74-0.29c-0.31,0-0.56,0.1-0.74,0.29
		c-0.19,0.19-0.28,0.45-0.28,0.76v2.54c0,0.31,0.09,0.56,0.28,0.76C118.55,56.4,118.8,56.5,119.11,56.5z M119.11,54.62
		c-0.15,0-0.27-0.04-0.36-0.12c-0.09-0.08-0.13-0.2-0.13-0.35s0.04-0.26,0.13-0.34c0.09-0.08,0.21-0.12,0.36-0.12
		s0.27,0.04,0.36,0.12c0.09,0.08,0.14,0.19,0.14,0.34s-0.05,0.27-0.14,0.35C119.38,54.58,119.26,54.62,119.11,54.62z"/>
	<path class="st2" d="M122.07,57.98l2.83-7.52h0.83l-2.83,7.52H122.07z"/>
	<path class="st2" d="M128.71,57.18c-0.55,0-0.98-0.16-1.3-0.47c-0.32-0.31-0.48-0.73-0.48-1.26V52.9c0-0.53,0.16-0.95,0.48-1.26
		c0.32-0.31,0.75-0.47,1.3-0.47s0.98,0.16,1.3,0.47c0.32,0.31,0.48,0.73,0.48,1.26v2.54c0,0.35-0.07,0.65-0.22,0.91
		c-0.15,0.26-0.35,0.46-0.62,0.6C129.38,57.1,129.07,57.18,128.71,57.18z M128.71,56.5c0.31,0,0.56-0.1,0.74-0.29
		c0.19-0.19,0.28-0.45,0.28-0.76V52.9c0-0.31-0.09-0.56-0.28-0.76c-0.19-0.19-0.43-0.29-0.74-0.29c-0.31,0-0.56,0.1-0.74,0.29
		c-0.19,0.19-0.28,0.45-0.28,0.76v2.54c0,0.31,0.09,0.56,0.28,0.76C128.15,56.4,128.4,56.5,128.71,56.5z M128.71,54.62
		c-0.15,0-0.27-0.04-0.36-0.12c-0.09-0.08-0.13-0.2-0.13-0.35s0.04-0.26,0.13-0.34c0.09-0.08,0.21-0.12,0.36-0.12
		s0.27,0.04,0.36,0.12c0.09,0.08,0.14,0.19,0.14,0.34s-0.05,0.27-0.14,0.35C128.98,54.58,128.86,54.62,128.71,54.62z"/>
</g>
<g>
	<path class="st2" d="M143.33,57.1v-0.72h1.56v-4.41l-1.57,1.17v-0.9l1.33-0.98h1.03v5.12h1.28v0.72H143.33z"/>
	<path class="st2" d="M147.99,57.98l2.83-7.52h0.83l-2.83,7.52H147.99z"/>
	<path class="st2" d="M154.62,57.18c-0.55,0-0.98-0.16-1.3-0.47c-0.32-0.31-0.48-0.73-0.48-1.26V52.9c0-0.53,0.16-0.95,0.48-1.26
		c0.32-0.31,0.75-0.47,1.3-0.47s0.98,0.16,1.3,0.47c0.32,0.31,0.48,0.73,0.48,1.26v2.54c0,0.35-0.07,0.65-0.22,0.91
		c-0.15,0.26-0.35,0.46-0.62,0.6C155.3,57.1,154.98,57.18,154.62,57.18z M154.62,56.5c0.31,0,0.56-0.1,0.74-0.29
		c0.19-0.19,0.28-0.45,0.28-0.76V52.9c0-0.31-0.09-0.56-0.28-0.76c-0.19-0.19-0.43-0.29-0.74-0.29c-0.31,0-0.56,0.1-0.74,0.29
		c-0.19,0.19-0.28,0.45-0.28,0.76v2.54c0,0.31,0.09,0.56,0.28,0.76C154.06,56.4,154.31,56.5,154.62,56.5z M154.62,54.62
		c-0.15,0-0.27-0.04-0.36-0.12c-0.09-0.08-0.13-0.2-0.13-0.35s0.04-0.26,0.13-0.34c0.09-0.08,0.21-0.12,0.36-0.12
		s0.27,0.04,0.36,0.12c0.09,0.08,0.14,0.19,0.14,0.34s-0.05,0.27-0.14,0.35C154.89,54.58,154.77,54.62,154.62,54.62z"/>
</g>
<g>
	<path class="st2" d="M119.11,83.28c-0.55,0-0.98-0.16-1.3-0.47c-0.32-0.31-0.48-0.73-0.48-1.26v-2.54c0-0.53,0.16-0.95,0.48-1.26
		c0.32-0.31,0.75-0.47,1.3-0.47s0.98,0.16,1.3,0.47c0.32,0.31,0.48,0.73,0.48,1.26v2.54c0,0.35-0.07,0.65-0.22,0.91
		c-0.15,0.26-0.35,0.46-0.62,0.6C119.78,83.21,119.47,83.28,119.11,83.28z M119.11,82.6c0.31,0,0.56-0.1,0.74-0.29
		c0.19-0.19,0.28-0.45,0.28-0.76v-2.54c0-0.31-0.09-0.56-0.28-0.76c-0.19-0.19-0.43-0.29-0.74-0.29c-0.31,0-0.56,0.1-0.74,0.29
		c-0.19,0.19-0.28,0.45-0.28,0.76v2.54c0,0.31,0.09,0.56,0.28,0.76C118.55,82.5,118.8,82.6,119.11,82.6z M119.11,80.73
		c-0.15,0-0.27-0.04-0.36-0.12c-0.09-0.08-0.13-0.2-0.13-0.35s0.04-0.26,0.13-0.34c0.09-0.08,0.21-0.12,0.36-0.12
		s0.27,0.04,0.36,0.12c0.09,0.08,0.14,0.19,0.14,0.34s-0.05,0.27-0.14,0.35C119.38,80.69,119.26,80.73,119.11,80.73z"/>
	<path class="st2" d="M122.07,84.08l2.83-7.52h0.83l-2.83,7.52H122.07z"/>
	<path class="st2" d="M127.02,83.2v-0.72h1.56v-4.41l-1.57,1.17v-0.9l1.33-0.98h1.03v5.12h1.28v0.72H127.02z"/>
</g>
<rect x="177.7" y="38.33" class="st1" width="59.01" height="59.01"/>
<rect x="210.31" y="70.87" class="st0" width="19.07" height="19.07"/>
<g>
	<path class="st2" d="M213.12,83.52V82.8h1.56v-4.41l-1.57,1.17v-0.9l1.33-0.98h1.03v5.12h1.28v0.72H213.12z"/>
	<path class="st2" d="M217.78,84.4l2.83-7.52h0.83l-2.83,7.52H217.78z"/>
	<path class="st2" d="M222.72,83.52V82.8h1.56v-4.41l-1.57,1.17v-0.9l1.33-0.98h1.03v5.12h1.28v0.72H222.72z"/>
</g>
<g>
	<rect x="184.05" y="44.67" class="st0" width="19.07" height="19.07"/>
	<rect x="210.31" y="44.67" class="st0" width="19.07" height="19.07"/>
	<rect x="184.05" y="70.87" class="st0" width="19.07" height="19.07"/>
	<g>
		<path class="st2" d="M188.89,57.18c-0.55,0-0.98-0.16-1.3-0.47c-0.32-0.31-0.48-0.73-0.48-1.26V52.9c0-0.53,0.16-0.95,0.48-1.26
			c0.32-0.31,0.75-0.47,1.3-0.47s0.98,0.16,1.3,0.47c0.32,0.31,0.48,0.73,0.48,1.26v2.54c0,0.35-0.07,0.65-0.22,0.91
			c-0.15,0.26-0.35,0.46-0.62,0.6C189.57,57.1,189.26,57.18,188.89,57.18z M188.89,56.5c0.31,0,0.56-0.1,0.74-0.29
			c0.19-0.19,0.28-0.45,0.28-0.76V52.9c0-0.31-0.09-0.56-0.28-0.76c-0.19-0.19-0.43-0.29-0.74-0.29c-0.31,0-0.56,0.1-0.74,0.29
			c-0.19,0.19-0.28,0.45-0.28,0.76v2.54c0,0.31,0.09,0.56,0.28,0.76C188.34,56.4,188.58,56.5,188.89,56.5z M188.89,54.62
			c-0.15,0-0.27-0.04-0.36-0.12c-0.09-0.08-0.13-0.2-0.13-0.35s0.04-0.26,0.13-0.34c0.09-0.08,0.21-0.12,0.36-0.12
			s0.27,0.04,0.36,0.12c0.09,0.08,0.14,0.19,0.14,0.34s-0.05,0.27-0.14,0.35C189.16,54.58,189.04,54.62,188.89,54.62z"/>
		<path class="st2" d="M191.86,57.98l2.83-7.52h0.83l-2.83,7.52H191.86z"/>
		<path class="st2" d="M198.49,57.18c-0.55,0-0.98-0.16-1.3-0.47c-0.32-0.31-0.48-0.73-0.48-1.26V52.9c0-0.53,0.16-0.95,0.48-1.26
			c0.32-0.31,0.75-0.47,1.3-0.47s0.98,0.16,1.3,0.47c0.32,0.31,0.48,0.73,0.48,1.26v2.54c0,0.35-0.07,0.65-0.22,0.91
			c-0.15,0.26-0.35,0.46-0.62,0.6C199.17,57.1,198.86,57.18,198.49,57.18z M198.49,56.5c0.31,0,0.56-0.1,0.74-0.29
			c0.19-0.19,0.28-0.45,0.28-0.76V52.9c0-0.31-0.09-0.56-0.28-0.76c-0.19-0.19-0.43-0.29-0.74-0.29c-0.31,0-0.56,0.1-0.74,0.29
			c-0.19,0.19-0.28,0.45-0.28,0.76v2.54c0,0.31,0.09,0.56,0.28,0.76C197.94,56.4,198.18,56.5,198.49,56.5z M198.49,54.62
			c-0.15,0-0.27-0.04-0.36-0.12c-0.09-0.08-0.13-0.2-0.13-0.35s0.04-0.26,0.13-0.34c0.09-0.08,0.21-0.12,0.36-0.12
			s0.27,0.04,0.36,0.12c0.09,0.08,0.14,0.19,0.14,0.34s-0.05,0.27-0.14,0.35C198.76,54.58,198.64,54.62,198.49,54.62z"/>
	</g>
	<g>
		<path class="st2" d="M213.12,57.1v-0.72h1.56v-4.41l-1.57,1.17v-0.9l1.33-0.98h1.03v5.12h1.28v0.72H213.12z"/>
		<path class="st2" d="M217.78,57.98l2.83-7.52h0.83l-2.83,7.52H217.78z"/>
		<path class="st2" d="M224.41,57.18c-0.55,0-0.98-0.16-1.3-0.47c-0.32-0.31-0.48-0.73-0.48-1.26V52.9c0-0.53,0.16-0.95,0.48-1.26
			c0.32-0.31,0.75-0.47,1.3-0.47s0.98,0.16,1.3,0.47c0.32,0.31,0.48,0.73,0.48,1.26v2.54c0,0.35-0.07,0.65-0.22,0.91
			c-0.15,0.26-0.35,0.46-0.62,0.6C225.09,57.1,224.77,57.18,224.41,57.18z M224.41,56.5c0.31,0,0.56-0.1,0.74-0.29
			c0.19-0.19,0.28-0.45,0.28-0.76V52.9c0-0.31-0.09-0.56-0.28-0.76c-0.19-0.19-0.43-0.29-0.74-0.29c-0.31,0-0.56,0.1-0.74,0.29
			c-0.19,0.19-0.28,0.45-0.28,0.76v2.54c0,0.31,0.09,0.56,0.28,0.76C223.85,56.4,224.1,56.5,224.41,56.5z M224.41,54.62
			c-0.15,0-0.27-0.04-0.36-0.12c-0.09-0.08-0.13-0.2-0.13-0.35s0.04-0.26,0.13-0.34c0.09-0.08,0.21-0.12,0.36-0.12
			s0.27,0.04,0.36,0.12c0.09,0.08,0.14,0.19,0.14,0.34s-0.05,0.27-0.14,0.35C224.68,54.58,224.56,54.62,224.41,54.62z"/>
	</g>
	<g>
		<path class="st2" d="M188.89,83.28c-0.55,0-0.98-0.16-1.3-0.47c-0.32-0.31-0.48-0.73-0.48-1.26v-2.54c0-0.53,0.16-0.95,0.48-1.26
			c0.32-0.31,0.75-0.47,1.3-0.47s0.98,0.16,1.3,0.47c0.32,0.31,0.48,0.73,0.48,1.26v2.54c0,0.35-0.07,0.65-0.22,0.91
			c-0.15,0.26-0.35,0.46-0.62,0.6C189.57,83.21,189.26,83.28,188.89,83.28z M188.89,82.6c0.31,0,0.56-0.1,0.74-0.29
			c0.19-0.19,0.28-0.45,0.28-0.76v-2.54c0-0.31-0.09-0.56-0.28-0.76c-0.19-0.19-0.43-0.29-0.74-0.29c-0.31,0-0.56,0.1-0.74,0.29
			c-0.19,0.19-0.28,0.45-0.28,0.76v2.54c0,0.31,0.09,0.56,0.28,0.76C188.34,82.5,188.58,82.6,188.89,82.6z M188.89,80.73
			c-0.15,0-0.27-0.04-0.36-0.12c-0.09-0.08-0.13-0.2-0.13-0.35s0.04-0.26,0.13-0.34c0.09-0.08,0.21-0.12,0.36-0.12
			s0.27,0.04,0.36,0.12c0.09,0.08,0.14,0.19,0.14,0.34s-0.05,0.27-0.14,0.35C189.16,80.69,189.04,80.73,188.89,80.73z"/>
		<path class="st2" d="M191.86,84.08l2.83-7.52h0.83l-2.83,7.52H191.86z"/>
		<path class="st2" d="M196.8,83.2v-0.72h1.56v-4.41l-1.57,1.17v-0.9l1.33-0.98h1.03v5.12h1.28v0.72H196.8z"/>
	</g>
</g>
<rect x="45.83" y="112.42" class="st3" width="19.07" height="19.07"/>
<rect x="39.49" y="106.07" class="st1" width="59.01" height="59.01"/>
<rect x="72.1" y="112.42" class="st3" width="19.07" height="19.07"/>
<rect x="45.83" y="138.62" class="st0" width="19.07" height="19.07"/>
<rect x="72.1" y="138.62" class="st0" width="19.07" height="19.07"/>
<g>
	<path class="st2" d="M50.68,124.92c-0.55,0-0.98-0.16-1.3-0.47c-0.32-0.31-0.48-0.73-0.48-1.26v-2.54c0-0.53,0.16-0.95,0.48-1.26
		c0.32-0.31,0.75-0.47,1.3-0.47s0.98,0.16,1.3,0.47c0.32,0.31,0.48,0.73,0.48,1.26v2.54c0,0.35-0.07,0.65-0.22,0.91
		c-0.15,0.26-0.35,0.46-0.62,0.6C51.36,124.85,51.04,124.92,50.68,124.92z M50.68,124.24c0.31,0,0.56-0.1,0.74-0.29
		c0.19-0.19,0.28-0.45,0.28-0.76v-2.54c0-0.31-0.09-0.56-0.28-0.76c-0.19-0.19-0.43-0.29-0.74-0.29c-0.31,0-0.56,0.1-0.74,0.29
		c-0.19,0.19-0.28,0.45-0.28,0.76v2.54c0,0.31,0.09,0.56,0.28,0.76C50.12,124.14,50.37,124.24,50.68,124.24z M50.68,122.37
		c-0.15,0-0.27-0.04-0.36-0.12c-0.09-0.08-0.13-0.2-0.13-0.35s0.04-0.26,0.13-0.34c0.09-0.08,0.21-0.12,0.36-0.12
		s0.27,0.04,0.36,0.12c0.09,0.08,0.14,0.19,0.14,0.34s-0.05,0.27-0.14,0.35C50.95,122.33,50.83,122.37,50.68,122.37z"/>
	<path class="st2" d="M53.65,125.72l2.83-7.52h0.83l-2.83,7.52H53.65z"/>
	<path class="st2" d="M60.28,124.92c-0.55,0-0.98-0.16-1.3-0.47c-0.32-0.31-0.48-0.73-0.48-1.26v-2.54c0-0.53,0.16-0.95,0.48-1.26
		c0.32-0.31,0.75-0.47,1.3-0.47s0.98,0.16,1.3,0.47c0.32,0.31,0.48,0.73,0.48,1.26v2.54c0,0.35-0.07,0.65-0.22,0.91
		c-0.15,0.26-0.35,0.46-0.62,0.6C60.96,124.85,60.64,124.92,60.28,124.92z M60.28,124.24c0.31,0,0.56-0.1,0.74-0.29
		c0.19-0.19,0.28-0.45,0.28-0.76v-2.54c0-0.31-0.09-0.56-0.28-0.76c-0.19-0.19-0.43-0.29-0.74-0.29c-0.31,0-0.56,0.1-0.74,0.29
		c-0.19,0.19-0.28,0.45-0.28,0.76v2.54c0,0.31,0.09,0.56,0.28,0.76C59.72,124.14,59.97,124.24,60.28,124.24z M60.28,122.37
		c-0.15,0-0.27-0.04-0.36-0.12c-0.09-0.08-0.13-0.2-0.13-0.35s0.04-0.26,0.13-0.34c0.09-0.08,0.21-0.12,0.36-0.12
		s0.27,0.04,0.36,0.12c0.09,0.08,0.14,0.19,0.14,0.34s-0.05,0.27-0.14,0.35C60.55,122.33,60.43,122.37,60.28,122.37z"/>
</g>
<g>
	<path class="st2" d="M74.91,124.84v-0.72h1.56v-4.41l-1.57,1.17v-0.9l1.33-0.98h1.03v5.12h1.28v0.72H74.91z"/>
	<path class="st2" d="M79.56,125.72l2.83-7.52h0.83l-2.83,7.52H79.56z"/>
	<path class="st2" d="M86.2,124.92c-0.55,0-0.98-0.16-1.3-0.47c-0.32-0.31-0.48-0.73-0.48-1.26v-2.54c0-0.53,0.16-0.95,0.48-1.26
		c0.32-0.31,0.75-0.47,1.3-0.47s0.98,0.16,1.3,0.47c0.32,0.31,0.48,0.73,0.48,1.26v2.54c0,0.35-0.07,0.65-0.22,0.91
		c-0.15,0.26-0.35,0.46-0.62,0.6C86.87,124.85,86.56,124.92,86.2,124.92z M86.2,124.24c0.31,0,0.56-0.1,0.74-0.29
		c0.19-0.19,0.28-0.45,0.28-0.76v-2.54c0-0.31-0.09-0.56-0.28-0.76c-0.19-0.19-0.43-0.29-0.74-0.29c-0.31,0-0.56,0.1-0.74,0.29
		c-0.19,0.19-0.28,0.45-0.28,0.76v2.54c0,0.31,0.09,0.56,0.28,0.76C85.64,124.14,85.89,124.24,86.2,124.24z M86.2,122.37
		c-0.15,0-0.27-0.04-0.36-0.12c-0.09-0.08-0.13-0.2-0.13-0.35s0.04-0.26,0.13-0.34c0.09-0.08,0.21-0.12,0.36-0.12
		s0.27,0.04,0.36,0.12c0.09,0.08,0.14,0.19,0.14,0.34s-0.05,0.27-0.14,0.35C86.46,122.33,86.34,122.37,86.2,122.37z"/>
</g>
<g>
	<path class="st2" d="M74.91,151.27v-0.72h1.56v-4.41l-1.57,1.17v-0.9l1.33-0.98h1.03v5.12h1.28v0.72H74.91z"/>
	<path class="st2" d="M79.56,152.15l2.83-7.52h0.83l-2.83,7.52H79.56z"/>
	<path class="st2" d="M84.51,151.27v-0.72h1.56v-4.41l-1.57,1.17v-0.9l1.33-0.98h1.03v5.12h1.28v0.72H84.51z"/>
</g>
<g>
	<path class="st2" d="M50.68,151.03c-0.55,0-0.98-0.16-1.3-0.47c-0.32-0.31-0.48-0.73-0.48-1.26v-2.54c0-0.53,0.16-0.95,0.48-1.26
		c0.32-0.31,0.75-0.47,1.3-0.47s0.98,0.16,1.3,0.47c0.32,0.31,0.48,0.73,0.48,1.26v2.54c0,0.35-0.07,0.65-0.22,0.91
		c-0.15,0.26-0.35,0.46-0.62,0.6C51.36,150.95,51.04,151.03,50.68,151.03z M50.68,150.35c0.31,0,0.56-0.1,0.74-0.29
		c0.19-0.19,0.28-0.45,0.28-0.76v-2.54c0-0.31-0.09-0.56-0.28-0.76c-0.19-0.19-0.43-0.29-0.74-0.29c-0.31,0-0.56,0.1-0.74,0.29
		c-0.19,0.19-0.28,0.45-0.28,0.76v2.54c0,0.31,0.09,0.56,0.28,0.76C50.12,150.25,50.37,150.35,50.68,150.35z M50.68,148.47
		c-0.15,0-0.27-0.04-0.36-0.12c-0.09-0.08-0.13-0.2-0.13-0.35s0.04-0.26,0.13-0.34c0.09-0.08,0.21-0.12,0.36-0.12
		s0.27,0.04,0.36,0.12c0.09,0.08,0.14,0.19,0.14,0.34s-0.05,0.27-0.14,0.35C50.95,148.43,50.83,148.47,50.68,148.47z"/>
	<path class="st2" d="M53.65,151.83l2.83-7.52h0.83l-2.83,7.52H53.65z"/>
	<path class="st2" d="M58.59,150.95v-0.72h1.56v-4.41l-1.57,1.17v-0.9l1.33-0.98h1.03v5.12h1.28v0.72H58.59z"/>
</g>
<rect x="107.92" y="106.07" class="st1" width="59.01" height="59.01"/>
<rect x="140.53" y="138.62" class="st3" width="19.07" height="19.07"/>
<g>
	<path class="st2" d="M143.33,151.27v-0.72h1.56v-4.41l-1.57,1.17v-0.9l1.33-0.98h1.03v5.12h1.28v0.72H143.33z"/>
	<path class="st2" d="M147.99,152.15l2.83-7.52h0.83l-2.83,7.52H147.99z"/>
	<path class="st2" d="M152.93,151.27v-0.72h1.56v-4.41l-1.57,1.17v-0.9l1.33-0.98h1.03v5.12h1.28v0.72H152.93z"/>
</g>
<rect x="114.26" y="112.42" class="st3" width="19.07" height="19.07"/>
<rect x="140.53" y="112.42" class="st4" width="19.07" height="19.07"/>
<rect x="114.26" y="138.62" class="st0" width="19.07" height="19.07"/>
<g>
	<path class="st2" d="M119.11,124.92c-0.55,0-0.98-0.16-1.3-0.47c-0.32-0.31-0.48-0.73-0.48-1.26v-2.54c0-0.53,0.16-0.95,0.48-1.26
		c0.32-0.31,0.75-0.47,1.3-0.47s0.98,0.16,1.3,0.47c0.32,0.31,0.48,0.73,0.48,1.26v2.54c0,0.35-0.07,0.65-0.22,0.91
		c-0.15,0.26-0.35,0.46-0.62,0.6C119.78,124.85,119.47,124.92,119.11,124.92z M119.11,124.24c0.31,0,0.56-0.1,0.74-0.29
		c0.19-0.19,0.28-0.45,0.28-0.76v-2.54c0-0.31-0.09-0.56-0.28-0.76c-0.19-0.19-0.43-0.29-0.74-0.29c-0.31,0-0.56,0.1-0.74,0.29
		c-0.19,0.19-0.28,0.45-0.28,0.76v2.54c0,0.31,0.09,0.56,0.28,0.76C118.55,124.14,118.8,124.24,119.11,124.24z M119.11,122.37
		c-0.15,0-0.27-0.04-0.36-0.12c-0.09-0.08-0.13-0.2-0.13-0.35s0.04-0.26,0.13-0.34c0.09-0.08,0.21-0.12,0.36-0.12
		s0.27,0.04,0.36,0.12c0.09,0.08,0.14,0.19,0.14,0.34s-0.05,0.27-0.14,0.35C119.38,122.33,119.26,122.37,119.11,122.37z"/>
	<path class="st2" d="M122.07,125.72l2.83-7.52h0.83l-2.83,7.52H122.07z"/>
	<path class="st2" d="M128.71,124.92c-0.55,0-0.98-0.16-1.3-0.47c-0.32-0.31-0.48-0.73-0.48-1.26v-2.54c0-0.53,0.16-0.95,0.48-1.26
		c0.32-0.31,0.75-0.47,1.3-0.47s0.98,0.16,1.3,0.47c0.32,0.31,0.48,0.73,0.48,1.26v2.54c0,0.35-0.07,0.65-0.22,0.91
		c-0.15,0.26-0.35,0.46-0.62,0.6C129.38,124.85,129.07,124.92,128.71,124.92z M128.71,124.24c0.31,0,0.56-0.1,0.74-0.29
		c0.19-0.19,0.28-0.45,0.28-0.76v-2.54c0-0.31-0.09-0.56-0.28-0.76c-0.19-0.19-0.43-0.29-0.74-0.29c-0.31,0-0.56,0.1-0.74,0.29
		c-0.19,0.19-0.28,0.45-0.28,0.76v2.54c0,0.31,0.09,0.56,0.28,0.76C128.15,124.14,128.4,124.24,128.71,124.24z M128.71,122.37
		c-0.15,0-0.27-0.04-0.36-0.12c-0.09-0.08-0.13-0.2-0.13-0.35s0.04-0.26,0.13-0.34c0.09-0.08,0.21-0.12,0.36-0.12
		s0.27,0.04,0.36,0.12c0.09,0.08,0.14,0.19,0.14,0.34s-0.05,0.27-0.14,0.35C128.98,122.33,128.86,122.37,128.71,122.37z"/>
</g>
<g>
	<path class="st5" d="M143.33,124.84v-0.72h1.56v-4.41l-1.57,1.17v-0.9l1.33-0.98h1.03v5.12h1.28v0.72H143.33z"/>
	<path class="st5" d="M147.99,125.72l2.83-7.52h0.83l-2.83,7.52H147.99z"/>
	<path class="st5" d="M154.62,124.92c-0.55,0-0.98-0.16-1.3-0.47c-0.32-0.31-0.48-0.73-0.48-1.26v-2.54c0-0.53,0.16-0.95,0.48-1.26
		c0.32-0.31,0.75-0.47,1.3-0.47s0.98,0.16,1.3,0.47c0.32,0.31,0.48,0.73,0.48,1.26v2.54c0,0.35-0.07,0.65-0.22,0.91
		c-0.15,0.26-0.35,0.46-0.62,0.6C155.3,124.85,154.98,124.92,154.62,124.92z M154.62,124.24c0.31,0,0.56-0.1,0.74-0.29
		c0.19-0.19,0.28-0.45,0.28-0.76v-2.54c0-0.31-0.09-0.56-0.28-0.76c-0.19-0.19-0.43-0.29-0.74-0.29c-0.31,0-0.56,0.1-0.74,0.29
		c-0.19,0.19-0.28,0.45-0.28,0.76v2.54c0,0.31,0.09,0.56,0.28,0.76C154.06,124.14,154.31,124.24,154.62,124.24z M154.62,122.37
		c-0.15,0-0.27-0.04-0.36-0.12c-0.09-0.08-0.13-0.2-0.13-0.35s0.04-0.26,0.13-0.34c0.09-0.08,0.21-0.12,0.36-0.12
		s0.27,0.04,0.36,0.12c0.09,0.08,0.14,0.19,0.14,0.34s-0.05,0.27-0.14,0.35C154.89,122.33,154.77,122.37,154.62,122.37z"/>
</g>
<g>
	<path class="st2" d="M119.11,151.03c-0.55,0-0.98-0.16-1.3-0.47c-0.32-0.31-0.48-0.73-0.48-1.26v-2.54c0-0.53,0.16-0.95,0.48-1.26
		c0.32-0.31,0.75-0.47,1.3-0.47s0.98,0.16,1.3,0.47c0.32,0.31,0.48,0.73,0.48,1.26v2.54c0,0.35-0.07,0.65-0.22,0.91
		c-0.15,0.26-0.35,0.46-0.62,0.6C119.78,150.95,119.47,151.03,119.11,151.03z M119.11,150.35c0.31,0,0.56-0.1,0.74-0.29
		c0.19-0.19,0.28-0.45,0.28-0.76v-2.54c0-0.31-0.09-0.56-0.28-0.76c-0.19-0.19-0.43-0.29-0.74-0.29c-0.31,0-0.56,0.1-0.74,0.29
		c-0.19,0.19-0.28,0.45-0.28,0.76v2.54c0,0.31,0.09,0.56,0.28,0.76C118.55,150.25,118.8,150.35,119.11,150.35z M119.11,148.47
		c-0.15,0-0.27-0.04-0.36-0.12c-0.09-0.08-0.13-0.2-0.13-0.35s0.04-0.26,0.13-0.34c0.09-0.08,0.21-0.12,0.36-0.12
		s0.27,0.04,0.36,0.12c0.09,0.08,0.14,0.19,0.14,0.34s-0.05,0.27-0.14,0.35C119.38,148.43,119.26,148.47,119.11,148.47z"/>
	<path class="st2" d="M122.07,151.83l2.83-7.52h0.83l-2.83,7.52H122.07z"/>
	<path class="st2" d="M127.02,150.95v-0.72h1.56v-4.41l-1.57,1.17v-0.9l1.33-0.98h1.03v5.12h1.28v0.72H127.02z"/>
</g>
<rect x="177.7" y="106.07" class="st1" width="59.01" height="59.01"/>
<rect x="210.31" y="138.62" class="st0" width="19.07" height="19.07"/>
<g>
	<path class="st2" d="M213.12,151.27v-0.72h1.56v-4.41l-1.57,1.17v-0.9l1.33-0.98h1.03v5.12h1.28v0.72H213.12z"/>
	<path class="st2" d="M217.78,152.15l2.83-7.52h0.83l-2.83,7.52H217.78z"/>
	<path class="st2" d="M222.72,151.27v-0.72h1.56v-4.41l-1.57,1.17v-0.9l1.33-0.98h1.03v5.12h1.28v0.72H222.72z"/>
</g>
<rect x="184.05" y="112.42" class="st3" width="19.07" height="19.07"/>
<rect x="210.31" y="112.42" class="st3" width="19.07" height="19.07"/>
<rect x="184.05" y="138.62" class="st0" width="19.07" height="19.07"/>
<g>
	<path class="st2" d="M188.89,124.92c-0.55,0-0.98-0.16-1.3-0.47c-0.32-0.31-0.48-0.73-0.48-1.26v-2.54c0-0.53,0.16-0.95,0.48-1.26
		c0.32-0.31,0.75-0.47,1.3-0.47s0.98,0.16,1.3,0.47c0.32,0.31,0.48,0.73,0.48,1.26v2.54c0,0.35-0.07,0.65-0.22,0.91
		c-0.15,0.26-0.35,0.46-0.62,0.6C189.57,124.85,189.26,124.92,188.89,124.92z M188.89,124.24c0.31,0,0.56-0.1,0.74-0.29
		c0.19-0.19,0.28-0.45,0.28-0.76v-2.54c0-0.31-0.09-0.56-0.28-0.76c-0.19-0.19-0.43-0.29-0.74-0.29c-0.31,0-0.56,0.1-0.74,0.29
		c-0.19,0.19-0.28,0.45-0.28,0.76v2.54c0,0.31,0.09,0.56,0.28,0.76C188.34,124.14,188.58,124.24,188.89,124.24z M188.89,122.37
		c-0.15,0-0.27-0.04-0.36-0.12c-0.09-0.08-0.13-0.2-0.13-0.35s0.04-0.26,0.13-0.34c0.09-0.08,0.21-0.12,0.36-0.12
		s0.27,0.04,0.36,0.12c0.09,0.08,0.14,0.19,0.14,0.34s-0.05,0.27-0.14,0.35C189.16,122.33,189.04,122.37,188.89,122.37z"/>
	<path class="st2" d="M191.86,125.72l2.83-7.52h0.83l-2.83,7.52H191.86z"/>
	<path class="st2" d="M198.49,124.92c-0.55,0-0.98-0.16-1.3-0.47c-0.32-0.31-0.48-0.73-0.48-1.26v-2.54c0-0.53,0.16-0.95,0.48-1.26
		c0.32-0.31,0.75-0.47,1.3-0.47s0.98,0.16,1.3,0.47c0.32,0.31,0.48,0.73,0.48,1.26v2.54c0,0.35-0.07,0.65-0.22,0.91
		c-0.15,0.26-0.35,0.46-0.62,0.6C199.17,124.85,198.86,124.92,198.49,124.92z M198.49,124.24c0.31,0,0.56-0.1,0.74-0.29
		c0.19-0.19,0.28-0.45,0.28-0.76v-2.54c0-0.31-0.09-0.56-0.28-0.76c-0.19-0.19-0.43-0.29-0.74-0.29c-0.31,0-0.56,0.1-0.74,0.29
		c-0.19,0.19-0.28,0.45-0.28,0.76v2.54c0,0.31,0.09,0.56,0.28,0.76C197.94,124.14,198.18,124.24,198.49,124.24z M198.49,122.37
		c-0.15,0-0.27-0.04-0.36-0.12c-0.09-0.08-0.13-0.2-0.13-0.35s0.04-0.26,0.13-0.34c0.09-0.08,0.21-0.12,0.36-0.12
		s0.27,0.04,0.36,0.12c0.09,0.08,0.14,0.19,0.14,0.34s-0.05,0.27-0.14,0.35C198.76,122.33,198.64,122.37,198.49,122.37z"/>
</g>
<g>
	<path class="st2" d="M213.12,124.84v-0.72h1.56v-4.41l-1.57,1.17v-0.9l1.33-0.98h1.03v5.12h1.28v0.72H213.12z"/>
	<path class="st2" d="M217.78,125.72l2.83-7.52h0.83l-2.83,7.52H217.78z"/>
	<path class="st2" d="M224.41,124.92c-0.55,0-0.98-0.16-1.3-0.47c-0.32-0.31-0.48-0.73-0.48-1.26v-2.54c0-0.53,0.16-0.95,0.48-1.26
		c0.32-0.31,0.75-0.47,1.3-0.47s0.98,0.16,1.3,0.47c0.32,0.31,0.48,0.73,0.48,1.26v2.54c0,0.35-0.07,0.65-0.22,0.91
		c-0.15,0.26-0.35,0.46-0.62,0.6C225.09,124.85,224.77,124.92,224.41,124.92z M224.41,124.24c0.31,0,0.56-0.1,0.74-0.29
		c0.19-0.19,0.28-0.45,0.28-0.76v-2.54c0-0.31-0.09-0.56-0.28-0.76c-0.19-0.19-0.43-0.29-0.74-0.29c-0.31,0-0.56,0.1-0.74,0.29
		c-0.19,0.19-0.28,0.45-0.28,0.76v2.54c0,0.31,0.09,0.56,0.28,0.76C223.85,124.14,224.1,124.24,224.41,124.24z M224.41,122.37
		c-0.15,0-0.27-0.04-0.36-0.12c-0.09-0.08-0.13-0.2-0.13-0.35s0.04-0.26,0.13-0.34c0.09-0.08,0.21-0.12,0.36-0.12
		s0.27,0.04,0.36,0.12c0.09,0.08,0.14,0.19,0.14,0.34s-0.05,0.27-0.14,0.35C224.68,122.33,224.56,122.37,224.41,122.37z"/>
</g>
<g>
	<path class="st2" d="M188.89,151.03c-0.55,0-0.98-0.16-1.3-0.47c-0.32-0.31-0.48-0.73-0.48-1.26v-2.54c0-0.53,0.16-0.95,0.48-1.26
		c0.32-0.31,0.75-0.47,1.3-0.47s0.98,0.16,1.3,0.47c0.32,0.31,0.48,0.73,0.48,1.26v2.54c0,0.35-0.07,0.65-0.22,0.91
		c-0.15,0.26-0.35,0.46-0.62,0.6C189.57,150.95,189.26,151.03,188.89,151.03z M188.89,150.35c0.31,0,0.56-0.1,0.74-0.29
		c0.19-0.19,0.28-0.45,0.28-0.76v-2.54c0-0.31-0.09-0.56-0.28-0.76c-0.19-0.19-0.43-0.29-0.74-0.29c-0.31,0-0.56,0.1-0.74,0.29
		c-0.19,0.19-0.28,0.45-0.28,0.76v2.54c0,0.31,0.09,0.56,0.28,0.76C188.34,150.25,188.58,150.35,188.89,150.35z M188.89,148.47
		c-0.15,0-0.27-0.04-0.36-0.12c-0.09-0.08-0.13-0.2-0.13-0.35s0.04-0.26,0.13-0.34c0.09-0.08,0.21-0.12,0.36-0.12
		s0.27,0.04,0.36,0.12c0.09,0.08,0.14,0.19,0.14,0.34s-0.05,0.27-0.14,0.35C189.16,148.43,189.04,148.47,188.89,148.47z"/>
	<path class="st2" d="M191.86,151.83l2.83-7.52h0.83l-2.83,7.52H191.86z"/>
	<path class="st2" d="M196.8,150.95v-0.72h1.56v-4.41l-1.57,1.17v-0.9l1.33-0.98h1.03v5.12h1.28v0.72H196.8z"/>
</g>
<rect x="45.83" y="181.18" class="st0" width="19.07" height="19.07"/>
<rect x="39.49" y="174.84" class="st1" width="59.01" height="59.01"/>
<rect x="72.1" y="181.18" class="st0" width="19.07" height="19.07"/>
<rect x="45.83" y="207.38" class="st0" width="19.07" height="19.07"/>
<rect x="72.1" y="207.38" class="st0" width="19.07" height="19.07"/>
<g>
	<path class="st2" d="M50.68,193.69c-0.55,0-0.98-0.16-1.3-0.47c-0.32-0.31-0.48-0.73-0.48-1.26v-2.54c0-0.53,0.16-0.95,0.48-1.26
		c0.32-0.31,0.75-0.47,1.3-0.47s0.98,0.16,1.3,0.47c0.32,0.31,0.48,0.73,0.48,1.26v2.54c0,0.35-0.07,0.65-0.22,0.91
		c-0.15,0.26-0.35,0.46-0.62,0.6C51.36,193.61,51.04,193.69,50.68,193.69z M50.68,193.01c0.31,0,0.56-0.1,0.74-0.29
		c0.19-0.19,0.28-0.45,0.28-0.76v-2.54c0-0.31-0.09-0.56-0.28-0.76c-0.19-0.19-0.43-0.29-0.74-0.29c-0.31,0-0.56,0.1-0.74,0.29
		c-0.19,0.19-0.28,0.45-0.28,0.76v2.54c0,0.31,0.09,0.56,0.28,0.76C50.12,192.91,50.37,193.01,50.68,193.01z M50.68,191.13
		c-0.15,0-0.27-0.04-0.36-0.12c-0.09-0.08-0.13-0.2-0.13-0.35s0.04-0.26,0.13-0.34s0.21-0.12,0.36-0.12s0.27,0.04,0.36,0.12
		c0.09,0.08,0.14,0.19,0.14,0.34s-0.05,0.27-0.14,0.35C50.95,191.09,50.83,191.13,50.68,191.13z"/>
	<path class="st2" d="M53.65,194.49l2.83-7.52h0.83l-2.83,7.52H53.65z"/>
	<path class="st2" d="M60.28,193.69c-0.55,0-0.98-0.16-1.3-0.47c-0.32-0.31-0.48-0.73-0.48-1.26v-2.54c0-0.53,0.16-0.95,0.48-1.26
		c0.32-0.31,0.75-0.47,1.3-0.47s0.98,0.16,1.3,0.47c0.32,0.31,0.48,0.73,0.48,1.26v2.54c0,0.35-0.07,0.65-0.22,0.91
		c-0.15,0.26-0.35,0.46-0.62,0.6C60.96,193.61,60.64,193.69,60.28,193.69z M60.28,193.01c0.31,0,0.56-0.1,0.74-0.29
		c0.19-0.19,0.28-0.45,0.28-0.76v-2.54c0-0.31-0.09-0.56-0.28-0.76c-0.19-0.19-0.43-0.29-0.74-0.29c-0.31,0-0.56,0.1-0.74,0.29
		c-0.19,0.19-0.28,0.45-0.28,0.76v2.54c0,0.31,0.09,0.56,0.28,0.76C59.72,192.91,59.97,193.01,60.28,193.01z M60.28,191.13
		c-0.15,0-0.27-0.04-0.36-0.12c-0.09-0.08-0.13-0.2-0.13-0.35s0.04-0.26,0.13-0.34s0.21-0.12,0.36-0.12s0.27,0.04,0.36,0.12
		c0.09,0.08,0.14,0.19,0.14,0.34s-0.05,0.27-0.14,0.35C60.55,191.09,60.43,191.13,60.28,191.13z"/>
</g>
<g>
	<path class="st2" d="M74.91,193.61v-0.72h1.56v-4.41l-1.57,1.17v-0.9l1.33-0.98h1.03v5.12h1.28v0.72H74.91z"/>
	<path class="st2" d="M79.56,194.49l2.83-7.52h0.83l-2.83,7.52H79.56z"/>
	<path class="st2" d="M86.2,193.69c-0.55,0-0.98-0.16-1.3-0.47c-0.32-0.31-0.48-0.73-0.48-1.26v-2.54c0-0.53,0.16-0.95,0.48-1.26
		c0.32-0.31,0.75-0.47,1.3-0.47s0.98,0.16,1.3,0.47c0.32,0.31,0.48,0.73,0.48,1.26v2.54c0,0.35-0.07,0.65-0.22,0.91
		c-0.15,0.26-0.35,0.46-0.62,0.6C86.87,193.61,86.56,193.69,86.2,193.69z M86.2,193.01c0.31,0,0.56-0.1,0.74-0.29
		c0.19-0.19,0.28-0.45,0.28-0.76v-2.54c0-0.31-0.09-0.56-0.28-0.76c-0.19-0.19-0.43-0.29-0.74-0.29c-0.31,0-0.56,0.1-0.74,0.29
		c-0.19,0.19-0.28,0.45-0.28,0.76v2.54c0,0.31,0.09,0.56,0.28,0.76C85.64,192.91,85.89,193.01,86.2,193.01z M86.2,191.13
		c-0.15,0-0.27-0.04-0.36-0.12c-0.09-0.08-0.13-0.2-0.13-0.35s0.04-0.26,0.13-0.34s0.21-0.12,0.36-0.12s0.27,0.04,0.36,0.12
		c0.09,0.08,0.14,0.19,0.14,0.34s-0.05,0.27-0.14,0.35C86.46,191.09,86.34,191.13,86.2,191.13z"/>
</g>
<g>
	<path class="st2" d="M74.91,220.03v-0.72h1.56v-4.41l-1.57,1.17v-0.9l1.33-0.98h1.03v5.12h1.28v0.72H74.91z"/>
	<path class="st2" d="M79.56,220.91l2.83-7.52h0.83l-2.83,7.52H79.56z"/>
	<path class="st2" d="M84.51,220.03v-0.72h1.56v-4.41l-1.57,1.17v-0.9l1.33-0.98h1.03v5.12h1.28v0.72H84.51z"/>
</g>
<g>
	<path class="st2" d="M50.68,219.79c-0.55,0-0.98-0.16-1.3-0.47c-0.32-0.31-0.48-0.73-0.48-1.26v-2.54c0-0.53,0.16-0.95,0.48-1.26
		c0.32-0.31,0.75-0.47,1.3-0.47s0.98,0.16,1.3,0.47c0.32,0.31,0.48,0.73,0.48,1.26v2.54c0,0.35-0.07,0.65-0.22,0.91
		c-0.15,0.26-0.35,0.46-0.62,0.6C51.36,219.72,51.04,219.79,50.68,219.79z M50.68,219.11c0.31,0,0.56-0.1,0.74-0.29
		c0.19-0.19,0.28-0.45,0.28-0.76v-2.54c0-0.31-0.09-0.56-0.28-0.76c-0.19-0.19-0.43-0.29-0.74-0.29c-0.31,0-0.56,0.1-0.74,0.29
		c-0.19,0.19-0.28,0.45-0.28,0.76v2.54c0,0.31,0.09,0.56,0.28,0.76C50.12,219.02,50.37,219.11,50.68,219.11z M50.68,217.24
		c-0.15,0-0.27-0.04-0.36-0.12c-0.09-0.08-0.13-0.2-0.13-0.35s0.04-0.26,0.13-0.34s0.21-0.12,0.36-0.12s0.27,0.04,0.36,0.12
		c0.09,0.08,0.14,0.19,0.14,0.34s-0.05,0.27-0.14,0.35C50.95,217.2,50.83,217.24,50.68,217.24z"/>
	<path class="st2" d="M53.65,220.59l2.83-7.52h0.83l-2.83,7.52H53.65z"/>
	<path class="st2" d="M58.59,219.71v-0.72h1.56v-4.41l-1.57,1.17v-0.9l1.33-0.98h1.03v5.12h1.28v0.72H58.59z"/>
</g>
<rect x="107.92" y="174.84" class="st1" width="59.01" height="59.01"/>
<rect x="140.53" y="207.38" class="st3" width="19.07" height="19.07"/>
<g>
	<path class="st2" d="M143.33,220.03v-0.72h1.56v-4.41l-1.57,1.17v-0.9l1.33-0.98h1.03v5.12h1.28v0.72H143.33z"/>
	<path class="st2" d="M147.99,220.91l2.83-7.52h0.83l-2.83,7.52H147.99z"/>
	<path class="st2" d="M152.93,220.03v-0.72h1.56v-4.41l-1.57,1.17v-0.9l1.33-0.98h1.03v5.12h1.28v0.72H152.93z"/>
</g>
<rect x="114.26" y="181.18" class="st0" width="19.07" height="19.07"/>
<rect x="140.53" y="181.18" class="st3" width="19.07" height="19.07"/>
<rect x="114.26" y="207.38" class="st0" width="19.07" height="19.07"/>
<g>
	<path class="st2" d="M119.11,193.69c-0.55,0-0.98-0.16-1.3-0.47c-0.32-0.31-0.48-0.73-0.48-1.26v-2.54c0-0.53,0.16-0.95,0.48-1.26
		c0.32-0.31,0.75-0.47,1.3-0.47s0.98,0.16,1.3,0.47c0.32,0.31,0.48,0.73,0.48,1.26v2.54c0,0.35-0.07,0.65-0.22,0.91
		c-0.15,0.26-0.35,0.46-0.62,0.6C119.78,193.61,119.47,193.69,119.11,193.69z M119.11,193.01c0.31,0,0.56-0.1,0.74-0.29
		c0.19-0.19,0.28-0.45,0.28-0.76v-2.54c0-0.31-0.09-0.56-0.28-0.76c-0.19-0.19-0.43-0.29-0.74-0.29c-0.31,0-0.56,0.1-0.74,0.29
		c-0.19,0.19-0.28,0.45-0.28,0.76v2.54c0,0.31,0.09,0.56,0.28,0.76C118.55,192.91,118.8,193.01,119.11,193.01z M119.11,191.13
		c-0.15,0-0.27-0.04-0.36-0.12c-0.09-0.08-0.13-0.2-0.13-0.35s0.04-0.26,0.13-0.34s0.21-0.12,0.36-0.12s0.27,0.04,0.36,0.12
		c0.09,0.08,0.14,0.19,0.14,0.34s-0.05,0.27-0.14,0.35C119.38,191.09,119.26,191.13,119.11,191.13z"/>
	<path class="st2" d="M122.07,194.49l2.83-7.52h0.83l-2.83,7.52H122.07z"/>
	<path class="st2" d="M128.71,193.69c-0.55,0-0.98-0.16-1.3-0.47c-0.32-0.31-0.48-0.73-0.48-1.26v-2.54c0-0.53,0.16-0.95,0.48-1.26
		c0.32-0.31,0.75-0.47,1.3-0.47s0.98,0.16,1.3,0.47c0.32,0.31,0.48,0.73,0.48,1.26v2.54c0,0.35-0.07,0.65-0.22,0.91
		c-0.15,0.26-0.35,0.46-0.62,0.6C129.38,193.61,129.07,193.69,128.71,193.69z M128.71,193.01c0.31,0,0.56-0.1,0.74-0.29
		c0.19-0.19,0.28-0.45,0.28-0.76v-2.54c0-0.31-0.09-0.56-0.28-0.76c-0.19-0.19-0.43-0.29-0.74-0.29c-0.31,0-0.56,0.1-0.74,0.29
		c-0.19,0.19-0.28,0.45-0.28,0.76v2.54c0,0.31,0.09,0.56,0.28,0.76C128.15,192.91,128.4,193.01,128.71,193.01z M128.71,191.13
		c-0.15,0-0.27-0.04-0.36-0.12c-0.09-0.08-0.13-0.2-0.13-0.35s0.04-0.26,0.13-0.34s0.21-0.12,0.36-0.12s0.27,0.04,0.36,0.12
		c0.09,0.08,0.14,0.19,0.14,0.34s-0.05,0.27-0.14,0.35C128.98,191.09,128.86,191.13,128.71,191.13z"/>
</g>
<g>
	<path class="st2" d="M143.33,193.61v-0.72h1.56v-4.41l-1.57,1.17v-0.9l1.33-0.98h1.03v5.12h1.28v0.72H143.33z"/>
	<path class="st2" d="M147.99,194.49l2.83-7.52h0.83l-2.83,7.52H147.99z"/>
	<path class="st2" d="M154.62,193.69c-0.55,0-0.98-0.16-1.3-0.47c-0.32-0.31-0.48-0.73-0.48-1.26v-2.54c0-0.53,0.16-0.95,0.48-1.26
		c0.32-0.31,0.75-0.47,1.3-0.47s0.98,0.16,1.3,0.47c0.32,0.31,0.48,0.73,0.48,1.26v2.54c0,0.35-0.07,0.65-0.22,0.91
		c-0.15,0.26-0.35,0.46-0.62,0.6C155.3,193.61,154.98,193.69,154.62,193.69z M154.62,193.01c0.31,0,0.56-0.1,0.74-0.29
		c0.19-0.19,0.28-0.45,0.28-0.76v-2.54c0-0.31-0.09-0.56-0.28-0.76c-0.19-0.19-0.43-0.29-0.74-0.29c-0.31,0-0.56,0.1-0.74,0.29
		c-0.19,0.19-0.28,0.45-0.28,0.76v2.54c0,0.31,0.09,0.56,0.28,0.76C154.06,192.91,154.31,193.01,154.62,193.01z M154.62,191.13
		c-0.15,0-0.27-0.04-0.36-0.12c-0.09-0.08-0.13-0.2-0.13-0.35s0.04-0.26,0.13-0.34s0.21-0.12,0.36-0.12s0.27,0.04,0.36,0.12
		c0.09,0.08,0.14,0.19,0.14,0.34s-0.05,0.27-0.14,0.35C154.89,191.09,154.77,191.13,154.62,191.13z"/>
</g>
<g>
	<path class="st2" d="M119.11,219.79c-0.55,0-0.98-0.16-1.3-0.47c-0.32-0.31-0.48-0.73-0.48-1.26v-2.54c0-0.53,0.16-0.95,0.48-1.26
		c0.32-0.31,0.75-0.47,1.3-0.47s0.98,0.16,1.3,0.47c0.32,0.31,0.48,0.73,0.48,1.26v2.54c0,0.35-0.07,0.65-0.22,0.91
		c-0.15,0.26-0.35,0.46-0.62,0.6C119.78,219.72,119.47,219.79,119.11,219.79z M119.11,219.11c0.31,0,0.56-0.1,0.74-0.29
		c0.19-0.19,0.28-0.45,0.28-0.76v-2.54c0-0.31-0.09-0.56-0.28-0.76c-0.19-0.19-0.43-0.29-0.74-0.29c-0.31,0-0.56,0.1-0.74,0.29
		c-0.19,0.19-0.28,0.45-0.28,0.76v2.54c0,0.31,0.09,0.56,0.28,0.76C118.55,219.02,118.8,219.11,119.11,219.11z M119.11,217.24
		c-0.15,0-0.27-0.04-0.36-0.12c-0.09-0.08-0.13-0.2-0.13-0.35s0.04-0.26,0.13-0.34s0.21-0.12,0.36-0.12s0.27,0.04,0.36,0.12
		c0.09,0.08,0.14,0.19,0.14,0.34s-0.05,0.27-0.14,0.35C119.38,217.2,119.26,217.24,119.11,217.24z"/>
	<path class="st2" d="M122.07,220.59l2.83-7.52h0.83l-2.83,7.52H122.07z"/>
	<path class="st2" d="M127.02,219.71v-0.72h1.56v-4.41l-1.57,1.17v-0.9l1.33-0.98h1.03v5.12h1.28v0.72H127.02z"/>
</g>
<rect x="177.7" y="174.84" class="st1" width="59.01" height="59.01"/>
<rect x="210.31" y="207.38" class="st0" width="19.07" height="19.07"/>
<g>
	<path class="st2" d="M213.12,220.03v-0.72h1.56v-4.41l-1.57,1.17v-0.9l1.33-0.98h1.03v5.12h1.28v0.72H213.12z"/>
	<path class="st2" d="M217.78,220.91l2.83-7.52h0.83l-2.83,7.52H217.78z"/>
	<path class="st2" d="M222.72,220.03v-0.72h1.56v-4.41l-1.57,1.17v-0.9l1.33-0.98h1.03v5.12h1.28v0.72H222.72z"/>
</g>
<g>
	<rect x="184.05" y="181.18" class="st0" width="19.07" height="19.07"/>
	<rect x="210.31" y="181.18" class="st0" width="19.07" height="19.07"/>
	<rect x="184.05" y="207.38" class="st0" width="19.07" height="19.07"/>
	<g>
		<path class="st2" d="M188.89,193.69c-0.55,0-0.98-0.16-1.3-0.47c-0.32-0.31-0.48-0.73-0.48-1.26v-2.54c0-0.53,0.16-0.95,0.48-1.26
			c0.32-0.31,0.75-0.47,1.3-0.47s0.98,0.16,1.3,0.47c0.32,0.31,0.48,0.73,0.48,1.26v2.54c0,0.35-0.07,0.65-0.22,0.91
			c-0.15,0.26-0.35,0.46-0.62,0.6C189.57,193.61,189.26,193.69,188.89,193.69z M188.89,193.01c0.31,0,0.56-0.1,0.74-0.29
			c0.19-0.19,0.28-0.45,0.28-0.76v-2.54c0-0.31-0.09-0.56-0.28-0.76c-0.19-0.19-0.43-0.29-0.74-0.29c-0.31,0-0.56,0.1-0.74,0.29
			c-0.19,0.19-0.28,0.45-0.28,0.76v2.54c0,0.31,0.09,0.56,0.28,0.76C188.34,192.91,188.58,193.01,188.89,193.01z M188.89,191.13
			c-0.15,0-0.27-0.04-0.36-0.12c-0.09-0.08-0.13-0.2-0.13-0.35s0.04-0.26,0.13-0.34s0.21-0.12,0.36-0.12s0.27,0.04,0.36,0.12
			c0.09,0.08,0.14,0.19,0.14,0.34s-0.05,0.27-0.14,0.35C189.16,191.09,189.04,191.13,188.89,191.13z"/>
		<path class="st2" d="M191.86,194.49l2.83-7.52h0.83l-2.83,7.52H191.86z"/>
		<path class="st2" d="M198.49,193.69c-0.55,0-0.98-0.16-1.3-0.47c-0.32-0.31-0.48-0.73-0.48-1.26v-2.54c0-0.53,0.16-0.95,0.48-1.26
			c0.32-0.31,0.75-0.47,1.3-0.47s0.98,0.16,1.3,0.47c0.32,0.31,0.48,0.73,0.48,1.26v2.54c0,0.35-0.07,0.65-0.22,0.91
			c-0.15,0.26-0.35,0.46-0.62,0.6C199.17,193.61,198.86,193.69,198.49,193.69z M198.49,193.01c0.31,0,0.56-0.1,0.74-0.29
			c0.19-0.19,0.28-0.45,0.28-0.76v-2.54c0-0.31-0.09-0.56-0.28-0.76c-0.19-0.19-0.43-0.29-0.74-0.29c-0.31,0-0.56,0.1-0.74,0.29
			c-0.19,0.19-0.28,0.45-0.28,0.76v2.54c0,0.31,0.09,0.56,0.28,0.76C197.94,192.91,198.18,193.01,198.49,193.01z M198.49,191.13
			c-0.15,0-0.27-0.04-0.36-0.12c-0.09-0.08-0.13-0.2-0.13-0.35s0.04-0.26,0.13-0.34s0.21-0.12,0.36-0.12s0.27,0.04,0.36,0.12
			c0.09,0.08,0.14,0.19,0.14,0.34s-0.05,0.27-0.14,0.35C198.76,191.09,198.64,191.13,198.49,191.13z"/>
	</g>
	<g>
		<path class="st2" d="M213.12,193.61v-0.72h1.56v-4.41l-1.57,1.17v-0.9l1.33-0.98h1.03v5.12h1.28v0.72H213.12z"/>
		<path class="st2" d="M217.78,194.49l2.83-7.52h0.83l-2.83,7.52H217.78z"/>
		<path class="st2" d="M224.41,193.69c-0.55,0-0.98-0.16-1.3-0.47c-0.32-0.31-0.48-0.73-0.48-1.26v-2.54c0-0.53,0.16-0.95,0.48-1.26
			c0.32-0.31,0.75-0.47,1.3-0.47s0.98,0.16,1.3,0.47c0.32,0.31,0.48,0.73,0.48,1.26v2.54c0,0.35-0.07,0.65-0.22,0.91
			c-0.15,0.26-0.35,0.46-0.62,0.6C225.09,193.61,224.77,193.69,224.41,193.69z M224.41,193.01c0.31,0,0.56-0.1,0.74-0.29
			c0.19-0.19,0.28-0.45,0.28-0.76v-2.54c0-0.31-0.09-0.56-0.28-0.76c-0.19-0.19-0.43-0.29-0.74-0.29c-0.31,0-0.56,0.1-0.74,0.29
			c-0.19,0.19-0.28,0.45-0.28,0.76v2.54c0,0.31,0.09,0.56,0.28,0.76C223.85,192.91,224.1,193.01,224.41,193.01z M224.41,191.13
			c-0.15,0-0.27-0.04-0.36-0.12c-0.09-0.08-0.13-0.2-0.13-0.35s0.04-0.26,0.13-0.34s0.21-0.12,0.36-0.12s0.27,0.04,0.36,0.12
			c0.09,0.08,0.14,0.19,0.14,0.34s-0.05,0.27-0.14,0.35C224.68,191.09,224.56,191.13,224.41,191.13z"/>
	</g>
	<g>
		<path class="st2" d="M188.89,219.79c-0.55,0-0.98-0.16-1.3-0.47c-0.32-0.31-0.48-0.73-0.48-1.26v-2.54c0-0.53,0.16-0.95,0.48-1.26
			c0.32-0.31,0.75-0.47,1.3-0.47s0.98,0.16,1.3,0.47c0.32,0.31,0.48,0.73,0.48,1.26v2.54c0,0.35-0.07,0.65-0.22,0.91
			c-0.15,0.26-0.35,0.46-0.62,0.6C189.57,219.72,189.26,219.79,188.89,219.79z M188.89,219.11c0.31,0,0.56-0.1,0.74-0.29
			c0.19-0.19,0.28-0.45,0.28-0.76v-2.54c0-0.31-0.09-0.56-0.28-0.76c-0.19-0.19-0.43-0.29-0.74-0.29c-0.31,0-0.56,0.1-0.74,0.29
			c-0.19,0.19-0.28,0.45-0.28,0.76v2.54c0,0.31,0.09,0.56,0.28,0.76C188.34,219.02,188.58,219.11,188.89,219.11z M188.89,217.24
			c-0.15,0-0.27-0.04-0.36-0.12c-0.09-0.08-0.13-0.2-0.13-0.35s0.04-0.26,0.13-0.34s0.21-0.12,0.36-0.12s0.27,0.04,0.36,0.12
			c0.09,0.08,0.14,0.19,0.14,0.34s-0.05,0.27-0.14,0.35C189.16,217.2,189.04,217.24,188.89,217.24z"/>
		<path class="st2" d="M191.86,220.59l2.83-7.52h0.83l-2.83,7.52H191.86z"/>
		<path class="st2" d="M196.8,219.71v-0.72h1.56v-4.41l-1.57,1.17v-0.9l1.33-0.98h1.03v5.12h1.28v0.72H196.8z"/>
	</g>
</g>
<g>
	<path class="st6" d="M42.52,12.02c-0.34,0-0.62-0.09-0.86-0.26c-0.24-0.17-0.41-0.42-0.52-0.74v0.91H39.8V5.22h1.38V6.6l-0.04,1.16
		c0.11-0.31,0.28-0.55,0.52-0.72s0.52-0.25,0.86-0.25c0.49,0,0.88,0.18,1.19,0.54c0.3,0.36,0.45,0.84,0.45,1.44v1.29
		c0,0.6-0.15,1.08-0.45,1.44C43.41,11.84,43.01,12.02,42.52,12.02z M41.99,10.82c0.25,0,0.45-0.07,0.58-0.22s0.21-0.35,0.21-0.61
		V8.8c0-0.27-0.07-0.47-0.21-0.62c-0.14-0.14-0.33-0.21-0.58-0.21c-0.26,0-0.46,0.08-0.6,0.23c-0.14,0.15-0.21,0.37-0.21,0.65v1.1
		c0,0.28,0.07,0.5,0.21,0.65C41.53,10.75,41.73,10.82,41.99,10.82z"/>
	<path class="st6" d="M48.34,11.93c-0.36,0-0.67-0.07-0.94-0.23c-0.27-0.15-0.48-0.36-0.63-0.63c-0.15-0.27-0.23-0.58-0.23-0.94
		V6.46h-1.61V5.22h2.99v4.87c0,0.18,0.05,0.32,0.15,0.43s0.23,0.17,0.4,0.17h1.42v1.24H48.34z"/>
	<path class="st6" d="M52.98,12.02c-0.45,0-0.84-0.08-1.17-0.25c-0.33-0.17-0.59-0.4-0.77-0.71S50.77,10.4,50.77,10V8.8
		c0-0.4,0.09-0.76,0.27-1.06c0.18-0.3,0.44-0.54,0.77-0.71c0.33-0.17,0.72-0.25,1.17-0.25c0.45,0,0.84,0.08,1.17,0.25
		s0.58,0.4,0.76,0.71c0.18,0.3,0.27,0.66,0.27,1.06V10c0,0.4-0.09,0.76-0.27,1.06s-0.44,0.54-0.76,0.71S53.43,12.02,52.98,12.02z
		 M52.98,10.82c0.27,0,0.47-0.07,0.62-0.22c0.14-0.14,0.21-0.35,0.21-0.61V8.8c0-0.27-0.07-0.47-0.21-0.62
		c-0.14-0.14-0.35-0.21-0.62-0.21c-0.26,0-0.47,0.07-0.61,0.21c-0.14,0.14-0.22,0.35-0.22,0.62V10c0,0.26,0.07,0.47,0.22,0.61
		C52.51,10.75,52.72,10.82,52.98,10.82z"/>
	<path class="st6" d="M58.57,12.02c-0.45,0-0.84-0.08-1.18-0.25s-0.6-0.4-0.78-0.71c-0.18-0.3-0.28-0.66-0.28-1.06V8.8
		c0-0.41,0.09-0.77,0.28-1.07c0.18-0.3,0.44-0.53,0.78-0.7s0.73-0.25,1.18-0.25c0.67,0,1.2,0.17,1.6,0.51
		c0.4,0.34,0.61,0.8,0.63,1.38h-1.34c-0.02-0.21-0.11-0.38-0.27-0.51c-0.16-0.12-0.37-0.18-0.62-0.18c-0.28,0-0.49,0.07-0.63,0.21
		c-0.15,0.14-0.22,0.35-0.22,0.62V10c0,0.26,0.07,0.47,0.22,0.61s0.36,0.22,0.63,0.22c0.25,0,0.46-0.06,0.62-0.18
		c0.16-0.12,0.25-0.29,0.27-0.51h1.34c-0.02,0.58-0.24,1.04-0.63,1.38C59.78,11.85,59.24,12.02,58.57,12.02z"/>
	<path class="st6" d="M61.9,11.93V5.22h1.38v3.56h0.7l1.06-1.91h1.52l-1.41,2.47l1.43,2.58h-1.54l-1.07-1.98h-0.69v1.98H61.9z"/>
	<path class="st6" d="M67.5,11.93v-1.24h1.33V6.46H67.5V5.22h4.04v1.24h-1.33v4.23h1.33v1.24H67.5z"/>
	<path class="st6" d="M74.46,12.02c-0.48,0-0.88-0.18-1.18-0.54c-0.3-0.36-0.45-0.84-0.45-1.44V8.76c0-0.6,0.15-1.08,0.45-1.44
		c0.3-0.36,0.7-0.54,1.18-0.54c0.34,0,0.62,0.08,0.86,0.25c0.24,0.17,0.41,0.41,0.52,0.72L75.8,6.6V5.22h1.38v6.71h-1.33v-0.91
		c-0.11,0.32-0.29,0.56-0.52,0.74C75.08,11.93,74.8,12.02,74.46,12.02z M74.99,10.82c0.26,0,0.46-0.07,0.6-0.23
		c0.14-0.15,0.21-0.37,0.21-0.65v-1.1c0-0.28-0.07-0.5-0.21-0.65s-0.34-0.23-0.6-0.23c-0.25,0-0.45,0.07-0.58,0.21
		C74.27,8.33,74.2,8.53,74.2,8.8V10c0,0.26,0.07,0.47,0.21,0.61S74.74,10.82,74.99,10.82z"/>
	<path class="st6" d="M78.02,11.93l1.75-2.62l-1.63-2.43h1.53l0.62,1.01c0.05,0.08,0.09,0.17,0.14,0.27c0.04,0.1,0.08,0.18,0.1,0.24
		c0.02-0.06,0.06-0.14,0.1-0.24c0.04-0.1,0.09-0.19,0.14-0.27l0.62-1.01h1.53l-1.62,2.43l1.74,2.62h-1.53l-0.73-1.19
		c-0.05-0.09-0.1-0.18-0.14-0.27c-0.05-0.1-0.08-0.17-0.11-0.23c-0.02,0.06-0.06,0.14-0.1,0.23c-0.04,0.09-0.09,0.19-0.14,0.27
		l-0.74,1.19H78.02z"/>
	<path class="st6" d="M86.05,12.02c-0.28,0-0.5-0.09-0.67-0.26s-0.26-0.4-0.26-0.67c0-0.28,0.09-0.5,0.26-0.67s0.4-0.26,0.67-0.26
		c0.28,0,0.5,0.09,0.67,0.26c0.17,0.17,0.26,0.4,0.26,0.67c0,0.28-0.09,0.5-0.26,0.67C86.55,11.93,86.33,12.02,86.05,12.02z"/>
	<path class="st6" d="M89.05,11.93l1.75-2.62l-1.63-2.43h1.53l0.62,1.01c0.05,0.08,0.09,0.17,0.14,0.27c0.04,0.1,0.08,0.18,0.1,0.24
		c0.02-0.06,0.06-0.14,0.1-0.24c0.04-0.1,0.09-0.19,0.14-0.27l0.62-1.01h1.53l-1.62,2.43l1.74,2.62h-1.53l-0.73-1.19
		c-0.05-0.09-0.1-0.18-0.14-0.27c-0.05-0.1-0.08-0.17-0.11-0.23c-0.02,0.06-0.06,0.14-0.1,0.23c-0.04,0.09-0.09,0.19-0.14,0.27
		l-0.74,1.19H89.05z"/>
	<path d="M101.56,11.05l-0.85-0.6l0.67-0.95c0.09-0.13,0.18-0.24,0.27-0.32c0.09-0.09,0.18-0.17,0.28-0.25
		c-0.13-0.01-0.25-0.03-0.37-0.05s-0.24-0.06-0.37-0.11l-1.08-0.4l0.36-0.98l1.08,0.4c0.13,0.05,0.24,0.1,0.35,0.16
		c0.1,0.06,0.21,0.12,0.31,0.2c-0.04-0.12-0.08-0.25-0.1-0.38c-0.02-0.13-0.04-0.28-0.04-0.46V6.23h1.05v1.09
		c0,0.18-0.01,0.33-0.04,0.46c-0.02,0.13-0.06,0.25-0.1,0.38c0.1-0.07,0.21-0.14,0.31-0.2c0.1-0.06,0.22-0.11,0.35-0.16l1.08-0.4
		l0.36,0.98L104,8.78c-0.13,0.05-0.25,0.08-0.37,0.11c-0.12,0.02-0.24,0.04-0.37,0.05c0.1,0.08,0.2,0.16,0.28,0.25
		c0.09,0.09,0.17,0.19,0.27,0.32l0.67,0.95l-0.85,0.6l-0.68-0.94c-0.09-0.12-0.15-0.24-0.21-0.35c-0.05-0.11-0.1-0.23-0.14-0.35
		c-0.04,0.12-0.09,0.24-0.14,0.35c-0.05,0.11-0.12,0.23-0.21,0.35L101.56,11.05z"/>
	<path class="st7" d="M114.19,12.02c-0.34,0-0.62-0.09-0.86-0.26c-0.24-0.17-0.41-0.42-0.52-0.74v0.91h-1.33V5.22h1.38V6.6
		l-0.04,1.16c0.11-0.31,0.28-0.55,0.52-0.72s0.52-0.25,0.86-0.25c0.49,0,0.88,0.18,1.19,0.54c0.3,0.36,0.45,0.84,0.45,1.44v1.29
		c0,0.6-0.15,1.08-0.45,1.44C115.07,11.84,114.68,12.02,114.19,12.02z M113.65,10.82c0.25,0,0.45-0.07,0.58-0.22
		s0.21-0.35,0.21-0.61V8.8c0-0.27-0.07-0.47-0.21-0.62c-0.14-0.14-0.33-0.21-0.58-0.21c-0.26,0-0.46,0.08-0.6,0.23
		c-0.14,0.15-0.21,0.37-0.21,0.65v1.1c0,0.28,0.07,0.5,0.21,0.65C113.19,10.75,113.39,10.82,113.65,10.82z"/>
	<path class="st7" d="M120,11.93c-0.36,0-0.67-0.07-0.94-0.23c-0.27-0.15-0.48-0.36-0.63-0.63c-0.15-0.27-0.23-0.58-0.23-0.94V6.46
		h-1.61V5.22h2.99v4.87c0,0.18,0.05,0.32,0.15,0.43s0.23,0.17,0.4,0.17h1.42v1.24H120z"/>
	<path class="st7" d="M124.64,12.02c-0.45,0-0.84-0.08-1.17-0.25c-0.33-0.17-0.59-0.4-0.77-0.71s-0.27-0.66-0.27-1.06V8.8
		c0-0.4,0.09-0.76,0.27-1.06c0.18-0.3,0.44-0.54,0.77-0.71c0.33-0.17,0.72-0.25,1.17-0.25c0.45,0,0.84,0.08,1.17,0.25
		s0.58,0.4,0.76,0.71c0.18,0.3,0.27,0.66,0.27,1.06V10c0,0.4-0.09,0.76-0.27,1.06s-0.44,0.54-0.76,0.71S125.1,12.02,124.64,12.02z
		 M124.64,10.82c0.27,0,0.47-0.07,0.62-0.22c0.14-0.14,0.21-0.35,0.21-0.61V8.8c0-0.27-0.07-0.47-0.21-0.62
		c-0.14-0.14-0.35-0.21-0.62-0.21c-0.26,0-0.47,0.07-0.61,0.21c-0.14,0.14-0.22,0.35-0.22,0.62V10c0,0.26,0.07,0.47,0.22,0.61
		C124.18,10.75,124.38,10.82,124.64,10.82z"/>
	<path class="st7" d="M130.24,12.02c-0.45,0-0.84-0.08-1.18-0.25s-0.6-0.4-0.78-0.71c-0.18-0.3-0.28-0.66-0.28-1.06V8.8
		c0-0.41,0.09-0.77,0.28-1.07c0.18-0.3,0.44-0.53,0.78-0.7s0.73-0.25,1.18-0.25c0.67,0,1.2,0.17,1.6,0.51
		c0.4,0.34,0.61,0.8,0.63,1.38h-1.34c-0.02-0.21-0.11-0.38-0.27-0.51c-0.16-0.12-0.37-0.18-0.62-0.18c-0.28,0-0.49,0.07-0.63,0.21
		c-0.15,0.14-0.22,0.35-0.22,0.62V10c0,0.26,0.07,0.47,0.22,0.61s0.36,0.22,0.63,0.22c0.25,0,0.46-0.06,0.62-0.18
		c0.16-0.12,0.25-0.29,0.27-0.51h1.34c-0.02,0.58-0.24,1.04-0.63,1.38C131.44,11.85,130.91,12.02,130.24,12.02z"/>
	<path class="st7" d="M133.56,11.93V5.22h1.38v3.56h0.7l1.06-1.91h1.52l-1.41,2.47l1.43,2.58h-1.54l-1.07-1.98h-0.69v1.98H133.56z"
		/>
	<path class="st7" d="M139,11.93V5.22h2.18c0.47,0,0.87,0.09,1.22,0.27s0.62,0.43,0.81,0.75c0.19,0.32,0.29,0.7,0.29,1.13v2.4
		c0,0.43-0.1,0.81-0.29,1.13s-0.46,0.58-0.81,0.76s-0.75,0.27-1.22,0.27H139z M140.38,10.68h0.8c0.28,0,0.5-0.09,0.68-0.26
		c0.17-0.17,0.26-0.39,0.26-0.66v-2.4c0-0.27-0.09-0.49-0.26-0.66c-0.17-0.17-0.4-0.25-0.68-0.25h-0.8V10.68z"/>
	<path class="st7" d="M144.58,11.93v-1.24h1.67V8.11h-1.49V6.87h2.87v3.81h1.45v1.24H144.58z M146.88,6.07
		c-0.25,0-0.45-0.06-0.6-0.19c-0.15-0.13-0.23-0.3-0.23-0.52c0-0.22,0.07-0.4,0.23-0.52c0.15-0.13,0.35-0.19,0.6-0.19
		c0.25,0,0.45,0.06,0.6,0.19c0.15,0.13,0.23,0.3,0.23,0.52c0,0.22-0.08,0.4-0.23,0.52C147.33,6.01,147.13,6.07,146.88,6.07z"/>
	<path class="st7" d="M149.8,11.93V6.87h1.13v0.78h0.02c0.02-0.26,0.1-0.47,0.26-0.63c0.15-0.16,0.35-0.24,0.59-0.24
		c0.22,0,0.41,0.08,0.57,0.23c0.16,0.16,0.27,0.36,0.32,0.61c0.02-0.26,0.11-0.46,0.27-0.62c0.16-0.15,0.36-0.23,0.6-0.23
		c0.3,0,0.55,0.12,0.76,0.36c0.21,0.24,0.31,0.55,0.31,0.93v3.86h-1.19v-3.7c0-0.29-0.12-0.44-0.35-0.44
		c-0.22,0-0.33,0.15-0.33,0.44v3.7h-1.08v-3.7c0-0.29-0.11-0.44-0.33-0.44c-0.23,0-0.35,0.15-0.35,0.44v3.7H149.8z"/>
	<path class="st7" d="M157.72,12.02c-0.28,0-0.5-0.09-0.67-0.26s-0.26-0.4-0.26-0.67c0-0.28,0.09-0.5,0.26-0.67s0.4-0.26,0.67-0.26
		c0.28,0,0.5,0.09,0.67,0.26c0.17,0.17,0.26,0.4,0.26,0.67c0,0.28-0.09,0.5-0.26,0.67C158.22,11.93,157.99,12.02,157.72,12.02z"/>
	<path class="st7" d="M160.71,11.93l1.75-2.62l-1.63-2.43h1.53l0.62,1.01c0.05,0.08,0.09,0.17,0.14,0.27
		c0.04,0.1,0.08,0.18,0.1,0.24c0.02-0.06,0.06-0.14,0.1-0.24c0.04-0.1,0.09-0.19,0.14-0.27l0.62-1.01h1.53l-1.62,2.43l1.74,2.62
		h-1.53l-0.73-1.19c-0.05-0.09-0.1-0.18-0.14-0.27c-0.05-0.1-0.08-0.17-0.11-0.23c-0.02,0.06-0.06,0.14-0.1,0.23
		c-0.04,0.09-0.09,0.19-0.14,0.27l-0.74,1.19H160.71z"/>
	<path d="M173.57,11.1V9.54h-1.56V8.25h1.56V6.69h1.38v1.56h1.56v1.29h-1.56v1.56H173.57z"/>
	<path class="st8" d="M185.79,11.93c-0.51,0-0.92-0.15-1.21-0.44s-0.44-0.7-0.44-1.21V8.11h-1.36V6.87h1.36V5.45h1.38v1.42h1.98
		v1.24h-1.98v2.11c0,0.13,0.04,0.25,0.11,0.33c0.07,0.09,0.17,0.13,0.31,0.13h1.52v1.24H185.79z"/>
	<path class="st8" d="M188.64,11.93V5.22h1.38v1.65l-0.05,0.91c0.08-0.31,0.24-0.55,0.48-0.73s0.53-0.27,0.88-0.27
		c0.49,0,0.88,0.17,1.18,0.51c0.3,0.34,0.45,0.8,0.45,1.37v3.26h-1.38V8.8c0-0.26-0.07-0.47-0.21-0.61s-0.33-0.22-0.57-0.22
		c-0.25,0-0.44,0.07-0.57,0.22c-0.14,0.14-0.21,0.35-0.21,0.61v3.12H188.64z"/>
	<path class="st8" d="M194.34,11.93V6.87h1.33v0.96c0.07-0.32,0.23-0.58,0.48-0.77c0.25-0.19,0.56-0.28,0.93-0.28
		c0.51,0,0.91,0.17,1.19,0.51c0.29,0.34,0.43,0.81,0.43,1.42v0.51h-1.38V8.8c0-0.26-0.07-0.47-0.21-0.61
		c-0.14-0.14-0.34-0.22-0.6-0.22c-0.26,0-0.46,0.08-0.6,0.24c-0.14,0.16-0.21,0.39-0.21,0.69v3.01H194.34z"/>
	<path class="st8" d="M201.83,12.02c-0.45,0-0.84-0.08-1.17-0.25c-0.33-0.17-0.59-0.4-0.77-0.71s-0.27-0.66-0.27-1.06V8.8
		c0-0.4,0.09-0.76,0.27-1.06c0.18-0.3,0.44-0.54,0.77-0.71c0.33-0.17,0.72-0.25,1.17-0.25c0.45,0,0.83,0.08,1.16,0.25
		s0.58,0.4,0.76,0.71c0.18,0.3,0.27,0.66,0.27,1.06v0.94h-3.1V10c0,0.32,0.07,0.55,0.23,0.7c0.15,0.15,0.38,0.22,0.68,0.22
		c0.2,0,0.37-0.03,0.51-0.09c0.15-0.06,0.23-0.15,0.26-0.28h1.35c-0.1,0.44-0.34,0.8-0.73,1.07S202.37,12.02,201.83,12.02z
		 M200.93,8.8v0.12l1.78-0.02V8.78c0-0.31-0.07-0.55-0.22-0.73c-0.14-0.17-0.37-0.26-0.67-0.26c-0.3,0-0.53,0.09-0.68,0.27
		C201,8.24,200.93,8.49,200.93,8.8z"/>
	<path class="st8" d="M206.68,12.02c-0.5,0-0.9-0.15-1.19-0.44c-0.29-0.29-0.44-0.67-0.44-1.14c0-0.51,0.18-0.91,0.54-1.2
		s0.87-0.44,1.52-0.44h0.99V8.47c0-0.19-0.07-0.34-0.2-0.45c-0.13-0.11-0.32-0.16-0.56-0.16c-0.23,0-0.42,0.05-0.56,0.14
		c-0.14,0.09-0.21,0.23-0.23,0.4h-1.3c0.02-0.5,0.21-0.89,0.59-1.19c0.37-0.29,0.88-0.44,1.52-0.44c0.67,0,1.19,0.15,1.56,0.46
		c0.37,0.31,0.56,0.73,0.56,1.29v3.4h-1.33v-0.87c-0.06,0.3-0.22,0.54-0.48,0.71C207.41,11.93,207.08,12.02,206.68,12.02z
		 M207.17,10.91c0.29,0,0.52-0.07,0.68-0.22s0.25-0.33,0.25-0.56V9.62h-0.96c-0.25,0-0.43,0.06-0.56,0.18
		c-0.13,0.12-0.2,0.27-0.2,0.46c0,0.19,0.07,0.35,0.21,0.47C206.72,10.85,206.91,10.91,207.17,10.91z"/>
	<path class="st8" d="M212.27,12.02c-0.48,0-0.88-0.18-1.18-0.54c-0.3-0.36-0.45-0.84-0.45-1.44V8.76c0-0.6,0.15-1.08,0.45-1.44
		c0.3-0.36,0.7-0.54,1.18-0.54c0.34,0,0.62,0.08,0.86,0.25c0.24,0.17,0.41,0.41,0.52,0.72l-0.04-1.16V5.22h1.38v6.71h-1.33v-0.91
		c-0.11,0.32-0.29,0.56-0.52,0.74C212.9,11.93,212.61,12.02,212.27,12.02z M212.81,10.82c0.26,0,0.46-0.07,0.6-0.23
		c0.14-0.15,0.21-0.37,0.21-0.65v-1.1c0-0.28-0.07-0.5-0.21-0.65s-0.34-0.23-0.6-0.23c-0.25,0-0.45,0.07-0.58,0.21
		c-0.14,0.14-0.21,0.35-0.21,0.62V10c0,0.26,0.07,0.47,0.21,0.61S212.56,10.82,212.81,10.82z"/>
	<path class="st8" d="M216.34,11.93v-1.24h1.33V6.46h-1.33V5.22h4.04v1.24h-1.33v4.23h1.33v1.24H216.34z"/>
	<path class="st8" d="M223.3,12.02c-0.48,0-0.88-0.18-1.18-0.54c-0.3-0.36-0.45-0.84-0.45-1.44V8.76c0-0.6,0.15-1.08,0.45-1.44
		c0.3-0.36,0.7-0.54,1.18-0.54c0.34,0,0.62,0.08,0.86,0.25c0.24,0.17,0.41,0.41,0.52,0.72l-0.04-1.16V5.22h1.38v6.71h-1.33v-0.91
		c-0.11,0.32-0.29,0.56-0.52,0.74C223.92,11.93,223.64,12.02,223.3,12.02z M223.83,10.82c0.26,0,0.46-0.07,0.6-0.23
		c0.14-0.15,0.21-0.37,0.21-0.65v-1.1c0-0.28-0.07-0.5-0.21-0.65s-0.34-0.23-0.6-0.23c-0.25,0-0.45,0.07-0.58,0.21
		c-0.14,0.14-0.21,0.35-0.21,0.62V10c0,0.26,0.07,0.47,0.21,0.61S223.58,10.82,223.83,10.82z"/>
	<path class="st8" d="M229.38,12.02c-0.28,0-0.5-0.09-0.67-0.26s-0.26-0.4-0.26-0.67c0-0.28,0.09-0.5,0.26-0.67s0.4-0.26,0.67-0.26
		c0.28,0,0.5,0.09,0.67,0.26c0.17,0.17,0.26,0.4,0.26,0.67c0,0.28-0.09,0.5-0.26,0.67C229.88,11.93,229.66,12.02,229.38,12.02z"/>
	<path class="st8" d="M232.38,11.93l1.75-2.62l-1.63-2.43h1.53l0.62,1.01c0.05,0.08,0.09,0.17,0.14,0.27
		c0.04,0.1,0.08,0.18,0.1,0.24c0.02-0.06,0.06-0.14,0.1-0.24c0.04-0.1,0.09-0.19,0.14-0.27l0.62-1.01h1.53l-1.62,2.43l1.74,2.62
		h-1.53l-0.73-1.19c-0.05-0.09-0.1-0.18-0.14-0.27c-0.05-0.1-0.08-0.17-0.11-0.23c-0.02,0.06-0.06,0.14-0.1,0.23
		c-0.04,0.09-0.09,0.19-0.14,0.27l-0.74,1.19H232.38z"/>
</g>
<g>
	<path class="st9" d="M42.48,32.05c-0.45,0-0.84-0.08-1.17-0.25c-0.33-0.17-0.59-0.4-0.77-0.71s-0.27-0.66-0.27-1.06v-2.85
		c0-0.4,0.09-0.76,0.27-1.06s0.44-0.54,0.77-0.71c0.33-0.17,0.72-0.25,1.17-0.25c0.45,0,0.84,0.08,1.17,0.25s0.58,0.4,0.76,0.71
		s0.27,0.66,0.27,1.06v2.85c0,0.4-0.09,0.76-0.27,1.06s-0.44,0.54-0.76,0.71S42.93,32.05,42.48,32.05z M42.48,30.85
		c0.29,0,0.51-0.07,0.68-0.22c0.16-0.15,0.24-0.35,0.24-0.61v-2.85c0-0.26-0.08-0.46-0.24-0.61c-0.16-0.15-0.39-0.22-0.68-0.22
		c-0.29,0-0.51,0.07-0.68,0.22c-0.16,0.15-0.24,0.35-0.24,0.61v2.85c0,0.26,0.08,0.46,0.25,0.61C41.97,30.78,42.2,30.85,42.48,30.85
		z M42.48,29.19c-0.19,0-0.34-0.05-0.46-0.16c-0.12-0.11-0.18-0.26-0.18-0.45c0-0.2,0.06-0.34,0.18-0.45
		c0.12-0.1,0.27-0.15,0.46-0.15c0.2,0,0.35,0.05,0.47,0.15c0.12,0.1,0.17,0.25,0.17,0.45c0,0.2-0.06,0.35-0.17,0.45
		C42.83,29.14,42.67,29.19,42.48,29.19z"/>
	<path d="M52.47,31.08l-0.85-0.6l0.67-0.95c0.09-0.13,0.18-0.24,0.27-0.32c0.09-0.09,0.18-0.17,0.28-0.25
		c-0.13-0.01-0.25-0.03-0.37-0.05s-0.24-0.06-0.37-0.11l-1.08-0.4l0.36-0.98l1.08,0.4c0.13,0.05,0.24,0.1,0.35,0.16
		c0.1,0.06,0.21,0.12,0.31,0.2c-0.04-0.12-0.08-0.25-0.1-0.38c-0.02-0.13-0.04-0.28-0.04-0.46v-1.09h1.05v1.09
		c0,0.18-0.01,0.33-0.04,0.46c-0.02,0.13-0.06,0.25-0.1,0.38c0.1-0.07,0.21-0.14,0.31-0.2s0.22-0.11,0.35-0.16l1.08-0.4l0.36,0.98
		l-1.07,0.4c-0.13,0.05-0.25,0.08-0.37,0.11c-0.12,0.02-0.24,0.04-0.37,0.05c0.1,0.08,0.2,0.16,0.28,0.25
		c0.09,0.09,0.17,0.19,0.27,0.32l0.67,0.95l-0.85,0.6l-0.68-0.94c-0.09-0.12-0.15-0.24-0.21-0.35c-0.05-0.11-0.1-0.23-0.14-0.35
		c-0.04,0.12-0.09,0.24-0.14,0.35c-0.05,0.11-0.12,0.23-0.21,0.35L52.47,31.08z"/>
	<path class="st7" d="M62.37,31.96v-1.23l2.54-2.53c0.26-0.26,0.39-0.57,0.39-0.93c0-0.25-0.08-0.46-0.23-0.62
		c-0.15-0.17-0.35-0.25-0.59-0.25c-0.25,0-0.46,0.09-0.61,0.26c-0.16,0.17-0.23,0.39-0.23,0.66h-1.38c0-0.43,0.1-0.8,0.29-1.13
		c0.19-0.32,0.46-0.57,0.8-0.76c0.34-0.18,0.73-0.28,1.18-0.28c0.44,0,0.81,0.08,1.14,0.25s0.58,0.4,0.76,0.71s0.28,0.65,0.28,1.05
		c0,0.35-0.08,0.7-0.23,1.03c-0.15,0.33-0.4,0.66-0.74,0.99l-1.6,1.53h2.65v1.24H62.37z"/>
</g>
<g>
	<path class="st9" d="M108.54,31.96v-1.24h1.69v-4.07l-1.71,1.23v-1.52l1.57-1.1h1.52v5.47h1.34v1.24H108.54z"/>
	<path d="M120.56,31.08l-0.85-0.6l0.67-0.95c0.09-0.13,0.18-0.24,0.27-0.32c0.09-0.09,0.18-0.17,0.28-0.25
		c-0.13-0.01-0.25-0.03-0.37-0.05s-0.24-0.06-0.37-0.11l-1.08-0.4l0.36-0.98l1.08,0.4c0.13,0.05,0.24,0.1,0.35,0.16
		c0.1,0.06,0.21,0.12,0.31,0.2c-0.04-0.12-0.08-0.25-0.1-0.38c-0.02-0.13-0.04-0.28-0.04-0.46v-1.09h1.05v1.09
		c0,0.18-0.01,0.33-0.04,0.46c-0.02,0.13-0.06,0.25-0.1,0.38c0.1-0.07,0.21-0.14,0.31-0.2s0.22-0.11,0.35-0.16l1.08-0.4l0.36,0.98
		l-1.07,0.4c-0.13,0.05-0.25,0.08-0.37,0.11c-0.12,0.02-0.24,0.04-0.37,0.05c0.1,0.08,0.2,0.16,0.28,0.25
		c0.09,0.09,0.17,0.19,0.27,0.32l0.67,0.95l-0.85,0.6l-0.68-0.94c-0.09-0.12-0.15-0.24-0.21-0.35c-0.05-0.11-0.1-0.23-0.14-0.35
		c-0.04,0.12-0.09,0.24-0.14,0.35c-0.05,0.11-0.12,0.23-0.21,0.35L120.56,31.08z"/>
	<path class="st7" d="M130.45,31.96v-1.23L133,28.2c0.26-0.26,0.39-0.57,0.39-0.93c0-0.25-0.08-0.46-0.23-0.62
		c-0.15-0.17-0.35-0.25-0.59-0.25c-0.25,0-0.46,0.09-0.61,0.26c-0.16,0.17-0.23,0.39-0.23,0.66h-1.38c0-0.43,0.1-0.8,0.29-1.13
		c0.19-0.32,0.46-0.57,0.8-0.76c0.34-0.18,0.73-0.28,1.18-0.28c0.44,0,0.81,0.08,1.14,0.25s0.58,0.4,0.76,0.71s0.28,0.65,0.28,1.05
		c0,0.35-0.08,0.7-0.23,1.03c-0.15,0.33-0.4,0.66-0.74,0.99l-1.6,1.53h2.65v1.24H130.45z"/>
	<path class="st10" d="M142.95,31.13v-1.56h-1.56v-1.29h1.56v-1.56h1.38v1.56h1.56v1.29h-1.56v1.56H142.95z"/>
	<path class="st8" d="M152.64,31.96v-1.24h1.69v-4.07l-1.71,1.23v-1.52l1.57-1.1h1.52v5.47h1.34v1.24H152.64z"/>
</g>
<g>
	<path class="st9" d="M178.08,31.96v-1.23l2.54-2.53c0.26-0.26,0.39-0.57,0.39-0.93c0-0.25-0.08-0.46-0.23-0.62
		c-0.15-0.17-0.35-0.25-0.59-0.25c-0.25,0-0.46,0.09-0.61,0.26c-0.16,0.17-0.23,0.39-0.23,0.66h-1.38c0-0.43,0.1-0.8,0.29-1.13
		c0.19-0.32,0.46-0.57,0.8-0.76c0.34-0.18,0.73-0.28,1.18-0.28c0.44,0,0.81,0.08,1.14,0.25s0.58,0.4,0.76,0.71s0.28,0.65,0.28,1.05
		c0,0.35-0.08,0.7-0.23,1.03c-0.15,0.33-0.4,0.66-0.74,0.99l-1.6,1.53h2.65v1.24H178.08z"/>
	<path d="M190.24,31.08l-0.85-0.6l0.67-0.95c0.09-0.13,0.18-0.24,0.27-0.32c0.09-0.09,0.18-0.17,0.28-0.25
		c-0.13-0.01-0.25-0.03-0.37-0.05s-0.24-0.06-0.37-0.11l-1.08-0.4l0.36-0.98l1.08,0.4c0.13,0.05,0.24,0.1,0.35,0.16
		c0.1,0.06,0.21,0.12,0.31,0.2c-0.04-0.12-0.08-0.25-0.1-0.38c-0.02-0.13-0.04-0.28-0.04-0.46v-1.09h1.05v1.09
		c0,0.18-0.01,0.33-0.04,0.46c-0.02,0.13-0.06,0.25-0.1,0.38c0.1-0.07,0.21-0.14,0.31-0.2s0.22-0.11,0.35-0.16l1.08-0.4l0.36,0.98
		l-1.07,0.4c-0.13,0.05-0.25,0.08-0.37,0.11c-0.12,0.02-0.24,0.04-0.37,0.05c0.1,0.08,0.2,0.16,0.28,0.25
		c0.09,0.09,0.17,0.19,0.27,0.32l0.67,0.95l-0.85,0.6l-0.68-0.94c-0.09-0.12-0.15-0.24-0.21-0.35c-0.05-0.11-0.1-0.23-0.14-0.35
		c-0.04,0.12-0.09,0.24-0.14,0.35c-0.05,0.11-0.12,0.23-0.21,0.35L190.24,31.08z"/>
	<path class="st7" d="M200.13,31.96v-1.23l2.54-2.53c0.26-0.26,0.39-0.57,0.39-0.93c0-0.25-0.08-0.46-0.23-0.62
		c-0.15-0.17-0.35-0.25-0.59-0.25c-0.25,0-0.46,0.09-0.61,0.26c-0.16,0.17-0.23,0.39-0.23,0.66h-1.38c0-0.43,0.1-0.8,0.29-1.13
		c0.19-0.32,0.46-0.57,0.8-0.76c0.34-0.18,0.73-0.28,1.18-0.28c0.44,0,0.81,0.08,1.14,0.25s0.58,0.4,0.76,0.71s0.28,0.65,0.28,1.05
		c0,0.35-0.08,0.7-0.23,1.03c-0.15,0.33-0.4,0.66-0.74,0.99l-1.6,1.53h2.65v1.24H200.13z"/>
</g>
<g>
	<path class="st6" d="M12.06,231.83c0,0.34-0.09,0.62-0.26,0.86c-0.17,0.24-0.42,0.41-0.74,0.52h0.91v1.33H5.26v-1.38h1.38
		l1.16,0.04c-0.31-0.11-0.55-0.28-0.72-0.52s-0.25-0.52-0.25-0.86c0-0.49,0.18-0.88,0.54-1.19c0.36-0.3,0.84-0.45,1.44-0.45h1.29
		c0.6,0,1.08,0.15,1.44,0.45C11.88,230.94,12.06,231.34,12.06,231.83z M10.87,232.36c0-0.25-0.07-0.45-0.22-0.58
		c-0.14-0.14-0.35-0.21-0.61-0.21H8.84c-0.27,0-0.47,0.07-0.62,0.21c-0.14,0.14-0.21,0.33-0.21,0.58c0,0.26,0.08,0.46,0.23,0.6
		c0.15,0.14,0.37,0.21,0.65,0.21h1.1c0.28,0,0.5-0.07,0.65-0.21C10.79,232.83,10.87,232.62,10.87,232.36z"/>
	<path class="st6" d="M11.97,226.01c0,0.36-0.07,0.67-0.23,0.94c-0.15,0.27-0.36,0.48-0.63,0.63c-0.27,0.15-0.58,0.23-0.94,0.23H6.5
		v1.61H5.26v-2.99h4.87c0.18,0,0.32-0.05,0.43-0.15s0.17-0.23,0.17-0.4v-1.42h1.24V226.01z"/>
	<path class="st6" d="M12.06,221.37c0,0.45-0.08,0.84-0.25,1.17c-0.17,0.33-0.4,0.59-0.71,0.77s-0.66,0.27-1.06,0.27H8.84
		c-0.4,0-0.76-0.09-1.06-0.27s-0.54-0.44-0.71-0.77c-0.17-0.33-0.25-0.72-0.25-1.17c0-0.45,0.08-0.84,0.25-1.17s0.4-0.58,0.71-0.76
		s0.66-0.27,1.06-0.27h1.19c0.4,0,0.76,0.09,1.06,0.27s0.54,0.43,0.71,0.76S12.06,220.92,12.06,221.37z M10.87,221.37
		c0-0.27-0.07-0.47-0.22-0.62c-0.14-0.14-0.35-0.21-0.61-0.21H8.84c-0.27,0-0.47,0.07-0.62,0.21c-0.14,0.14-0.21,0.35-0.21,0.62
		c0,0.26,0.07,0.47,0.21,0.61c0.14,0.14,0.35,0.22,0.62,0.22h1.19c0.26,0,0.47-0.07,0.61-0.22S10.87,221.64,10.87,221.37z"/>
	<path class="st6" d="M12.06,215.78c0,0.45-0.08,0.84-0.25,1.18c-0.17,0.34-0.4,0.6-0.71,0.78s-0.66,0.28-1.06,0.28H8.84
		c-0.41,0-0.77-0.09-1.07-0.28c-0.3-0.18-0.53-0.44-0.7-0.78c-0.17-0.34-0.25-0.73-0.25-1.18c0-0.67,0.17-1.2,0.51-1.6
		c0.34-0.4,0.8-0.61,1.38-0.63v1.34c-0.21,0.02-0.38,0.11-0.51,0.27c-0.12,0.16-0.18,0.37-0.18,0.62c0,0.28,0.07,0.49,0.21,0.63
		c0.14,0.15,0.35,0.22,0.62,0.22h1.19c0.26,0,0.47-0.07,0.61-0.22c0.14-0.15,0.22-0.36,0.22-0.63c0-0.25-0.06-0.46-0.18-0.62
		c-0.12-0.16-0.29-0.25-0.51-0.27v-1.34c0.58,0.03,1.04,0.24,1.38,0.63C11.89,214.58,12.06,215.11,12.06,215.78z"/>
	<path class="st6" d="M11.97,212.45H5.26v-1.38h3.56v-0.7l-1.91-1.06v-1.52l2.47,1.41l2.58-1.43v1.54l-1.98,1.07v0.69h1.98V212.45z"
		/>
	<path class="st6" d="M11.97,206.86h-1.24v-1.33H6.5v1.33H5.26v-4.04H6.5v1.33h4.23v-1.33h1.24V206.86z"/>
	<path class="st6" d="M12.06,199.89c0,0.48-0.18,0.88-0.54,1.18c-0.36,0.3-0.84,0.45-1.44,0.45H8.8c-0.6,0-1.08-0.15-1.44-0.45
		c-0.36-0.3-0.54-0.7-0.54-1.18c0-0.34,0.08-0.62,0.25-0.86c0.17-0.24,0.41-0.41,0.72-0.52l-1.16,0.04H5.26v-1.38h6.71v1.33h-0.91
		c0.32,0.11,0.56,0.29,0.74,0.52C11.97,199.27,12.06,199.56,12.06,199.89z M10.87,199.36c0-0.26-0.07-0.46-0.23-0.6
		c-0.15-0.14-0.37-0.21-0.65-0.21h-1.1c-0.28,0-0.5,0.07-0.65,0.21s-0.23,0.34-0.23,0.6c0,0.25,0.07,0.45,0.21,0.58
		c0.14,0.14,0.35,0.21,0.62,0.21h1.19c0.26,0,0.47-0.07,0.61-0.21C10.79,199.8,10.87,199.61,10.87,199.36z"/>
	<path class="st6" d="M11.97,196.33l-2.62-1.75l-2.43,1.63v-1.53l1.01-0.62c0.08-0.05,0.17-0.09,0.27-0.14
		c0.1-0.04,0.18-0.08,0.24-0.1c-0.06-0.03-0.14-0.06-0.24-0.1c-0.1-0.04-0.19-0.09-0.27-0.14l-1.01-0.62v-1.53l2.43,1.62l2.62-1.74
		v1.53l-1.19,0.74c-0.09,0.05-0.18,0.1-0.27,0.14c-0.1,0.04-0.17,0.08-0.23,0.11c0.06,0.02,0.14,0.06,0.23,0.1
		c0.09,0.04,0.19,0.09,0.27,0.14l1.19,0.74V196.33z"/>
	<path class="st6" d="M12.06,188.3c0,0.28-0.09,0.5-0.26,0.67c-0.17,0.17-0.4,0.26-0.67,0.26c-0.28,0-0.5-0.09-0.67-0.26
		c-0.17-0.17-0.26-0.4-0.26-0.67c0-0.28,0.09-0.5,0.26-0.67s0.4-0.26,0.67-0.26c0.28,0,0.5,0.09,0.67,0.26S12.06,188.02,12.06,188.3
		z"/>
	<path class="st6" d="M13.62,184.11l-1.9-0.69l-4.81,1.9v-1.43l2.21-0.82c0.17-0.06,0.36-0.12,0.57-0.19
		c0.21-0.06,0.42-0.11,0.61-0.13c-0.19-0.02-0.39-0.06-0.61-0.12c-0.21-0.06-0.4-0.11-0.57-0.17l-2.21-0.76v-1.44l6.71,2.42V184.11z
		"/>
	<path d="M11.1,172.79l-0.6,0.85l-0.95-0.67c-0.13-0.09-0.24-0.18-0.32-0.27c-0.09-0.08-0.17-0.18-0.25-0.28
		c-0.01,0.13-0.03,0.25-0.05,0.37c-0.02,0.12-0.06,0.24-0.11,0.37l-0.4,1.07l-0.98-0.36l0.4-1.08c0.05-0.13,0.1-0.24,0.16-0.35
		s0.12-0.21,0.2-0.31c-0.12,0.04-0.25,0.08-0.38,0.1c-0.13,0.03-0.28,0.04-0.46,0.04H6.27v-1.05h1.09c0.18,0,0.33,0.01,0.46,0.04
		c0.13,0.02,0.25,0.06,0.38,0.1c-0.07-0.1-0.14-0.21-0.2-0.31s-0.11-0.22-0.16-0.35l-0.4-1.08l0.98-0.36l0.4,1.07
		c0.05,0.13,0.08,0.25,0.11,0.37s0.04,0.24,0.05,0.37c0.08-0.1,0.16-0.2,0.25-0.28c0.09-0.09,0.19-0.17,0.32-0.27l0.95-0.67
		l0.6,0.85l-0.94,0.68c-0.12,0.09-0.24,0.16-0.35,0.21c-0.11,0.05-0.23,0.1-0.35,0.14c0.12,0.04,0.24,0.09,0.35,0.14
		c0.11,0.05,0.23,0.12,0.35,0.21L11.1,172.79z"/>
	<path class="st7" d="M12.06,160.16c0,0.34-0.09,0.62-0.26,0.86c-0.17,0.24-0.42,0.41-0.74,0.52h0.91v1.33H5.26v-1.38h1.38
		l1.16,0.04c-0.31-0.11-0.55-0.28-0.72-0.52s-0.25-0.52-0.25-0.86c0-0.49,0.18-0.88,0.54-1.19c0.36-0.3,0.84-0.45,1.44-0.45h1.29
		c0.6,0,1.08,0.15,1.44,0.45C11.88,159.28,12.06,159.67,12.06,160.16z M10.87,160.7c0-0.25-0.07-0.45-0.22-0.58
		s-0.35-0.21-0.61-0.21H8.84c-0.27,0-0.47,0.07-0.62,0.21c-0.14,0.14-0.21,0.33-0.21,0.58c0,0.26,0.08,0.46,0.23,0.6
		c0.15,0.14,0.37,0.21,0.65,0.21h1.1c0.28,0,0.5-0.07,0.65-0.21C10.79,161.16,10.87,160.96,10.87,160.7z"/>
	<path class="st7" d="M11.97,154.35c0,0.36-0.07,0.67-0.23,0.94c-0.15,0.27-0.36,0.48-0.63,0.63c-0.27,0.15-0.58,0.23-0.94,0.23H6.5
		v1.61H5.26v-2.99h4.87c0.18,0,0.32-0.05,0.43-0.15s0.17-0.23,0.17-0.4v-1.42h1.24V154.35z"/>
	<path class="st7" d="M12.06,149.71c0,0.45-0.08,0.84-0.25,1.17c-0.17,0.33-0.4,0.59-0.71,0.77s-0.66,0.27-1.06,0.27H8.84
		c-0.4,0-0.76-0.09-1.06-0.27s-0.54-0.44-0.71-0.77c-0.17-0.33-0.25-0.72-0.25-1.17c0-0.45,0.08-0.84,0.25-1.17s0.4-0.58,0.71-0.76
		s0.66-0.27,1.06-0.27h1.19c0.4,0,0.76,0.09,1.06,0.27s0.54,0.44,0.71,0.76S12.06,149.26,12.06,149.71z M10.87,149.71
		c0-0.27-0.07-0.47-0.22-0.62c-0.14-0.14-0.35-0.21-0.61-0.21H8.84c-0.27,0-0.47,0.07-0.62,0.21c-0.14,0.14-0.21,0.35-0.21,0.62
		c0,0.26,0.07,0.47,0.21,0.61c0.14,0.14,0.35,0.22,0.62,0.22h1.19c0.26,0,0.47-0.07,0.61-0.22
		C10.79,150.18,10.87,149.97,10.87,149.71z"/>
	<path class="st7" d="M12.06,144.11c0,0.45-0.08,0.84-0.25,1.18s-0.4,0.6-0.71,0.78c-0.3,0.18-0.66,0.28-1.06,0.28H8.84
		c-0.41,0-0.77-0.09-1.07-0.28c-0.3-0.18-0.53-0.44-0.7-0.78s-0.25-0.73-0.25-1.18c0-0.67,0.17-1.2,0.51-1.6
		c0.34-0.4,0.8-0.61,1.38-0.63v1.34c-0.21,0.02-0.38,0.11-0.51,0.27c-0.12,0.16-0.18,0.37-0.18,0.62c0,0.28,0.07,0.49,0.21,0.63
		c0.14,0.15,0.35,0.22,0.62,0.22h1.19c0.26,0,0.47-0.07,0.61-0.22s0.22-0.36,0.22-0.63c0-0.25-0.06-0.46-0.18-0.62
		c-0.12-0.16-0.29-0.25-0.51-0.27v-1.34c0.58,0.02,1.04,0.24,1.38,0.63C11.89,142.91,12.06,143.45,12.06,144.11z"/>
	<path class="st7" d="M11.97,140.79H5.26v-1.38h3.56v-0.7l-1.91-1.06v-1.52l2.47,1.41l2.58-1.43v1.54l-1.98,1.07v0.69h1.98V140.79z"
		/>
	<path class="st7" d="M11.97,135.35H5.26v-2.18c0-0.47,0.09-0.87,0.27-1.22s0.43-0.62,0.75-0.81c0.32-0.19,0.7-0.29,1.13-0.29h2.4
		c0.43,0,0.81,0.1,1.13,0.29s0.58,0.46,0.76,0.81s0.27,0.75,0.27,1.22V135.35z M10.73,133.97v-0.8c0-0.28-0.09-0.5-0.26-0.68
		c-0.17-0.17-0.39-0.26-0.66-0.26h-2.4c-0.27,0-0.49,0.09-0.66,0.26c-0.17,0.17-0.25,0.4-0.25,0.68v0.8H10.73z"/>
	<path class="st7" d="M6.12,127.48c0,0.25-0.06,0.45-0.19,0.6c-0.13,0.15-0.3,0.23-0.52,0.23c-0.22,0-0.4-0.07-0.52-0.23
		c-0.13-0.15-0.19-0.35-0.19-0.6c0-0.25,0.06-0.45,0.19-0.6c0.13-0.15,0.3-0.23,0.52-0.23c0.22,0,0.4,0.08,0.52,0.23
		C6.05,127.02,6.12,127.22,6.12,127.48z M11.97,129.77h-1.24v-1.67H8.16v1.49H6.92v-2.87h3.81v-1.45h1.24V129.77z"/>
	<path class="st7" d="M11.97,124.55H6.92v-1.13H7.7v-0.02c-0.26-0.02-0.47-0.1-0.63-0.26c-0.16-0.15-0.24-0.35-0.24-0.59
		c0-0.22,0.08-0.41,0.23-0.57c0.16-0.16,0.36-0.27,0.61-0.32c-0.26-0.02-0.46-0.11-0.62-0.27c-0.15-0.16-0.23-0.36-0.23-0.6
		c0-0.3,0.12-0.55,0.36-0.76c0.24-0.21,0.55-0.31,0.93-0.31h3.86v1.19h-3.7c-0.29,0-0.44,0.12-0.44,0.35c0,0.22,0.15,0.33,0.44,0.33
		h3.7v1.08h-3.7c-0.29,0-0.44,0.11-0.44,0.33c0,0.23,0.15,0.35,0.44,0.35h3.7V124.55z"/>
	<path class="st7" d="M12.06,116.63c0,0.28-0.09,0.5-0.26,0.67s-0.4,0.26-0.67,0.26c-0.28,0-0.5-0.09-0.67-0.26s-0.26-0.4-0.26-0.67
		c0-0.28,0.09-0.5,0.26-0.67c0.17-0.17,0.4-0.26,0.67-0.26c0.28,0,0.5,0.09,0.67,0.26C11.97,116.13,12.06,116.36,12.06,116.63z"/>
	<path class="st7" d="M13.62,112.44l-1.9-0.69l-4.81,1.9v-1.43l2.21-0.82c0.17-0.06,0.36-0.12,0.57-0.19
		c0.21-0.06,0.42-0.11,0.61-0.13c-0.19-0.02-0.39-0.06-0.61-0.12c-0.21-0.06-0.4-0.11-0.57-0.17l-2.21-0.76v-1.44l6.71,2.42V112.44z
		"/>
	<path d="M11.14,100.79H9.58v1.56H8.29v-1.56H6.73v-1.38h1.56v-1.56h1.29v1.56h1.56V100.79z"/>
	<path class="st8" d="M11.97,88.57c0,0.51-0.15,0.92-0.44,1.21s-0.7,0.44-1.21,0.44H8.16v1.36H6.92v-1.36H5.49v-1.38h1.42v-1.98
		h1.24v1.98h2.11c0.13,0,0.25-0.04,0.33-0.11c0.09-0.07,0.13-0.17,0.13-0.31v-1.52h1.24V88.57z"/>
	<path class="st8" d="M11.97,85.71H5.26v-1.38h1.65l0.91,0.05c-0.31-0.08-0.55-0.24-0.73-0.48s-0.27-0.53-0.27-0.88
		c0-0.49,0.17-0.88,0.51-1.18c0.34-0.3,0.8-0.45,1.37-0.45h3.26v1.38H8.84c-0.26,0-0.47,0.07-0.61,0.21s-0.22,0.33-0.22,0.57
		c0,0.25,0.07,0.44,0.22,0.57c0.14,0.14,0.35,0.21,0.61,0.21h3.12V85.71z"/>
	<path class="st8" d="M11.97,80.01H6.92v-1.33h0.96c-0.32-0.07-0.58-0.23-0.77-0.48c-0.19-0.25-0.28-0.56-0.28-0.93
		c0-0.51,0.17-0.91,0.51-1.19c0.34-0.29,0.81-0.43,1.42-0.43h0.51v1.38H8.84c-0.26,0-0.47,0.07-0.61,0.21
		c-0.14,0.14-0.22,0.34-0.22,0.6c0,0.26,0.08,0.46,0.24,0.6c0.16,0.14,0.39,0.21,0.69,0.21h3.01V80.01z"/>
	<path class="st8" d="M12.06,72.52c0,0.45-0.08,0.84-0.25,1.17c-0.17,0.33-0.4,0.59-0.71,0.77s-0.66,0.27-1.06,0.27H8.84
		c-0.4,0-0.76-0.09-1.06-0.27s-0.54-0.44-0.71-0.77c-0.17-0.33-0.25-0.72-0.25-1.17c0-0.45,0.08-0.83,0.25-1.16s0.4-0.58,0.71-0.76
		s0.66-0.27,1.06-0.27h0.94v3.1h0.26c0.32,0,0.55-0.07,0.7-0.23c0.15-0.15,0.22-0.38,0.22-0.68c0-0.2-0.03-0.37-0.09-0.51
		c-0.06-0.15-0.15-0.23-0.28-0.26V70.4c0.44,0.1,0.8,0.34,1.07,0.73S12.06,71.98,12.06,72.52z M8.84,73.42h0.12l-0.02-1.78H8.83
		c-0.31,0-0.55,0.07-0.73,0.22C7.93,72,7.84,72.22,7.84,72.52c0,0.3,0.09,0.53,0.27,0.68C8.29,73.35,8.53,73.42,8.84,73.42z"/>
	<path class="st8" d="M12.06,67.67c0,0.5-0.15,0.9-0.44,1.19c-0.29,0.29-0.67,0.44-1.14,0.44c-0.51,0-0.91-0.18-1.2-0.54
		s-0.44-0.87-0.44-1.52v-0.99H8.51c-0.19,0-0.34,0.07-0.45,0.2c-0.11,0.13-0.16,0.32-0.16,0.56c0,0.23,0.05,0.42,0.14,0.56
		c0.09,0.14,0.23,0.21,0.4,0.23v1.3c-0.5-0.02-0.89-0.21-1.19-0.59c-0.29-0.37-0.44-0.88-0.44-1.52c0-0.67,0.15-1.19,0.46-1.56
		c0.31-0.37,0.73-0.56,1.29-0.56h3.4v1.33H11.1c0.3,0.06,0.54,0.22,0.71,0.48C11.97,66.95,12.06,67.28,12.06,67.67z M10.96,67.19
		c0-0.29-0.07-0.52-0.22-0.68s-0.33-0.25-0.56-0.25H9.66v0.96c0,0.25,0.06,0.43,0.18,0.56c0.12,0.13,0.27,0.2,0.46,0.2
		c0.19,0,0.35-0.07,0.47-0.21C10.9,67.63,10.96,67.44,10.96,67.19z"/>
	<path class="st8" d="M12.06,62.08c0,0.48-0.18,0.88-0.54,1.18c-0.36,0.3-0.84,0.45-1.44,0.45H8.8c-0.6,0-1.08-0.15-1.44-0.45
		c-0.36-0.3-0.54-0.7-0.54-1.18c0-0.34,0.08-0.62,0.25-0.86c0.17-0.24,0.41-0.41,0.72-0.52l-1.16,0.04H5.26v-1.38h6.71v1.33h-0.91
		c0.32,0.11,0.56,0.29,0.74,0.52C11.97,61.45,12.06,61.74,12.06,62.08z M10.87,61.54c0-0.26-0.07-0.46-0.23-0.6
		c-0.15-0.14-0.37-0.21-0.65-0.21h-1.1c-0.28,0-0.5,0.07-0.65,0.21s-0.23,0.34-0.23,0.6c0,0.25,0.07,0.45,0.21,0.58
		c0.14,0.14,0.35,0.21,0.62,0.21h1.19c0.26,0,0.47-0.07,0.61-0.21S10.87,61.8,10.87,61.54z"/>
	<path class="st8" d="M11.97,58.02h-1.24v-1.33H6.5v1.33H5.26v-4.04H6.5v1.33h4.23v-1.33h1.24V58.02z"/>
	<path class="st8" d="M12.06,51.05c0,0.48-0.18,0.88-0.54,1.18c-0.36,0.3-0.84,0.45-1.44,0.45H8.8c-0.6,0-1.08-0.15-1.44-0.45
		c-0.36-0.3-0.54-0.7-0.54-1.18c0-0.34,0.08-0.62,0.25-0.86c0.17-0.24,0.41-0.41,0.72-0.52l-1.16,0.04H5.26v-1.38h6.71v1.33h-0.91
		c0.32,0.11,0.56,0.29,0.74,0.52C11.97,50.43,12.06,50.72,12.06,51.05z M10.87,50.52c0-0.26-0.07-0.46-0.23-0.6
		c-0.15-0.14-0.37-0.21-0.65-0.21h-1.1c-0.28,0-0.5,0.07-0.65,0.21s-0.23,0.34-0.23,0.6c0,0.25,0.07,0.45,0.21,0.58
		c0.14,0.14,0.35,0.21,0.62,0.21h1.19c0.26,0,0.47-0.07,0.61-0.21S10.87,50.77,10.87,50.52z"/>
	<path class="st8" d="M12.06,44.97c0,0.28-0.09,0.5-0.26,0.67s-0.4,0.26-0.67,0.26c-0.28,0-0.5-0.09-0.67-0.26s-0.26-0.4-0.26-0.67
		c0-0.28,0.09-0.5,0.26-0.67c0.17-0.17,0.4-0.26,0.67-0.26c0.28,0,0.5,0.09,0.67,0.26C11.97,44.47,12.06,44.69,12.06,44.97z"/>
	<path class="st8" d="M13.62,40.78l-1.9-0.69l-4.81,1.9v-1.43l2.21-0.82c0.17-0.06,0.36-0.12,0.57-0.19
		c0.21-0.06,0.42-0.11,0.61-0.13c-0.19-0.02-0.39-0.06-0.61-0.12c-0.21-0.06-0.4-0.11-0.57-0.17l-2.21-0.76v-1.44l6.71,2.42V40.78z"
		/>
</g>
<g>
	<path class="st9" d="M32,234.03h-1.23l-2.53-2.54c-0.26-0.26-0.57-0.39-0.93-0.39c-0.25,0-0.46,0.08-0.62,0.22
		c-0.17,0.15-0.25,0.35-0.25,0.59c0,0.25,0.09,0.46,0.26,0.61c0.17,0.16,0.39,0.23,0.66,0.23v1.38c-0.43,0-0.8-0.1-1.13-0.29
		c-0.32-0.19-0.57-0.46-0.76-0.8c-0.18-0.34-0.28-0.73-0.28-1.18c0-0.43,0.08-0.81,0.25-1.14s0.4-0.58,0.71-0.76
		s0.65-0.28,1.05-0.28c0.35,0,0.7,0.08,1.03,0.23c0.33,0.15,0.66,0.4,0.99,0.74l1.53,1.6v-2.65H32V234.03z"/>
	<path d="M31.13,221.88l-0.6,0.85l-0.95-0.67c-0.13-0.09-0.24-0.18-0.32-0.27c-0.09-0.09-0.17-0.18-0.25-0.29
		c-0.01,0.13-0.03,0.25-0.05,0.37s-0.06,0.24-0.11,0.37l-0.4,1.08l-0.98-0.36l0.4-1.08c0.05-0.13,0.1-0.25,0.16-0.35
		c0.06-0.1,0.12-0.21,0.2-0.31c-0.12,0.04-0.25,0.08-0.38,0.1c-0.13,0.02-0.28,0.04-0.46,0.04H26.3v-1.05h1.09
		c0.18,0,0.33,0.01,0.46,0.04c0.13,0.02,0.25,0.06,0.38,0.1c-0.07-0.1-0.14-0.21-0.2-0.31c-0.06-0.1-0.11-0.22-0.16-0.35l-0.4-1.08
		l0.98-0.36l0.4,1.08c0.05,0.13,0.08,0.25,0.11,0.37s0.04,0.24,0.05,0.37c0.08-0.1,0.16-0.2,0.25-0.28
		c0.09-0.09,0.19-0.18,0.32-0.27l0.95-0.67l0.6,0.85l-0.94,0.68c-0.12,0.09-0.24,0.16-0.35,0.21c-0.11,0.05-0.23,0.1-0.35,0.14
		c0.12,0.04,0.24,0.09,0.35,0.14c0.11,0.05,0.23,0.12,0.35,0.21L31.13,221.88z"/>
	<path class="st7" d="M32,211.98h-1.23l-2.53-2.54c-0.26-0.26-0.57-0.39-0.93-0.39c-0.25,0-0.46,0.08-0.62,0.23
		c-0.17,0.15-0.25,0.35-0.25,0.59c0,0.25,0.09,0.46,0.26,0.61s0.39,0.23,0.66,0.23v1.38c-0.43,0-0.8-0.1-1.13-0.29
		c-0.32-0.19-0.57-0.46-0.76-0.8c-0.18-0.34-0.28-0.73-0.28-1.18c0-0.43,0.08-0.81,0.25-1.14c0.17-0.32,0.4-0.58,0.71-0.76
		s0.65-0.28,1.05-0.28c0.35,0,0.7,0.08,1.03,0.23c0.33,0.15,0.66,0.4,0.99,0.74l1.53,1.6v-2.65H32V211.98z"/>
</g>
<g>
	<path class="st9" d="M32,165.81h-1.24v-1.69h-4.07l1.23,1.71h-1.52l-1.1-1.57v-1.52h5.47v-1.34H32V165.81z"/>
	<path d="M31.13,153.79l-0.6,0.85l-0.95-0.67c-0.13-0.09-0.24-0.18-0.32-0.27c-0.09-0.09-0.17-0.18-0.25-0.28
		c-0.01,0.13-0.03,0.25-0.05,0.37s-0.06,0.24-0.11,0.37l-0.4,1.08l-0.98-0.36l0.4-1.08c0.05-0.13,0.1-0.24,0.16-0.35
		c0.06-0.1,0.12-0.21,0.2-0.31c-0.12,0.04-0.25,0.08-0.38,0.1c-0.13,0.02-0.28,0.04-0.46,0.04H26.3v-1.05h1.09
		c0.18,0,0.33,0.01,0.46,0.04c0.13,0.02,0.25,0.06,0.38,0.1c-0.07-0.1-0.14-0.21-0.2-0.31s-0.11-0.22-0.16-0.35l-0.4-1.08l0.98-0.36
		l0.4,1.07c0.05,0.13,0.08,0.25,0.11,0.37c0.02,0.12,0.04,0.24,0.05,0.37c0.08-0.1,0.16-0.2,0.25-0.28
		c0.09-0.09,0.19-0.17,0.32-0.27l0.95-0.67l0.6,0.85l-0.94,0.68c-0.12,0.09-0.24,0.15-0.35,0.21c-0.11,0.05-0.23,0.1-0.35,0.14
		c0.12,0.04,0.24,0.09,0.35,0.14c0.11,0.05,0.23,0.12,0.35,0.21L31.13,153.79z"/>
	<path class="st7" d="M32,143.9h-1.23l-2.53-2.54c-0.26-0.26-0.57-0.39-0.93-0.39c-0.25,0-0.46,0.08-0.62,0.23
		c-0.17,0.15-0.25,0.35-0.25,0.59c0,0.25,0.09,0.46,0.26,0.61c0.17,0.16,0.39,0.23,0.66,0.23v1.38c-0.43,0-0.8-0.1-1.13-0.29
		c-0.32-0.19-0.57-0.46-0.76-0.8c-0.18-0.34-0.28-0.73-0.28-1.18c0-0.44,0.08-0.81,0.25-1.14s0.4-0.58,0.71-0.76
		s0.65-0.28,1.05-0.28c0.35,0,0.7,0.08,1.03,0.23c0.33,0.15,0.66,0.4,0.99,0.74l1.53,1.6v-2.65H32V143.9z"/>
	<path class="st10" d="M31.17,131.4h-1.56v1.56h-1.29v-1.56h-1.56v-1.38h1.56v-1.56h1.29v1.56h1.56V131.4z"/>
	<path class="st8" d="M32.09,119.69c0,0.45-0.08,0.84-0.25,1.17c-0.17,0.33-0.4,0.59-0.71,0.77s-0.66,0.27-1.06,0.27h-2.85
		c-0.4,0-0.76-0.09-1.06-0.27s-0.54-0.44-0.71-0.77c-0.17-0.33-0.25-0.72-0.25-1.17c0-0.45,0.08-0.84,0.25-1.17s0.4-0.58,0.71-0.76
		s0.66-0.27,1.06-0.27h2.85c0.4,0,0.76,0.09,1.06,0.27s0.54,0.44,0.71,0.76C32.01,118.84,32.09,119.23,32.09,119.69z M30.9,119.69
		c0-0.29-0.07-0.51-0.22-0.68c-0.15-0.16-0.35-0.24-0.61-0.24h-2.85c-0.26,0-0.46,0.08-0.61,0.24c-0.15,0.16-0.22,0.39-0.22,0.68
		c0,0.29,0.07,0.51,0.22,0.68c0.15,0.16,0.35,0.24,0.61,0.24h2.85c0.26,0,0.46-0.08,0.61-0.25C30.82,120.19,30.9,119.97,30.9,119.69
		z M29.23,119.69c0,0.19-0.05,0.34-0.16,0.46c-0.11,0.12-0.26,0.18-0.45,0.18c-0.2,0-0.34-0.06-0.45-0.18
		c-0.1-0.12-0.15-0.27-0.15-0.46c0-0.2,0.05-0.35,0.15-0.47c0.1-0.12,0.25-0.17,0.45-0.17c0.2,0,0.35,0.06,0.45,0.17
		C29.18,119.34,29.23,119.49,29.23,119.69z"/>
</g>
<g>
	<path class="st9" d="M32.09,94.11c0,0.45-0.08,0.84-0.25,1.17c-0.17,0.33-0.4,0.59-0.71,0.77s-0.66,0.27-1.06,0.27h-2.85
		c-0.4,0-0.76-0.09-1.06-0.27s-0.54-0.44-0.71-0.77c-0.17-0.33-0.25-0.72-0.25-1.17c0-0.45,0.08-0.84,0.25-1.17s0.4-0.58,0.71-0.76
		s0.66-0.27,1.06-0.27h2.85c0.4,0,0.76,0.09,1.06,0.27s0.54,0.44,0.71,0.76C32.01,93.27,32.09,93.66,32.09,94.11z M30.9,94.11
		c0-0.29-0.07-0.51-0.22-0.68c-0.15-0.16-0.35-0.24-0.61-0.24h-2.85c-0.26,0-0.46,0.08-0.61,0.24c-0.15,0.16-0.22,0.39-0.22,0.68
		c0,0.29,0.07,0.51,0.22,0.68c0.15,0.16,0.35,0.24,0.61,0.24h2.85c0.26,0,0.46-0.08,0.61-0.25C30.82,94.62,30.9,94.39,30.9,94.11z
		 M29.23,94.11c0,0.19-0.05,0.34-0.16,0.46c-0.11,0.12-0.26,0.18-0.45,0.18c-0.2,0-0.34-0.06-0.45-0.18
		c-0.1-0.12-0.15-0.27-0.15-0.46c0-0.2,0.05-0.35,0.15-0.47c0.1-0.12,0.25-0.17,0.45-0.17c0.2,0,0.35,0.06,0.45,0.17
		C29.18,93.76,29.23,93.92,29.23,94.11z"/>
	<path d="M31.13,84.12l-0.6,0.85l-0.95-0.67c-0.13-0.09-0.24-0.18-0.32-0.27c-0.09-0.09-0.17-0.18-0.25-0.28
		C29,83.88,28.98,84,28.96,84.12s-0.06,0.24-0.11,0.37l-0.4,1.08l-0.98-0.36l0.4-1.08c0.05-0.13,0.1-0.24,0.16-0.35
		c0.06-0.1,0.12-0.21,0.2-0.31c-0.12,0.04-0.25,0.08-0.38,0.1c-0.13,0.02-0.28,0.04-0.46,0.04H26.3v-1.05h1.09
		c0.18,0,0.33,0.01,0.46,0.04c0.13,0.02,0.25,0.06,0.38,0.1c-0.07-0.1-0.14-0.21-0.2-0.31s-0.11-0.22-0.16-0.35l-0.4-1.08l0.98-0.36
		l0.4,1.07c0.05,0.13,0.08,0.25,0.11,0.37c0.02,0.12,0.04,0.24,0.05,0.37c0.08-0.1,0.16-0.2,0.25-0.28
		c0.09-0.09,0.19-0.17,0.32-0.27l0.95-0.67l0.6,0.85l-0.94,0.68c-0.12,0.09-0.24,0.15-0.35,0.21c-0.11,0.05-0.23,0.1-0.35,0.14
		c0.12,0.04,0.24,0.09,0.35,0.14c0.11,0.05,0.23,0.12,0.35,0.21L31.13,84.12z"/>
	<path class="st7" d="M32,74.22h-1.23l-2.53-2.54c-0.26-0.26-0.57-0.39-0.93-0.39c-0.25,0-0.46,0.08-0.62,0.23
		c-0.17,0.15-0.25,0.35-0.25,0.59c0,0.25,0.09,0.46,0.26,0.61c0.17,0.16,0.39,0.23,0.66,0.23v1.38c-0.43,0-0.8-0.1-1.13-0.29
		c-0.32-0.19-0.57-0.46-0.76-0.8c-0.18-0.34-0.28-0.73-0.28-1.18c0-0.44,0.08-0.81,0.25-1.14s0.4-0.58,0.71-0.76
		s0.65-0.28,1.05-0.28c0.35,0,0.7,0.08,1.03,0.23c0.33,0.15,0.66,0.4,0.99,0.74l1.53,1.6v-2.65H32V74.22z"/>
</g>
</svg>
